# Blender 4.1.0
# www.blender.org
mtllib Banner_wall.mtl
o Banner_wall.001
v 0.402942 -0.050210 -0.000331
v 0.402942 0.001480 -0.030174
v 0.402942 -0.050210 0.059355
v 0.402942 0.001480 0.089198
v 0.402942 0.053169 0.059355
v 0.402942 0.053169 -0.000331
v 0.483594 -0.040671 0.005176
v 0.483594 0.001480 -0.019160
v 0.483594 -0.040671 0.053847
v 0.483594 0.001480 0.078183
v 0.483594 0.043630 0.053847
v 0.483594 0.043630 0.005176
v 0.483594 -0.025891 0.021491
v 0.483594 0.001480 0.013471
v 0.483594 -0.025891 0.037532
v 0.483594 0.001480 0.045553
v 0.483594 0.028851 0.037532
v 0.483594 0.028851 0.021491
v 0.543195 -0.014450 0.019825
v 0.543195 0.001480 0.010137
v 0.543195 -0.014450 0.039199
v 0.543195 0.001480 0.048886
v 0.543195 0.017410 0.039199
v 0.543195 0.017410 0.019825
v 0.556042 -0.050622 0.019825
v 0.556042 0.001480 0.010137
v 0.556042 -0.050622 0.039199
v 0.556042 0.001480 0.048886
v 0.556042 0.053581 0.039199
v 0.556042 0.053581 0.019825
v 0.790784 -0.014269 0.019825
v 0.847185 0.001480 0.020729
v 0.790784 -0.014269 0.039199
v 0.847185 0.001480 0.038294
v 0.790784 0.017228 0.039199
v 0.790784 0.017228 0.019825
v 0.792226 0.001480 0.044641
v 0.793600 0.001480 0.014407
v 0.402942 -0.032319 0.009998
v 0.402942 0.001480 -0.009516
v 0.402942 -0.032319 0.049026
v 0.402942 0.001480 0.068540
v 0.402942 0.035279 0.049026
v 0.402942 0.035279 0.009998
v 0.220423 -0.032319 0.049026
v 0.220423 -0.032319 0.009998
v 0.220423 0.035279 0.009998
v 0.220423 0.035279 0.049026
v 0.220423 0.001480 0.068540
v 0.220423 0.001480 -0.009516
v 0.286841 -0.032319 0.009998
v 0.286841 0.035279 0.049026
v 0.286841 0.001480 -0.009516
v 0.286841 -0.032319 0.049026
v 0.286841 0.035279 0.009998
v 0.286841 0.001480 0.068540
v 0.284328 -0.039570 0.053212
v 0.222936 -0.039570 0.053212
v 0.284328 0.042530 0.005812
v 0.222936 0.042530 0.005812
v 0.284328 0.001480 0.076912
v 0.222936 0.001480 0.076912
v 0.222936 0.042529 0.053212
v 0.222936 0.001480 -0.017888
v 0.222936 -0.039570 0.005812
v 0.284328 -0.039570 0.005812
v 0.284328 0.042529 0.053212
v 0.284328 0.001480 -0.017888
v -0.348832 -0.050210 -0.000331
v -0.348832 0.001480 -0.030174
v -0.348832 -0.050210 0.059355
v -0.348832 0.001480 0.089198
v -0.348832 0.053169 0.059355
v -0.348832 0.053169 -0.000331
v -0.429484 -0.040671 0.005176
v -0.429484 0.001480 -0.019160
v -0.429484 -0.040671 0.053847
v -0.429484 0.001480 0.078183
v -0.429484 0.043630 0.053847
v -0.429484 0.043630 0.005176
v -0.429484 -0.025891 0.021491
v -0.429484 0.001480 0.013471
v -0.429484 -0.025891 0.037532
v -0.429484 0.001480 0.045553
v -0.429484 0.028851 0.037532
v -0.429484 0.028851 0.021491
v -0.489085 -0.014450 0.019825
v -0.489085 0.001480 0.010137
v -0.489085 -0.014450 0.039199
v -0.489085 0.001480 0.048886
v -0.489085 0.017410 0.039199
v -0.489085 0.017410 0.019825
v -0.501932 -0.050622 0.019825
v -0.501932 0.001480 0.010137
v -0.501932 -0.050622 0.039199
v -0.501932 0.001480 0.048886
v -0.501932 0.053581 0.039199
v -0.501932 0.053581 0.019825
v -0.736674 -0.014269 0.019825
v -0.793076 0.001480 0.020729
v -0.736674 -0.014269 0.039199
v -0.793076 0.001480 0.038294
v -0.736674 0.017228 0.039199
v -0.736674 0.017228 0.019825
v -0.738116 0.001480 0.044641
v -0.739491 0.001480 0.014407
v -0.348832 -0.032319 0.009998
v -0.348832 0.001480 -0.009516
v -0.348832 -0.032319 0.049026
v -0.348832 0.001480 0.068540
v -0.348832 0.035279 0.049026
v -0.348832 0.035279 0.009998
v -0.220423 -0.032319 0.049026
v -0.220423 -0.032319 0.009998
v -0.220423 0.035279 0.009998
v -0.220423 0.035279 0.049026
v -0.220423 0.001480 0.068540
v -0.220423 0.001480 -0.009516
v -0.286841 -0.032319 0.009998
v -0.286841 0.035279 0.049026
v -0.286841 0.001480 -0.009516
v -0.286841 -0.032319 0.049026
v -0.286841 0.035279 0.009998
v -0.286841 0.001480 0.068540
v -0.284328 -0.039570 0.053212
v -0.222936 -0.039570 0.053212
v -0.284328 0.042530 0.005812
v -0.222936 0.042530 0.005812
v -0.284328 0.001480 0.076912
v -0.222936 0.001480 0.076912
v -0.222936 0.042529 0.053212
v -0.222936 0.001480 -0.017888
v -0.222936 -0.039570 0.005812
v -0.284328 -0.039570 0.005812
v -0.284328 0.042529 0.053212
v -0.284328 0.001480 -0.017888
v 0.000000 -0.032319 0.009998
v 0.000000 0.001480 -0.009516
v 0.000000 -0.032319 0.049026
v 0.000000 0.001480 0.068540
v 0.000000 0.035279 0.049026
v 0.000000 0.035279 0.009998
v -0.282171 -0.002856 0.063469
v 0.278729 -0.002856 0.063469
v -0.282171 -1.773746 0.063469
v 0.278729 -1.773746 0.063469
v -0.001721 -0.002856 0.063469
v -0.001721 -1.773746 0.063469
v 0.278729 -2.793281 0.063469
v -0.282171 -2.793281 0.063469
v -0.282171 -1.773746 0.044159
v -0.282171 -0.002856 0.044159
v -0.001721 -0.002856 0.044159
v 0.278729 -0.002856 0.044159
v 0.278729 -1.773746 0.044159
v -0.001721 -1.773746 0.044159
v 0.278729 -2.793281 0.044159
v -0.282171 -2.793281 0.044159
v -0.282171 -1.728126 0.063469
v 0.261962 -1.728126 0.063469
v -0.001721 -1.728126 0.063469
v -0.282171 -1.728126 0.044159
v 0.261962 -1.728126 0.044159
v -0.001721 -1.728126 0.044159
v -0.282171 -1.143705 0.063469
v -0.282171 -1.143705 0.044159
v 0.293491 -0.865553 0.063469
v -0.001721 -0.865553 0.063469
v 0.293491 -0.865553 0.044159
v -0.001721 -0.865553 0.044159
v -0.258415 -1.090077 0.063469
v -0.258415 -1.090077 0.044159
v 0.278441 -0.832672 0.063469
v -0.001721 -0.832672 0.063469
v 0.278441 -0.832672 0.044159
v -0.001721 -0.832672 0.044159
v -0.282171 -1.047993 0.063469
v -0.282171 -1.047993 0.044159
v 0.290059 -0.769841 0.063469
v -0.001721 -0.769841 0.063469
v 0.290059 -0.769841 0.044159
v -0.001721 -0.769841 0.044159
v -0.270361 -2.283513 0.063469
v -0.270361 -2.283513 0.044159
v -0.282171 -2.329634 0.044159
v -0.282171 -2.326779 0.063469
v -0.282171 -2.269522 0.044159
v -0.282171 -2.264036 0.063469
v 0.341317 -0.032319 0.009998
v 0.341317 0.011473 0.049026
v 0.341317 0.001480 -0.009516
v 0.341317 -0.032319 0.049026
v 0.341317 0.011473 0.009998
v 0.341317 0.001480 0.068540
v 0.361224 -0.032319 0.009998
v 0.361224 0.035279 0.049026
v 0.361224 0.001480 -0.009516
v 0.361224 -0.032319 0.049026
v 0.361224 0.035279 0.009998
v 0.361224 0.001480 0.068540
v 0.327768 0.004811 -0.503859
v 0.300390 0.016775 -0.503859
v 0.300390 -0.017198 -0.503859
v 0.300390 -0.000212 -0.503859
v -0.333414 -0.015507 -0.503859
v -0.333414 0.001480 -0.503859
v -0.333414 0.018467 -0.503859
v -0.302259 -0.015507 -0.503859
v -0.302259 0.001480 -0.503859
v -0.302259 0.018467 -0.503859
v 0.327768 -0.017198 -0.503859
v 0.327768 -0.000212 -0.503859
v -0.307056 0.001480 -0.085147
v -0.307056 0.013235 -0.085147
v -0.328617 -0.010276 -0.085147
v -0.307056 -0.010276 -0.085147
v -0.328617 0.001480 -0.085147
v -0.328617 0.013235 -0.085147
v 0.304606 -0.012863 -0.085147
v 0.304606 -0.001108 -0.085147
v 0.304606 0.010648 -0.085147
v 0.323553 -0.012863 -0.085147
v 0.323553 -0.001108 -0.085147
v 0.323553 0.002368 -0.085147
vn -0.0000 -1.0000 -0.0000
vn -0.0000 1.0000 -0.0000
vn -0.0000 -0.5000 0.8660
vn -0.0000 -0.5000 -0.8660
vn -0.0000 0.5000 -0.8660
vn -0.0000 0.5000 0.8660
vn 0.4004 0.9163 -0.0000
vn -0.9999 -0.0000 0.0101
vn -0.0000 -0.9999 0.0125
vn -0.0000 0.8901 0.4558
vn 0.9999 -0.0000 0.0115
vn -0.5132 0.4291 -0.7433
vn -0.7671 0.6415 -0.0000
vn -0.0000 -0.0000 -1.0000
vn -0.0000 -0.9999 0.0104
vn -0.9999 -0.0000 0.0115
vn -0.0000 0.9999 0.0125
vn 0.9999 -0.0000 0.0101
vn 0.4004 0.9163 0.0094
vn 0.9661 -0.0000 -0.2582
vn -0.9661 -0.0000 -0.2582
vn -0.0000 0.9742 -0.2257
vn -0.9622 -0.1363 -0.2360
vn 0.9622 0.1362 -0.2360
vn -0.0000 -0.9742 -0.2257
vn 0.9735 -0.0000 -0.2287
vn 0.3953 0.9045 -0.1603
vn 0.8931 0.4004 -0.2051
vn -0.0000 -0.9797 -0.2003
vn -0.9714 -0.1187 -0.2057
vn -0.9735 -0.0000 -0.2287
vn 0.1174 0.4966 -0.8600
vn 1.0000 -0.0000 -0.0000
vn 0.1175 0.4965 0.8600
vn 0.1175 -0.9931 -0.0000
vn 0.1175 0.9931 -0.0000
vn 0.1175 -0.4965 0.8600
vn 0.1175 -0.4965 -0.8600
vn -0.0477 0.5190 -0.8534
vn -0.9423 0.3347 -0.0000
vn 0.0271 0.2811 0.9593
vn 0.1885 -0.9821 -0.0000
vn 0.1885 0.9821 -0.0000
vn -0.0477 -0.5190 0.8535
vn 0.0271 -0.2811 -0.9593
vn 0.0283 0.1827 0.9828
vn -0.0000 -0.5196 0.8544
vn -0.4577 -0.1625 -0.8741
vn -0.0000 0.5196 -0.8544
vn -0.4576 0.1625 0.8742
vn -0.9423 -0.3347 -0.0000
vn 0.2689 -0.9632 -0.0000
vn 0.1530 -0.9882 -0.0000
vn 0.1530 0.9882 -0.0000
vn 0.0170 -0.3279 0.9445
vn 0.0283 -0.1827 -0.9828
vn 0.0170 0.3280 -0.9445
vn 0.2689 0.9632 -0.0000
vn 0.1082 -0.3335 0.9365
vn 0.1082 0.3335 0.9365
vn 0.1101 0.3409 -0.9336
vn 0.1102 -0.3409 -0.9336
vn -1.0000 -0.0000 -0.0000
vn -0.1175 0.4965 -0.8600
vn -0.1175 0.4965 0.8600
vn -0.1175 -0.9931 -0.0000
vn -0.1175 0.9931 -0.0000
vn -0.1175 -0.4965 0.8600
vn -0.1175 -0.4965 -0.8600
vn -0.0271 0.2811 -0.9593
vn 0.9423 0.3347 -0.0000
vn -0.0271 0.2811 0.9593
vn -0.1885 -0.9821 -0.0000
vn -0.1885 0.9821 -0.0000
vn -0.0271 -0.2811 0.9593
vn -0.0271 -0.2811 -0.9593
vn -0.0283 0.1827 0.9828
vn -0.0000 -0.5196 -0.8544
vn -0.0000 0.5196 0.8544
vn 0.9423 -0.3347 -0.0000
vn -0.2689 -0.9632 -0.0000
vn -0.1530 -0.9882 -0.0000
vn -0.1530 0.9882 -0.0000
vn -0.0283 -0.1827 0.9828
vn -0.0283 -0.1827 -0.9828
vn -0.0283 0.1827 -0.9828
vn -0.2689 0.9632 -0.0000
vn -0.1082 -0.3335 0.9365
vn -0.1082 0.3335 0.9365
vn -0.1101 0.3409 -0.9336
vn -0.1102 -0.3409 -0.9336
vn 0.9449 -0.1637 0.2836
vn -0.9449 0.1638 0.2836
vn 0.9449 0.1637 0.2836
vn -0.9449 -0.1637 0.2836
vn 0.9449 0.3275 -0.0000
vn 0.9449 0.1637 -0.2836
vn -0.9449 0.3275 -0.0000
vn -0.9449 0.1637 -0.2836
vn 0.9449 -0.1637 -0.2836
vn -0.9449 -0.3275 -0.0000
vn 0.9449 -0.3275 -0.0000
vn -0.9449 -0.1637 -0.2836
vn 0.9449 0.1638 0.2836
vn -0.9449 0.1637 0.2836
vn -0.0000 -0.0000 1.0000
vn 0.9642 -0.2652 -0.0000
vn -0.9647 0.2633 -0.0000
vn 0.9999 0.0148 -0.0000
vn -0.9642 -0.2652 -0.0000
vn 0.9386 0.3450 -0.0000
vn -0.9143 0.4050 -0.0000
vn 0.9993 -0.0365 -0.0000
vn -0.8708 -0.4916 -0.0000
vn 0.9093 0.4162 -0.0000
vn 0.9833 -0.1818 -0.0000
vn -0.8460 -0.5130 0.1457
vn 0.2135 0.4885 0.8461
vn -0.5132 0.4291 0.7433
vn -0.0000 0.8901 -0.4558
vn 0.9622 -0.1362 -0.2360
vn -0.9622 0.1363 -0.2360
vn 0.9714 -0.1187 -0.2056
vn 0.3953 0.9045 -0.1604
vn -0.9693 0.1229 -0.2128
vn 0.1175 0.4965 -0.8600
vn 0.1174 -0.4965 -0.8600
vn 0.0271 0.2811 -0.9593
vn -0.0477 0.5190 0.8535
vn 0.0271 -0.2811 0.9593
vn -0.0477 -0.5190 -0.8534
vn 0.0170 0.3280 0.9445
vn -0.4576 -0.1625 0.8742
vn -0.4576 0.1625 -0.8741
vn 0.0283 -0.1827 0.9828
vn 0.0170 -0.3280 -0.9445
vn 0.0283 0.1827 -0.9828
vn -0.1174 0.4966 -0.8600
vn -0.1174 -0.4965 -0.8600
vn 0.0477 0.5190 -0.8534
vn 0.0477 0.5190 0.8535
vn 0.0477 -0.5190 0.8535
vn 0.0477 -0.5190 -0.8534
vn -0.0170 0.3280 0.9445
vn 0.4576 -0.1625 0.8742
vn 0.4577 -0.1625 -0.8741
vn 0.4576 0.1625 -0.8741
vn 0.4576 0.1625 0.8742
vn -0.0170 -0.3279 0.9445
vn -0.0170 -0.3280 -0.9445
vn -0.0170 0.3280 -0.9445
vn -0.9681 0.2479 -0.0367
vn -0.7642 -0.6450 -0.0000
s 0
usemtl Wood.020
f 45//1 137//1 46//1
f 47//2 141//2 48//2
f 49//3 139//3 45//3
f 46//4 138//4 50//4
f 50//5 142//5 47//5
f 48//6 140//6 49//6
f 192//1 51//1 189//1
f 193//7 52//7 190//7
f 194//3 54//3 192//3
f 221//8 204//8 220//8
f 216//9 205//9 208//9
f 190//10 56//10 194//10
f 137//1 113//1 114//1
f 141//2 115//2 116//2
f 139//3 117//3 113//3
f 138//4 114//4 118//4
f 142//5 118//5 115//5
f 140//6 116//6 117//6
f 119//1 109//1 107//1
f 120//2 112//2 111//2
f 122//3 110//3 109//3
f 214//11 209//11 210//11
f 219//8 204//8 203//8
f 124//6 111//6 110//6
f 200//10 190//10 194//10
f 197//12 193//12 199//12
f 195//4 191//4 197//4
f 200//3 192//3 198//3
f 199//13 190//13 196//13
f 198//1 189//1 195//1
f 41//1 195//1 39//1
f 44//2 196//2 43//2
f 42//3 198//3 41//3
f 39//4 197//4 40//4
f 40//5 199//5 44//5
f 43//6 200//6 42//6
f 211//14 204//14 212//14
f 201//14 204//14 202//14
f 209//14 205//14 206//14
f 210//14 206//14 207//14
f 219//15 211//15 222//15
f 215//16 206//16 205//16
f 214//17 207//17 218//17
f 224//18 212//18 201//18
f 221//19 201//19 202//19
f 222//18 212//18 223//18
f 218//16 206//16 217//16
f 216//11 209//11 213//11
f 121//20 216//20 213//20
f 108//21 218//21 217//21
f 123//22 218//22 112//22
f 108//23 215//23 107//23
f 121//24 214//24 123//24
f 119//25 215//25 216//25
f 191//26 222//26 223//26
f 193//27 221//27 55//27
f 191//28 224//28 193//28
f 189//29 219//29 222//29
f 53//30 219//30 51//30
f 53//31 221//31 220//31
f 45//1 139//1 137//1
f 47//2 142//2 141//2
f 49//3 140//3 139//3
f 46//4 137//4 138//4
f 50//5 138//5 142//5
f 48//6 141//6 140//6
f 192//1 54//1 51//1
f 193//7 55//7 52//7
f 194//3 56//3 54//3
f 221//8 202//8 204//8
f 216//9 215//9 205//9
f 190//118 52//118 56//118
f 137//1 139//1 113//1
f 141//2 142//2 115//2
f 139//3 140//3 117//3
f 138//4 137//4 114//4
f 142//5 138//5 118//5
f 140//6 141//6 116//6
f 119//1 122//1 109//1
f 120//2 123//2 112//2
f 122//3 124//3 110//3
f 214//11 213//11 209//11
f 219//8 220//8 204//8
f 124//6 120//6 111//6
f 200//119 196//119 190//119
f 197//120 191//120 193//120
f 195//4 189//4 191//4
f 200//3 194//3 192//3
f 199//13 193//13 190//13
f 198//1 192//1 189//1
f 41//1 198//1 195//1
f 44//2 199//2 196//2
f 42//3 200//3 198//3
f 39//4 195//4 197//4
f 40//5 197//5 199//5
f 43//6 196//6 200//6
f 211//14 203//14 204//14
f 201//14 212//14 204//14
f 209//14 208//14 205//14
f 210//14 209//14 206//14
f 219//15 203//15 211//15
f 215//16 217//16 206//16
f 214//17 210//17 207//17
f 224//18 223//18 212//18
f 221//19 224//19 201//19
f 222//18 211//18 212//18
f 218//16 207//16 206//16
f 216//11 208//11 209//11
f 121//121 119//121 216//121
f 108//122 112//122 218//122
f 123//22 214//22 218//22
f 108//21 217//21 215//21
f 121//20 213//20 214//20
f 119//25 107//25 215//25
f 191//123 189//123 222//123
f 193//124 224//124 221//124
f 191//26 223//26 224//26
f 189//29 51//29 219//29
f 53//31 220//31 219//31
f 53//125 55//125 221//125
usemtl Metal.016
f 2//32 12//32 8//32
f 11//33 18//33 12//33
f 5//34 10//34 11//34
f 1//35 9//35 3//35
f 6//36 11//36 12//36
f 3//37 10//37 4//37
f 2//38 7//38 1//38
f 14//39 24//39 20//39
f 9//33 16//33 10//33
f 7//33 14//33 13//33
f 12//33 14//33 8//33
f 11//33 16//33 17//33
f 7//33 15//33 9//33
f 23//40 30//40 24//40
f 16//41 23//41 17//41
f 15//42 19//42 21//42
f 17//43 24//43 18//43
f 16//44 21//44 22//44
f 14//45 19//45 13//45
f 28//46 35//46 29//46
f 21//47 28//47 22//47
f 19//48 26//48 25//48
f 24//49 26//49 20//49
f 23//50 28//50 29//50
f 19//51 27//51 21//51
f 31//52 34//52 33//52
f 25//53 33//53 27//53
f 29//54 36//54 30//54
f 28//55 33//55 37//55
f 26//56 31//56 25//56
f 26//57 36//57 38//57
f 34//58 36//58 35//58
f 37//59 33//59 34//59
f 35//60 37//60 34//60
f 38//61 36//61 32//61
f 31//62 38//62 32//62
f 5//63 44//63 43//63
f 4//63 41//63 3//63
f 2//63 39//63 40//63
f 6//63 40//63 44//63
f 5//63 42//63 4//63
f 3//63 39//63 1//63
f 70//64 80//64 74//64
f 86//63 79//63 80//63
f 73//65 78//65 72//65
f 77//66 69//66 71//66
f 74//67 79//67 73//67
f 78//68 71//68 72//68
f 75//69 70//69 69//69
f 82//70 92//70 86//70
f 84//63 77//63 78//63
f 75//63 82//63 76//63
f 82//63 80//63 76//63
f 79//63 84//63 78//63
f 83//63 75//63 77//63
f 98//71 91//71 92//71
f 91//72 84//72 85//72
f 83//73 87//73 81//73
f 92//74 85//74 86//74
f 84//75 89//75 83//75
f 87//76 82//76 81//76
f 103//77 96//77 97//77
f 96//47 89//47 90//47
f 87//78 94//78 88//78
f 94//49 92//49 88//49
f 91//79 96//79 90//79
f 95//80 87//80 89//80
f 99//81 102//81 100//81
f 101//82 93//82 95//82
f 104//83 97//83 98//83
f 96//84 101//84 95//84
f 99//85 94//85 93//85
f 94//86 104//86 98//86
f 102//87 104//87 100//87
f 105//88 102//88 101//88
f 103//89 102//89 105//89
f 106//90 100//90 104//90
f 99//91 100//91 106//91
f 73//33 112//33 74//33
f 109//33 72//33 71//33
f 70//33 107//33 69//33
f 74//33 108//33 70//33
f 110//33 73//33 72//33
f 107//33 71//33 69//33
f 2//126 6//126 12//126
f 11//33 17//33 18//33
f 5//34 4//34 10//34
f 1//35 7//35 9//35
f 6//36 5//36 11//36
f 3//37 9//37 10//37
f 2//127 8//127 7//127
f 14//128 18//128 24//128
f 9//33 15//33 16//33
f 7//33 8//33 14//33
f 12//33 18//33 14//33
f 11//33 10//33 16//33
f 7//33 13//33 15//33
f 23//40 29//40 30//40
f 16//129 22//129 23//129
f 15//42 13//42 19//42
f 17//43 23//43 24//43
f 16//130 15//130 21//130
f 14//131 20//131 19//131
f 28//132 37//132 35//132
f 21//133 27//133 28//133
f 19//78 20//78 26//78
f 24//134 30//134 26//134
f 23//79 22//79 28//79
f 19//51 25//51 27//51
f 31//52 32//52 34//52
f 25//53 31//53 33//53
f 29//54 35//54 36//54
f 28//135 27//135 33//135
f 26//136 38//136 31//136
f 26//137 30//137 36//137
f 34//58 32//58 36//58
f 5//63 6//63 44//63
f 4//63 42//63 41//63
f 2//63 1//63 39//63
f 6//63 2//63 40//63
f 5//63 43//63 42//63
f 3//63 41//63 39//63
f 70//138 76//138 80//138
f 86//63 85//63 79//63
f 73//65 79//65 78//65
f 77//66 75//66 69//66
f 74//67 80//67 79//67
f 78//68 77//68 71//68
f 75//139 76//139 70//139
f 82//140 88//140 92//140
f 84//63 83//63 77//63
f 75//63 81//63 82//63
f 82//63 86//63 80//63
f 79//63 85//63 84//63
f 83//63 81//63 75//63
f 98//71 97//71 91//71
f 91//141 90//141 84//141
f 83//73 89//73 87//73
f 92//74 91//74 85//74
f 84//142 90//142 89//142
f 87//143 88//143 82//143
f 103//144 105//144 96//144
f 96//145 95//145 89//145
f 87//146 93//146 94//146
f 94//147 98//147 92//147
f 91//148 97//148 96//148
f 95//80 93//80 87//80
f 99//81 101//81 102//81
f 101//82 99//82 93//82
f 104//83 103//83 97//83
f 96//149 105//149 101//149
f 99//150 106//150 94//150
f 94//151 106//151 104//151
f 102//87 103//87 104//87
f 73//33 111//33 112//33
f 109//33 110//33 72//33
f 70//33 108//33 107//33
f 74//33 112//33 108//33
f 110//33 111//33 73//33
f 107//33 109//33 71//33
usemtl Main.004
f 54//92 61//92 57//92
f 49//93 63//93 48//93
f 56//94 67//94 61//94
f 45//95 62//95 49//95
f 52//96 59//96 67//96
f 55//97 68//97 59//97
f 67//6 62//6 61//6
f 68//5 60//5 59//5
f 66//4 64//4 68//4
f 61//3 58//3 57//3
f 59//2 63//2 67//2
f 57//1 65//1 66//1
f 48//98 60//98 47//98
f 47//99 64//99 50//99
f 51//100 68//100 53//100
f 46//101 58//101 45//101
f 51//102 57//102 66//102
f 46//103 64//103 65//103
f 122//95 129//95 124//95
f 131//104 117//104 116//104
f 124//105 135//105 120//105
f 130//92 113//92 117//92
f 120//98 127//98 123//98
f 123//99 136//99 121//99
f 130//6 135//6 129//6
f 128//5 136//5 127//5
f 132//4 134//4 136//4
f 126//3 129//3 125//3
f 131//2 127//2 135//2
f 133//1 125//1 134//1
f 128//96 116//96 115//96
f 132//97 115//97 118//97
f 136//103 119//103 121//103
f 126//102 114//102 113//102
f 134//101 122//101 119//101
f 114//100 132//100 118//100
f 148//106 160//106 161//106
f 145//106 161//106 159//106
f 148//106 149//106 146//106
f 183//106 150//106 148//106
f 163//14 156//14 164//14
f 164//14 151//14 162//14
f 156//14 155//14 157//14
f 156//14 185//14 184//14
f 154//2 147//2 144//2
f 158//107 148//107 150//107
f 184//108 186//108 183//108
f 153//2 143//2 147//2
f 181//109 144//109 179//109
f 162//63 145//63 159//63
f 156//110 149//110 148//110
f 157//33 146//33 149//33
f 166//63 159//63 165//63
f 155//111 160//111 146//111
f 166//14 164//14 162//14
f 170//14 163//14 164//14
f 165//106 161//106 168//106
f 168//106 160//106 167//106
f 168//106 173//106 174//106
f 171//106 168//106 174//106
f 175//14 170//14 176//14
f 172//14 170//14 166//14
f 172//112 165//112 171//112
f 163//113 167//113 160//113
f 178//114 171//114 177//114
f 178//14 176//14 172//14
f 182//14 175//14 176//14
f 177//106 174//106 180//106
f 180//106 173//106 179//106
f 169//115 173//115 167//115
f 180//106 144//106 147//106
f 143//106 180//106 147//106
f 154//14 182//14 153//14
f 152//14 182//14 178//14
f 152//63 177//63 143//63
f 175//116 179//116 173//116
f 151//63 188//63 145//63
f 185//63 150//63 186//63
f 187//117 183//117 188//117
f 54//92 56//92 61//92
f 49//105 62//105 63//105
f 56//94 52//94 67//94
f 45//95 58//95 62//95
f 52//96 55//96 59//96
f 55//97 53//97 68//97
f 67//6 63//6 62//6
f 68//5 64//5 60//5
f 66//4 65//4 64//4
f 61//3 62//3 58//3
f 59//2 60//2 63//2
f 57//1 58//1 65//1
f 48//98 63//98 60//98
f 47//99 60//99 64//99
f 51//100 66//100 68//100
f 46//101 65//101 58//101
f 51//102 54//102 57//102
f 46//103 50//103 64//103
f 122//95 125//95 129//95
f 131//94 130//94 117//94
f 124//105 129//105 135//105
f 130//92 126//92 113//92
f 120//98 135//98 127//98
f 123//99 127//99 136//99
f 130//6 131//6 135//6
f 128//5 132//5 136//5
f 132//4 133//4 134//4
f 126//3 130//3 129//3
f 131//2 128//2 127//2
f 133//1 126//1 125//1
f 128//96 131//96 116//96
f 132//97 128//97 115//97
f 136//103 134//103 119//103
f 126//102 133//102 114//102
f 134//101 125//101 122//101
f 114//100 133//100 132//100
f 148//106 146//106 160//106
f 145//106 148//106 161//106
f 148//106 145//106 188//106
f 183//106 186//106 150//106
f 148//106 188//106 183//106
f 163//14 155//14 156//14
f 164//14 156//14 151//14
f 187//14 151//14 156//14
f 156//14 158//14 185//14
f 184//14 187//14 156//14
f 154//2 153//2 147//2
f 158//107 156//107 148//107
f 184//152 185//152 186//152
f 153//2 152//2 143//2
f 181//109 154//109 144//109
f 162//63 151//63 145//63
f 156//110 157//110 149//110
f 157//33 155//33 146//33
f 166//63 162//63 159//63
f 155//111 163//111 160//111
f 166//14 170//14 164//14
f 170//14 169//14 163//14
f 165//106 159//106 161//106
f 168//106 161//106 160//106
f 168//106 167//106 173//106
f 171//106 165//106 168//106
f 175//14 169//14 170//14
f 172//14 176//14 170//14
f 172//112 166//112 165//112
f 163//113 169//113 167//113
f 178//114 172//114 171//114
f 178//14 182//14 176//14
f 182//14 181//14 175//14
f 177//106 171//106 174//106
f 180//106 174//106 173//106
f 169//115 175//115 173//115
f 180//106 179//106 144//106
f 143//106 177//106 180//106
f 154//14 181//14 182//14
f 152//14 153//14 182//14
f 152//63 178//63 177//63
f 175//116 181//116 179//116
f 151//63 187//63 188//63
f 185//63 158//63 150//63
f 187//153 184//153 183//153
