# Blender 4.1.0
# www.blender.org
mtllib Guard__ncl1_29.mtl
o Guard__ncl1_29.003
v 0.451022 1.134429 0.174322
v 0.426450 1.108913 0.041247
v 0.465996 1.123545 0.131878
v 0.454231 1.308870 -0.073222
v 0.526626 1.380015 0.049327
v 0.486973 1.384543 0.106793
v 0.452368 1.112221 0.085437
v 0.510202 1.349616 -0.019912
v 0.438038 1.312302 -0.072670
v 0.410257 1.112345 0.041799
v 0.449803 1.126977 0.132430
v 0.507543 1.384156 0.039531
v 0.434829 1.137860 0.174874
v 0.436175 1.115653 0.085989
v 0.491120 1.353758 -0.029708
v 0.470780 1.387975 0.107345
v 0.443987 1.235136 -0.031011
v 0.497587 1.286183 0.073594
v 0.481394 1.289614 0.074146
v 0.427793 1.238567 -0.030460
v 0.482195 1.262818 0.012762
v 0.473716 1.292313 0.131695
v 0.466001 1.266249 0.013314
v 0.457523 1.295745 0.132246
vn 0.9708 -0.1860 0.1517
vn 0.8969 -0.3144 -0.3110
vn 0.8834 -0.3535 -0.3077
vn -0.1982 -0.9640 0.1772
vn -0.1944 -0.9540 0.2282
vn -0.1938 -0.9523 0.2359
vn -0.9844 0.1514 -0.0901
vn -0.9245 0.0365 -0.3794
vn -0.9741 0.1727 -0.1459
vn -0.8094 0.3766 0.4507
vn -0.8852 0.3516 0.3047
vn -0.8027 0.3764 0.4626
vn -0.8969 0.3144 0.3110
vn 0.8094 -0.3766 -0.4507
vn 0.8027 -0.3764 -0.4626
vn 0.9245 -0.0365 0.3794
vn 0.9844 -0.1514 0.0901
vn -0.1928 -0.9495 0.2477
vn 0.3238 0.9149 -0.2409
vn 0.2057 0.9769 0.0573
vn 0.2888 0.9432 -0.1639
vn -0.1310 -0.4788 -0.8681
vn -0.1311 -0.4788 -0.8681
vn -0.1945 -0.9542 0.2272
vn -0.1975 -0.9621 0.1879
vn 0.0854 0.2482 0.9649
vn 0.0855 0.2482 0.9649
vn 0.4375 0.7097 -0.5521
vn 0.1477 0.6232 -0.7680
vn 0.4567 0.5328 -0.7124
vn 0.8579 -0.0788 0.5078
vn 0.9420 -0.2278 0.2463
vn 0.7813 -0.4078 -0.4725
vn -0.8843 0.3794 0.2721
vn -0.9638 0.2037 -0.1719
vn -0.7687 0.4252 0.4778
vn -0.8936 0.0540 -0.4457
vn 0.8907 -0.3754 -0.2566
vn -0.1982 -0.9640 0.1773
vn -0.9387 0.0426 -0.3421
vn 0.9387 -0.0426 0.3421
vn 0.2089 0.9762 0.0583
vn -0.1311 -0.4787 -0.8681
vn 0.1106 0.6434 -0.7575
vt 0.214204 0.917878
vt 0.223638 0.862946
vt 0.234649 0.914195
vt 0.019684 0.849374
vt 0.019646 0.836247
vt 0.024749 0.836022
vt 0.504332 0.390529
vt 0.518050 0.440639
vt 0.498919 0.444538
vt 0.473294 0.390066
vt 0.478467 0.441112
vt 0.460237 0.433162
vt 0.489074 0.389766
vt 0.239400 0.863105
vt 0.252794 0.906026
vt 0.195043 0.913929
vt 0.208420 0.863814
vt 0.021182 0.821113
vt 0.018368 0.691083
vt 0.015051 0.669645
vt 0.024749 0.688921
vt 0.004299 0.762539
vt 0.007056 0.736027
vt 0.009402 0.762314
vt 0.016079 0.821338
vt 0.013418 0.807315
vt 0.019112 0.900290
vt 0.014581 0.849599
vt 0.019750 0.712256
vt 0.013369 0.714418
vt 0.018777 0.930033
vt 0.014009 0.900514
vt 0.008316 0.807540
vt 0.194157 0.943272
vt 0.214690 0.949156
vt 0.261345 0.930935
vt 0.472563 0.471658
vt 0.495801 0.476503
vt 0.451991 0.458182
vt 0.518593 0.470141
vt 0.237815 0.943963
vt 0.518593 0.389850
vt 0.194157 0.863213
vt 0.010018 0.668776
vt 0.001953 0.736251
vt 0.013675 0.930257
s 1
usemtl Rogue_Texture
f 18/1/1 7/2/2 21/3/3
f 1/4/4 11/5/5 3/6/6
f 11/7/7 24/8/8 19/9/9
f 10/10/10 23/11/11 20/12/12
f 14/13/13 19/9/9 23/11/11
f 21/3/3 2/14/14 17/15/15
f 22/16/16 3/17/17 18/1/1
f 11/5/5 7/18/18 3/6/6
f 12/19/19 6/20/20 5/21/21
f 20/22/22 4/23/23 17/24/22
f 14/25/24 2/26/25 7/18/18
f 22/27/26 13/28/27 1/4/27
f 8/29/28 12/19/19 5/21/21
f 4/23/29 15/30/30 8/29/28
f 6/31/27 24/32/27 22/27/26
f 10/33/23 17/24/22 2/26/23
f 6/34/31 18/1/1 5/35/32
f 4/36/33 21/3/3 17/15/15
f 15/37/34 19/9/9 12/38/35
f 9/39/36 23/11/11 15/37/34
f 19/9/9 16/40/37 12/38/35
f 8/41/38 18/1/1 21/3/3
f 18/1/1 3/17/17 7/2/2
f 1/4/4 13/28/39 11/5/5
f 11/7/7 13/42/40 24/8/8
f 10/10/10 14/13/13 23/11/11
f 14/13/13 11/7/7 19/9/9
f 21/3/3 7/2/2 2/14/14
f 22/16/16 1/43/41 3/17/17
f 11/5/5 14/25/24 7/18/18
f 12/19/19 16/44/42 6/20/20
f 20/22/22 9/45/43 4/23/23
f 14/25/24 10/33/25 2/26/25
f 22/27/26 24/32/27 13/28/27
f 8/29/28 15/30/30 12/19/19
f 4/23/29 9/45/44 15/30/30
f 6/31/27 16/46/27 24/32/27
f 10/33/23 20/22/22 17/24/22
f 6/34/31 22/16/16 18/1/1
f 4/36/33 8/41/38 21/3/3
f 15/37/34 23/11/11 19/9/9
f 9/39/36 20/12/12 23/11/11
f 19/9/9 24/8/8 16/40/37
f 8/41/38 5/35/32 18/1/1
