# Blender 4.1.0
# www.blender.org
mtllib Pouch_Cube.mtl
o Pouch_Cube.001
v 0.305834 1.207411 0.071896
v 0.264708 1.331785 0.079800
v 0.215321 1.170205 0.071105
v 0.167761 1.316744 0.086145
v 0.334629 1.238624 -0.141159
v 0.292086 1.361462 -0.122770
v 0.248507 1.206177 -0.174444
v 0.200947 1.352718 -0.159404
v 0.279701 1.176247 0.100179
v 0.226967 1.341885 0.110768
v 0.317954 1.217712 -0.182857
v 0.263337 1.381309 -0.158338
v 0.277605 1.339083 0.101004
v 0.163974 1.318772 0.086559
v 0.309944 1.374137 -0.138276
v 0.197324 1.354923 -0.160200
v 0.327958 1.327877 -0.148830
v 0.172961 1.279737 0.088461
v 0.223751 1.348246 0.118540
v 0.262193 1.389915 -0.165890
v 0.294004 1.291072 0.102399
v 0.152218 1.329613 0.040481
v 0.173989 1.353212 -0.120604
v 0.313636 1.385818 -0.098844
v 0.290974 1.361252 0.068838
v 0.250213 1.399032 -0.114836
v 0.225118 1.371830 0.070842
v 0.207976 1.317693 -0.170620
v 0.240283 1.294286 0.120253
v 0.280644 1.338036 -0.178380
v 0.166036 1.276897 0.038807
v 0.188894 1.301675 -0.130322
v 0.345216 1.301232 -0.111321
v 0.321422 1.275440 0.064734
v 0.339727 1.268592 -0.025320
v 0.177465 1.289286 -0.045757
v 0.237666 1.385431 -0.021997
v 0.302305 1.373535 -0.015003
v 0.163104 1.341413 -0.040062
v 0.347474 1.240953 -0.010472
v 0.324917 1.312157 -0.003089
v 0.352152 1.246024 -0.045088
v 0.329595 1.317228 -0.037706
v 0.351380 1.220685 -0.048905
v 0.346702 1.215614 -0.014289
v 0.328635 1.189620 -0.021564
v 0.333314 1.194691 -0.056180
v 0.333997 1.309269 -0.150740
v 0.177595 1.265461 0.086996
v 0.300043 1.272464 0.100489
v 0.212610 1.303416 -0.172085
v 0.246322 1.275678 0.118343
v 0.286683 1.319428 -0.180290
v 0.170670 1.262620 0.037342
v 0.193528 1.287398 -0.131787
v 0.351255 1.282624 -0.113231
v 0.327461 1.256832 0.062824
v 0.345766 1.249984 -0.027230
v 0.182099 1.275009 -0.047223
v 0.331625 1.286681 0.010356
v 0.340534 1.296338 -0.055559
v 0.357357 1.248445 -0.060301
v 0.348449 1.238788 0.005614
v 0.341631 1.288362 -0.047082
v 0.335191 1.281382 0.000565
v 0.353791 1.253743 -0.050510
v 0.347352 1.246763 -0.002864
v 0.334781 1.294381 -0.056623
v 0.325872 1.284725 0.009292
v 0.348964 1.245689 -0.061840
v 0.340055 1.236033 0.004076
v 0.335512 1.286295 -0.048211
v 0.329072 1.279315 -0.000565
v 0.345764 1.251099 -0.051982
v 0.339324 1.244119 -0.004336
v 0.356513 1.251228 -0.020785
v 0.339746 1.269126 -0.020429
v 0.357801 1.252625 -0.030318
v 0.341034 1.270523 -0.029962
v 0.335300 1.264540 -0.021702
v 0.356749 1.243787 -0.021843
v 0.336588 1.265936 -0.031235
v 0.358038 1.245184 -0.031376
v 0.175630 1.337042 0.126499
v 0.232351 1.330695 -0.185008
v 0.215990 1.380791 -0.172129
v 0.189976 1.284761 0.128531
v 0.177100 1.361696 0.076409
v 0.203447 1.390255 -0.118537
v 0.190273 1.375975 -0.021064
v 0.238352 1.312207 -0.186906
v 0.195976 1.266274 0.126633
v 0.182650 1.331374 0.118475
v 0.275962 1.200333 -0.189657
v 0.235811 1.156810 0.107425
v 0.220825 1.372755 -0.163985
v 0.238512 1.166721 -0.108281
v 0.224302 1.151384 -0.003118
v 0.167882 1.326684 0.013262
v 0.182254 1.342126 -0.092075
v 0.344526 1.214746 -0.085751
v 0.331111 1.199407 0.016472
v 0.284848 1.343646 0.027927
v 0.297362 1.357608 -0.068537
v 0.301486 1.156066 0.011990
v 0.316507 1.172955 -0.100164
v 0.208760 1.359676 -0.074717
v 0.195091 1.344859 0.026426
v 0.259033 1.135886 0.012480
v 0.274169 1.152905 -0.100536
v 0.301357 1.167066 -0.026890
v 0.306036 1.172137 -0.061506
vn 0.1326 0.1437 -0.9807
vn 0.3339 -0.9381 -0.0923
vn -0.1325 -0.1437 0.9807
vn -0.3359 0.9374 0.0919
vn -0.3269 0.9404 0.0936
vn -0.1324 -0.1436 0.9807
vn 0.3259 -0.9407 -0.0938
vn 0.1325 0.1437 -0.9807
vn 0.7177 0.6685 0.1949
vn -0.6826 -0.7042 -0.1955
vn -0.7186 0.6954 0.0048
vn 0.9907 0.0123 0.1356
vn -0.1326 -0.1437 0.9807
vn 0.1678 -0.0113 0.9858
vn -0.8165 -0.3089 0.4878
vn -0.9338 -0.3063 0.1848
vn -0.8752 -0.2910 0.3864
vn -0.6767 0.7362 0.0019
vn -0.5776 0.8161 0.0205
vn -0.7090 0.7051 0.0075
vn 0.8009 0.3478 -0.4874
vn 0.8883 0.3476 -0.3003
vn 0.8949 0.3457 -0.2822
vn 0.9188 0.2786 0.2795
vn 0.7789 0.2143 0.5894
vn 0.9255 0.2762 0.2592
vn 0.8584 -0.4973 -0.1258
vn 0.8910 -0.3905 -0.2317
vn 0.8444 -0.5131 -0.1539
vn 0.8153 -0.5428 0.2017
vn 0.8143 -0.4686 0.3426
vn 0.8479 -0.4314 0.3082
vn -0.3710 -0.8097 -0.4548
vn -0.3013 -0.8978 -0.3212
vn -0.2622 -0.8882 -0.3772
vn 0.3999 -0.8099 -0.4290
vn 0.4152 -0.8660 -0.2787
vn 0.4177 -0.8778 -0.2345
vn 0.4291 -0.8936 0.1314
vn 0.4233 -0.8568 0.2946
vn 0.4272 -0.8554 0.2930
vn -0.1602 0.0961 -0.9824
vn 0.0934 0.1761 -0.9799
vn 0.0861 0.1757 -0.9807
vn 0.7658 0.2105 0.6076
vn 0.6358 0.1602 0.7550
vn 0.0288 0.9990 -0.0346
vn 0.3049 0.9290 -0.2097
vn 0.0845 0.9842 -0.1559
vn 0.5504 0.3795 -0.7437
vn 0.3376 0.2733 -0.9007
vn 0.5538 0.3758 -0.7430
vn -0.1620 0.9383 0.3055
vn 0.0427 0.8954 0.4433
vn 0.0087 0.9524 0.3048
vn 0.2043 0.8199 0.5348
vn 0.1585 0.9177 0.3644
vn -0.0157 0.9896 0.1429
vn 0.2127 0.9764 -0.0367
vn -0.1816 0.9827 -0.0362
vn -0.1921 0.9744 0.1168
vn -0.1631 0.9641 -0.2095
vn -0.7258 -0.0435 -0.6865
vn -0.9139 -0.2276 -0.3361
vn -0.9239 -0.2065 -0.3220
vn -0.9491 -0.2669 -0.1674
vn -0.9553 -0.2452 -0.1650
vn 0.8948 0.3089 0.3224
vn 0.8242 0.2559 0.5051
vn 0.8974 0.2739 0.3458
vn -0.9343 -0.2257 0.2760
vn -0.8795 -0.2648 0.3953
vn -0.8999 -0.2326 0.3690
vn 0.9354 0.3530 0.0220
vn 0.9169 0.3563 -0.1801
vn 0.8965 0.3949 -0.2009
vn 0.3232 0.1333 0.9369
vn 0.2406 0.0470 0.9695
vn 0.3179 0.0554 0.9465
vn 0.9319 0.3189 0.1727
vn 0.9385 0.3001 0.1708
vn -0.9607 -0.2777 -0.0017
vn -0.9223 -0.2626 0.2836
vn 0.0833 0.2679 -0.9598
vn 0.0983 0.2088 -0.9730
vn 0.0760 0.2715 -0.9594
vn 0.9454 0.3259 -0.0088
vn -0.9673 -0.2532 -0.0105
vn 0.9816 0.1179 0.1499
vn 0.9445 0.2817 0.1689
vn 0.9907 -0.0493 0.1267
vn 0.7349 -0.6782 -0.0000
vn 0.8174 -0.5755 0.0262
vn -0.9424 -0.2885 -0.1696
vn -0.8435 -0.2237 -0.4883
vn -0.9080 -0.2611 -0.3277
vn -0.8571 -0.3197 0.4040
vn -0.9056 -0.3223 0.2756
vn 0.8299 0.2165 0.5142
vn 0.9168 0.2671 0.2968
vn 0.1141 0.1380 -0.9838
vn 0.9261 0.3209 -0.1982
vn -0.9515 -0.3072 -0.0163
vn 0.2552 -0.0164 0.9667
vn 0.3156 0.0050 0.9489
vn 0.9424 0.2884 0.1696
vn 0.9516 0.3048 0.0395
vn 0.5507 0.3078 -0.7759
vn 0.3785 0.2152 -0.9002
vn 0.9346 0.3113 0.1719
vn -0.9513 -0.2593 -0.1666
vn -0.9513 -0.2593 -0.1665
vn -0.9513 -0.2592 -0.1666
vn -0.7084 -0.0847 -0.7007
vn -0.4808 -0.0663 -0.8743
vn 0.1706 -0.0457 0.9843
vn -0.8314 0.5491 0.0854
vn -0.7822 0.6228 -0.0145
vn -0.5183 -0.0007 -0.8552
vn 0.2215 0.0994 0.9701
vn 0.1580 0.0201 0.9872
vn -0.7851 0.5245 -0.3294
vn -0.7843 0.5902 -0.1911
vn -0.8352 0.4739 -0.2792
vn -0.7654 0.6186 -0.1773
vn -0.9184 0.3318 0.2156
vn -0.8848 0.4438 0.1419
vn -0.4720 -0.0231 -0.8813
vn -0.0691 0.1081 -0.9917
vn -0.9318 -0.2774 -0.2340
vn -0.9168 -0.2667 -0.2973
vn -0.9335 -0.2789 -0.2252
vn 0.9483 0.3128 0.0546
vn 0.9497 0.3034 0.0780
vn -0.6869 0.7262 0.0275
vn -0.5959 0.8002 0.0677
vn -0.5776 0.8133 0.0705
vn -0.9492 -0.2959 -0.1072
vn -0.9489 -0.2949 -0.1124
vn 0.7965 -0.5658 0.2133
vn 0.4283 -0.8988 0.0929
vn -0.5551 0.8317 0.0067
vn -0.3926 -0.9190 -0.0358
vn -0.5618 -0.8248 0.0639
vn -0.4331 -0.9014 -0.0045
vn -0.5885 -0.8078 0.0341
vn 0.6400 -0.7679 -0.0260
vn 0.7357 -0.6773 0.0002
vn -0.3358 0.9375 0.0919
vn 0.3261 -0.9407 -0.0937
vn -0.6826 -0.7042 -0.1954
vn -0.7187 0.6953 0.0047
vn 0.9907 0.0121 0.1357
vn -0.1325 -0.1436 0.9807
vn 0.1731 -0.0078 0.9849
vn -0.9079 -0.3222 0.2683
vn 0.8149 0.3422 -0.4678
vn 0.9129 -0.3654 -0.1818
vn -0.4114 -0.8012 -0.4346
vn 0.4038 -0.8075 -0.4300
vn 0.6514 0.1600 0.7417
vn -0.1355 0.8905 0.4343
vn 0.1613 0.9731 0.1644
vn 0.7977 0.2879 0.5299
vn 0.5511 0.2602 -0.7929
vn -0.5650 0.0275 -0.8246
vn 0.1450 0.0781 0.9864
vn -0.9394 0.3177 0.1288
vn -0.2439 0.0203 -0.9696
vn -0.9169 -0.2671 -0.2966
vn -0.7091 0.7051 0.0075
vt 0.382156 0.067071
vt 0.380488 0.053047
vt 0.383058 0.052979
vt 0.380147 0.037080
vt 0.382697 0.036886
vt 0.388081 0.054004
vt 0.385557 0.069812
vt 0.385754 0.053951
vt 0.387815 0.036146
vt 0.385391 0.036166
vt 0.379008 0.023282
vt 0.382224 0.005653
vt 0.382353 0.022979
vt 0.388935 0.001968
vt 0.385162 0.024205
vt 0.385131 0.001953
vt 0.010414 0.007688
vt 0.002009 0.004195
vt 0.010469 0.004335
vt 0.012432 0.012800
vt 0.002029 0.009794
vt 0.012320 0.009449
vt 0.154528 0.459763
vt 0.152302 0.457689
vt 0.154028 0.459273
vt 0.001953 0.007548
vt 0.070895 0.001953
vt 0.073489 0.005307
vt 0.070895 0.005307
vt 0.002158 0.001953
vt 0.410038 0.861179
vt 0.353439 0.835207
vt 0.418618 0.846833
vt 0.226202 0.987933
vt 0.285501 0.974915
vt 0.292226 0.988714
vt 0.232339 0.889174
vt 0.218006 0.915735
vt 0.225443 0.881400
vt 0.410193 0.956742
vt 0.355776 0.950345
vt 0.400675 0.944192
vt 0.353035 0.891062
vt 0.400643 0.874441
vt 0.404705 0.892955
vt 0.423144 0.929060
vt 0.405295 0.925612
vt 0.422984 0.889575
vt 0.284282 0.888741
vt 0.307572 0.912950
vt 0.293858 0.913490
vt 0.420959 0.967754
vt 0.438637 0.928994
vt 0.438818 0.883436
vt 0.351258 0.968522
vt 0.356187 0.868964
vt 0.025711 0.417437
vt 0.049127 0.421768
vt 0.034496 0.432959
vt 0.051704 0.441831
vt 0.001953 0.345575
vt 0.021781 0.335053
vt 0.017125 0.352693
vt 0.038700 0.343221
vt 0.038930 0.355971
vt 0.018950 0.385768
vt 0.046561 0.409493
vt 0.009714 0.422311
vt 0.001953 0.384435
vt 0.022147 0.441603
vt 0.818099 0.270153
vt 0.835627 0.282209
vt 0.817421 0.285325
vt 0.836917 0.312547
vt 0.817876 0.312833
vt 0.053078 0.334891
vt 0.067360 0.345884
vt 0.819188 0.356832
vt 0.829354 0.374899
vt 0.810755 0.369977
vt 0.065985 0.425440
vt 0.036511 0.323170
vt 0.042587 0.382422
vt 0.081776 0.376610
vt 0.836941 0.342774
vt 0.832897 0.360094
vt 0.039355 0.455029
vt 0.077362 0.410403
vt 0.818635 0.340748
vt 0.409818 0.027892
vt 0.397737 0.001953
vt 0.409915 0.001998
vt 0.409786 0.036737
vt 0.397641 0.027847
vt 0.409397 0.047936
vt 0.397608 0.036692
vt 0.842136 0.312385
vt 0.836268 0.265182
vt 0.840799 0.281671
vt 0.836116 0.375819
vt 0.838103 0.360659
vt 0.059194 0.332141
vt 0.073808 0.343857
vt 0.045691 0.458484
vt 0.072864 0.426301
vt 0.842136 0.342975
vt 0.042235 0.319485
vt 0.088576 0.375415
vt 0.084220 0.410090
vt 0.058145 0.444300
vt 0.390769 0.052898
vt 0.389313 0.069770
vt 0.390595 0.036962
vt 0.391738 0.005860
vt 0.388510 0.024397
vt 0.391319 0.023305
vt 0.831183 0.266131
vt 0.833984 0.254612
vt 0.028636 0.307003
vt 0.801678 0.316639
vt 0.827353 0.256136
vt 0.023041 0.311127
vt 0.801950 0.281285
vt 0.809092 0.262394
vt 0.803405 0.351411
vt 0.290437 0.879103
vt 0.229965 0.913318
vt 0.352593 0.929220
vt 0.231904 0.975352
vt 0.217971 0.953662
vt 0.230078 0.950356
vt 0.294745 0.949946
vt 0.307572 0.955514
vt 0.397737 0.060229
vt 0.397220 0.047891
vt 0.378835 0.066934
vt 0.378835 0.005859
vt 0.002141 0.013146
vt 0.152802 0.458179
vt 0.073489 0.001953
vt 0.012432 0.002638
vt 0.351258 0.851315
vt 0.354110 0.984544
vt 0.007901 0.324730
vt 0.392575 0.066774
vt 0.409915 0.060274
s 0
usemtl Ranger_Texture
f 67/1/1 73/2/1 65/3/1
f 65/3/2 72/4/2 64/5/2
f 69/6/3 63/7/3 60/8/3
f 68/9/4 60/8/4 61/10/4
f 74/11/5 67/12/5 66/13/5
f 72/4/6 66/13/6 64/5/6
f 71/14/7 62/15/7 63/16/7
f 62/15/8 68/9/8 61/10/8
f 78/17/9 77/18/9 76/19/9
f 81/20/10 82/21/10 83/22/10
f 79/23/11 80/24/11 77/25/11
f 78/17/1 82/21/1 79/26/1
f 76/27/12 83/28/12 78/29/12
f 80/30/13 76/19/13 77/18/13
f 9/31/14 93/32/14 95/33/14
s 1
f 93/34/15 3/35/16 95/36/17
f 8/37/18 107/38/19 96/39/20
f 11/40/21 6/41/22 5/42/23
f 103/43/24 1/44/25 102/45/26
f 106/46/27 5/42/28 101/47/29
f 105/48/30 1/44/31 9/31/32
f 7/49/33 110/50/34 97/51/35
f 94/52/36 106/46/37 110/53/38
f 109/54/39 9/31/40 95/33/41
f 94/52/42 12/55/43 11/40/44
f 2/56/45 9/31/46 1/44/25
f 26/57/47 15/58/48 20/59/49
f 15/58/50 30/60/51 20/59/52
f 88/61/53 19/62/54 27/63/55
f 27/63/55 13/64/56 25/65/57
f 37/66/58 24/67/59 26/57/47
f 37/66/58 89/68/60 90/69/61
f 86/70/62 26/57/47 20/59/49
f 16/71/63 32/72/64 23/73/65
f 23/73/65 36/74/66 39/75/67
f 25/65/68 21/76/69 34/77/70
f 14/78/71 87/79/72 84/80/73
f 24/67/74 17/81/75 15/58/76
f 13/64/77 29/82/78 21/76/79
f 38/83/80 34/77/70 35/84/81
f 14/78/71 31/85/82 18/86/83
f 20/59/84 85/87/85 86/70/86
f 38/83/80 33/88/87 24/67/74
f 22/89/88 36/74/66 31/85/82
f 27/63/55 90/69/61 88/61/53
f 25/65/57 37/66/58 27/63/55
f 40/90/89 43/91/90 41/92/90
f 45/93/91 42/94/89 40/90/89
f 46/95/92 44/96/93 45/93/93
f 32/72/64 59/97/94 36/74/66
f 32/72/64 51/98/95 55/99/96
f 18/86/83 92/100/97 87/79/72
f 31/85/82 49/101/98 18/86/83
f 34/77/70 50/102/99 57/103/100
f 30/60/51 91/104/101 85/87/85
f 33/88/87 48/105/102 17/81/75
f 36/74/66 54/106/103 31/85/82
f 21/76/79 52/107/104 50/102/105
f 35/84/81 57/103/100 58/108/106
f 35/84/81 56/109/107 33/88/87
f 17/81/108 53/110/109 30/60/51
f 63/7/110 65/3/110 60/8/110
f 61/10/110 65/3/110 64/5/110
f 62/15/110 67/12/110 63/16/110
f 62/15/110 64/5/110 66/13/110
f 73/111/111 71/112/111 69/6/111
f 72/113/111 69/6/111 68/9/112
f 75/114/111 70/115/113 71/14/111
f 74/116/113 68/9/112 70/115/113
f 28/117/114 91/118/115 51/98/115
f 29/82/78 92/119/116 52/107/104
f 22/89/117 90/120/118 39/75/118
f 16/71/63 85/121/119 28/117/114
f 19/62/120 87/122/121 29/82/78
f 16/71/122 89/123/123 86/124/124
f 39/75/118 89/123/123 23/73/125
f 14/78/126 88/125/127 22/89/117
f 7/49/128 96/39/129 94/126/42
f 100/127/130 7/49/131 97/51/132
f 5/42/23 104/128/133 101/47/134
f 4/129/135 108/130/136 99/131/137
f 3/35/16 99/131/138 98/132/139
f 106/46/27 102/45/140 105/48/30
f 103/43/24 101/47/134 104/128/133
f 97/51/132 99/131/138 100/127/130
f 110/53/38 105/48/141 109/54/39
f 99/131/137 107/38/19 100/127/142
f 110/50/34 98/132/143 97/51/35
f 3/35/144 109/133/145 95/36/146
f 46/95/92 112/134/147 47/135/148
s 0
f 67/1/8 75/136/8 73/2/8
f 65/3/2 73/2/2 72/4/2
f 69/6/3 71/112/3 63/7/3
f 68/9/149 69/6/149 60/8/149
f 74/11/5 75/137/5 67/12/5
f 72/4/3 74/11/3 66/13/3
f 71/14/150 70/115/150 62/15/150
f 62/15/1 70/115/1 68/9/1
f 78/17/9 79/26/9 77/18/9
f 81/20/151 80/138/151 82/21/151
f 79/23/152 82/139/152 80/24/152
f 78/17/8 83/22/8 82/21/8
f 76/27/153 81/140/153 83/28/153
f 80/30/154 81/141/154 76/19/154
f 9/31/155 10/142/155 93/32/155
s 1
f 93/34/15 4/129/156 3/35/16
f 8/37/18 100/127/142 107/38/19
f 11/40/21 12/55/157 6/41/22
f 103/43/24 2/56/45 1/44/25
f 106/46/27 11/40/158 5/42/28
f 105/48/30 102/45/140 1/44/31
f 7/49/33 94/126/159 110/50/34
f 94/52/36 11/40/160 106/46/37
f 109/54/39 105/48/141 9/31/40
f 94/52/42 96/143/129 12/55/43
f 2/56/45 10/142/161 9/31/46
f 26/57/47 24/67/59 15/58/48
f 15/58/50 17/81/108 30/60/51
f 88/61/53 84/144/162 19/62/54
f 27/63/55 19/62/54 13/64/56
f 37/66/58 38/83/163 24/67/59
f 37/66/58 26/57/47 89/68/60
f 86/70/62 89/68/60 26/57/47
f 16/71/63 28/117/114 32/72/64
f 23/73/65 32/72/64 36/74/66
f 25/65/68 13/64/164 21/76/69
f 14/78/71 18/86/83 87/79/72
f 24/67/74 33/88/87 17/81/75
f 13/64/77 19/62/120 29/82/78
f 38/83/80 25/65/68 34/77/70
f 14/78/71 22/89/88 31/85/82
f 20/59/84 30/60/51 85/87/85
f 38/83/80 35/84/81 33/88/87
f 22/89/88 39/75/67 36/74/66
f 27/63/55 37/66/58 90/69/61
f 25/65/57 38/83/163 37/66/58
f 40/90/89 42/94/89 43/91/90
f 45/93/91 44/96/91 42/94/89
f 46/95/92 47/135/148 44/96/93
f 32/72/64 55/99/96 59/97/94
f 32/72/64 28/117/114 51/98/95
f 18/86/83 49/101/98 92/100/97
f 31/85/82 54/106/103 49/101/98
f 34/77/70 21/76/69 50/102/99
f 30/60/51 53/110/109 91/104/101
f 33/88/87 56/109/107 48/105/102
f 36/74/66 59/97/94 54/106/103
f 21/76/79 29/82/78 52/107/104
f 35/84/81 34/77/70 57/103/100
f 35/84/81 58/108/106 56/109/107
f 17/81/108 48/105/165 53/110/109
f 63/7/110 67/1/110 65/3/110
f 61/10/110 60/8/110 65/3/110
f 62/15/110 66/13/110 67/12/110
f 62/15/110 61/10/110 64/5/110
f 73/111/111 75/145/111 71/112/111
f 72/113/111 73/111/111 69/6/111
f 75/114/111 74/116/113 70/115/113
f 74/116/113 72/113/111 68/9/112
f 28/117/114 85/121/119 91/118/115
f 29/82/78 87/122/121 92/119/116
f 22/89/117 88/125/127 90/120/118
f 16/71/63 86/124/166 85/121/119
f 19/62/120 84/144/167 87/122/121
f 16/71/122 23/73/125 89/123/123
f 39/75/118 90/120/118 89/123/123
f 14/78/126 84/80/168 88/125/127
f 7/49/128 8/37/169 96/39/129
f 100/127/130 8/37/170 7/49/131
f 5/42/23 6/41/22 104/128/133
f 4/129/135 93/34/171 108/130/136
f 3/35/16 4/129/156 99/131/138
f 106/46/27 101/47/29 102/45/140
f 103/43/24 102/45/26 101/47/134
f 97/51/132 98/132/139 99/131/138
f 110/53/38 106/46/37 105/48/141
f 99/131/137 108/130/136 107/38/19
f 110/50/34 109/133/145 98/132/143
f 3/35/144 98/132/143 109/133/145
f 46/95/92 111/146/147 112/134/147
