# Blender 4.1.0
# www.blender.org
mtllib RogueFace.mtl
o RogueFace
v 0.041702 2.463552 0.406502
v 0.049545 2.273466 0.410632
v 0.043010 2.464704 0.368921
v 0.050854 2.279399 0.322984
v 0.146352 1.991071 0.064063
v 0.292192 2.216377 0.128900
v 0.255618 2.133837 0.223704
v 0.327427 2.369193 0.159193
v 0.265885 2.326919 0.298459
v 0.170696 2.068017 0.325534
v 0.154452 2.025699 0.211072
v 0.247669 2.358336 -0.152483
v 0.178653 2.323099 -0.215930
v 0.186965 2.191988 -0.141041
v 0.157700 2.067935 -0.115479
v 0.324372 1.913108 0.100826
v 0.280960 1.883699 0.173746
v 0.429192 2.050586 0.132107
v 0.419614 2.238485 0.150119
v 0.407151 2.059666 0.242607
v 0.376448 2.205878 0.288671
v 0.325733 2.534511 0.319944
v 0.323961 2.680872 0.309994
v 0.379220 2.555844 0.173327
v 0.353013 2.692741 0.158376
v 0.365047 2.221049 -0.155925
v 0.333348 2.579397 -0.148479
v 0.294707 2.724486 -0.154901
v 0.379107 2.036778 -0.207465
v 0.211051 1.986422 -0.335500
v 0.140839 1.898334 -0.166167
v 0.359124 2.326432 0.327288
v 0.183356 2.590396 -0.298752
v 0.200264 2.202138 -0.301183
v 0.159273 2.745887 -0.272131
v 0.260248 2.870070 0.154441
v 0.226170 2.871989 -0.178648
v 0.227205 2.814817 0.320499
v 0.200771 2.701840 0.385823
v 0.200771 2.568907 0.449770
v 0.401309 2.380881 0.161093
v 0.350012 2.400117 -0.138449
v 0.191391 2.415219 -0.291068
v 0.200771 2.433502 0.490216
v 0.279356 1.871100 0.214931
v 0.383110 2.044649 0.275843
v 0.353007 2.188116 0.321549
v 0.333133 2.299242 0.358171
v 0.203208 2.393202 0.515457
v -0.041702 2.463552 0.406502
v -0.049545 2.273466 0.410632
v 0.000000 2.262269 0.424395
v 0.000000 2.465997 0.414347
v -0.043010 2.464704 0.368921
v -0.050854 2.279399 0.322984
v 0.000000 2.258885 0.323336
v 0.000000 2.469833 0.361871
v -0.146352 1.991071 0.064063
v -0.292192 2.216377 0.128900
v -0.255618 2.133837 0.223704
v -0.327427 2.369193 0.159193
v -0.265885 2.326919 0.298459
v -0.170696 2.068017 0.325534
v -0.154452 2.025699 0.211072
v -0.247669 2.358336 -0.152483
v -0.178653 2.323099 -0.215930
v -0.186965 2.191988 -0.141041
v -0.157700 2.067935 -0.115479
v 0.000000 1.974953 0.251220
v 0.000000 2.011154 0.391498
v 0.000000 2.330673 0.451856
v 0.000000 2.188037 -0.190906
v 0.000000 2.315754 -0.282270
v 0.000000 1.921000 0.174880
v 0.000000 2.072070 -0.175866
v -0.324372 1.913108 0.100826
v -0.280960 1.883699 0.173746
v -0.429192 2.050586 0.132107
v -0.419614 2.238485 0.150119
v -0.407151 2.059666 0.242607
v -0.376448 2.205878 0.288671
v -0.325733 2.534511 0.319944
v -0.323961 2.680872 0.309994
v -0.379220 2.555844 0.173327
v -0.353013 2.692741 0.158376
v -0.365047 2.221049 -0.155925
v -0.333348 2.579397 -0.148479
v -0.294707 2.724486 -0.154901
v -0.379107 2.036778 -0.207465
v -0.211051 1.986422 -0.335500
v -0.140839 1.898334 -0.166167
v -0.359124 2.326432 0.327288
v 0.000000 2.719620 0.478225
v 0.000000 2.875023 0.358083
v 0.000000 2.959200 0.148089
v 0.000000 2.929514 -0.223285
v 0.000000 2.778720 -0.357955
v 0.000000 2.596888 -0.387441
v 0.000000 2.192490 -0.386957
v 0.000000 1.883161 -0.216140
v 0.000000 1.969354 -0.414702
v -0.183356 2.590396 -0.298752
v -0.200264 2.202138 -0.301183
v -0.159273 2.745887 -0.272131
v -0.260248 2.870070 0.154441
v -0.226170 2.871989 -0.178648
v -0.227205 2.814817 0.320499
v -0.200771 2.701840 0.385823
v 0.000000 2.575126 0.543952
v -0.200771 2.568907 0.449770
v -0.401309 2.380881 0.161093
v -0.350012 2.400117 -0.138449
v 0.000000 2.422204 -0.380082
v -0.191391 2.415219 -0.291068
v 0.000000 2.415922 0.582657
v -0.200771 2.433502 0.490216
v -0.279356 1.871100 0.214931
v -0.383110 2.044649 0.275843
v -0.353007 2.188116 0.321549
v -0.333133 2.299242 0.358171
v 0.000000 2.376508 0.603239
v -0.203208 2.393202 0.515457
vn -0.0000 0.6686 0.7436
vn 0.7112 -0.4860 0.5080
vn 0.6252 0.5670 0.5363
vn 0.7452 0.6654 0.0432
vn -0.0000 -0.9996 -0.0288
vn -0.0000 -0.6716 0.7409
vn -0.0000 0.9985 0.0551
vn 0.6054 -0.5396 0.5851
vn -0.0000 -0.9076 0.4198
vn 0.5775 -0.7880 0.2132
vn 0.7523 -0.6588 -0.0070
vn 0.8776 -0.4283 0.2154
vn -0.0000 -0.1391 0.9903
vn 0.7970 -0.1872 0.5742
vn 0.4980 -0.4299 -0.7531
vn -0.0000 -0.3788 -0.9255
vn -0.0000 -0.5818 -0.8133
vn 0.8532 -0.3033 -0.4243
vn 0.9492 -0.3110 -0.0489
vn 0.6550 -0.3674 -0.6603
vn 0.2889 -0.2076 -0.9346
vn -0.0000 -0.1286 -0.9917
vn -0.0000 -0.9022 0.4313
vn 0.8862 -0.3894 -0.2511
vn 0.8893 0.0979 -0.4467
vn 0.9866 0.1290 0.0997
vn 0.9886 0.1314 0.0729
vn 0.9562 -0.2903 0.0363
vn 0.8741 0.1407 -0.4650
vn 0.9945 0.0888 0.0559
vn 0.5183 0.6274 0.5811
vn -0.0000 0.9879 0.1550
vn -0.0000 0.7817 0.6236
vn -0.0000 0.5109 0.8596
vn 0.5560 0.2734 0.7849
vn 0.4423 0.4063 0.7996
vn 0.8144 0.3133 0.4885
vn 0.9378 0.3438 0.0482
vn 0.6061 0.6600 -0.4439
vn 0.6497 0.7476 0.1376
vn 0.8883 0.1274 -0.4412
vn 0.9000 -0.2635 0.3472
vn 0.8930 0.0180 0.4497
vn 0.8570 0.2891 -0.4266
vn 0.3378 -0.8838 -0.3238
vn -0.0000 -0.9204 -0.3909
vn -0.0000 -0.9173 -0.3982
vn -0.0000 0.5832 -0.8124
vn 0.5192 0.3128 -0.7953
vn -0.0000 0.4247 -0.9053
vn 0.5365 -0.8123 -0.2287
vn 0.7316 -0.6816 0.0105
vn 0.3548 -0.8810 -0.3129
vn -0.0000 0.0777 -0.9970
vn -0.0000 0.0067 -1.0000
vn 0.5169 0.1217 -0.8474
vn -0.0000 0.0932 -0.9957
vn 0.4548 0.1482 -0.8782
vn -0.0000 0.1234 -0.9924
vn 0.8518 0.1030 0.5137
vn 0.8685 0.0703 0.4906
vn 0.8063 0.1834 -0.5623
vn 0.5702 0.0971 -0.8158
vn 0.5655 0.0362 -0.8240
vn 0.8238 -0.5642 0.0550
vn 0.6037 0.3078 0.7354
vn -0.0000 0.3294 0.9442
vn 0.8198 -0.0246 0.5721
vn 0.8364 -0.3676 0.4067
vn 0.7756 0.0163 0.6310
vn 0.8698 -0.4803 -0.1131
vn -0.0000 0.3753 0.9269
vn 0.5802 0.4525 0.6772
vn -0.7112 -0.4860 0.5080
vn -0.6252 0.5670 0.5363
vn -0.7452 0.6654 0.0432
vn -0.8218 -0.5692 -0.0263
vn -0.6054 -0.5396 0.5851
vn -0.5775 -0.7880 0.2132
vn -0.8776 -0.4283 0.2154
vn -0.7523 -0.6588 -0.0070
vn -0.7970 -0.1872 0.5742
vn -0.4980 -0.4299 -0.7531
vn -0.6550 -0.3674 -0.6603
vn -0.8532 -0.3033 -0.4243
vn -0.9492 -0.3110 -0.0489
vn -0.9708 -0.2342 0.0523
vn -0.2889 -0.2076 -0.9346
vn -0.8862 -0.3894 -0.2511
vn -0.9866 0.1290 0.0997
vn -0.8893 0.0979 -0.4467
vn -0.9886 0.1314 0.0729
vn -0.9562 -0.2903 0.0363
vn -0.8741 0.1407 -0.4650
vn -0.8063 0.1834 -0.5623
vn -0.5183 0.6274 0.5811
vn -0.5560 0.2734 0.7849
vn -0.4423 0.4063 0.7996
vn -0.8144 0.3133 0.4885
vn -0.8518 0.1030 0.5137
vn -0.6061 0.6600 -0.4439
vn -0.6497 0.7476 0.1376
vn -0.9378 0.3438 0.0482
vn -0.8883 0.1274 -0.4412
vn -0.9945 0.0888 0.0559
vn -0.9000 -0.2635 0.3472
vn -0.8930 0.0180 0.4497
vn -0.8570 0.2891 -0.4266
vn -0.3378 -0.8838 -0.3238
vn -0.3548 -0.8810 -0.3129
vn -0.5192 0.3128 -0.7953
vn -0.5365 -0.8123 -0.2287
vn -0.7316 -0.6816 0.0105
vn -0.5169 0.1217 -0.8474
vn -0.5655 0.0362 -0.8240
vn -0.4548 0.1482 -0.8782
vn -0.5702 0.0971 -0.8158
vn -0.8685 0.0703 0.4906
vn -0.6037 0.3078 0.7354
vn -0.8198 -0.0246 0.5721
vn -0.7756 0.0163 0.6310
vn -0.8238 -0.5642 0.0550
vn -0.8364 -0.3676 0.4067
vn -0.5802 0.4525 0.6772
vn 0.8218 -0.5692 -0.0263
vn -0.0000 -0.9683 0.2499
vn -0.0000 -0.1856 0.9826
vn 0.9708 -0.2342 0.0523
vn -0.0000 0.9968 -0.0797
vn -0.0000 0.4629 0.8864
vn -0.8698 -0.4803 -0.1131
vt 0.001953 0.064860
vt 0.017766 0.005611
vt 0.015047 0.064235
vt 0.026594 0.065362
vt 0.872045 0.033106
vt 0.855151 0.006780
vt 0.870647 0.001953
vt 0.053964 0.015831
vt 0.066860 0.001953
vt 0.066860 0.018180
vt 0.801390 0.444960
vt 0.862697 0.432746
vt 0.827004 0.470832
vt 0.853694 0.510143
vt 0.784723 0.483977
vt 0.728775 0.373440
vt 0.722131 0.472679
vt 0.788250 0.633223
vt 0.857925 0.637409
vt 0.828589 0.675943
vt 0.763583 0.614668
vt 0.768663 0.518656
vt 0.815509 0.594756
vt 0.849926 0.572122
vt 0.883465 0.611810
vt 0.883465 0.453811
vt 0.171539 0.261194
vt 0.221076 0.166301
vt 0.252639 0.207743
vt 0.306861 0.294482
vt 0.200397 0.304362
vt 0.277222 0.243496
vt 0.195167 0.069315
vt 0.100361 0.027603
vt 0.180714 0.001953
vt 0.252145 0.003694
vt 0.280292 0.081707
vt 0.236008 0.069166
vt 0.222129 0.109475
vt 0.190324 0.139483
vt 0.074978 0.154725
vt 0.151383 0.096428
vt 0.137805 0.220615
vt 0.333409 0.272290
vt 0.319563 0.222204
vt 0.109618 0.187110
vt 0.193115 0.400554
vt 0.224668 0.471224
vt 0.149981 0.454326
vt 0.012183 0.131373
vt 0.057328 0.202509
vt 0.001953 0.205670
vt 0.223293 0.351793
vt 0.325523 0.344265
vt 0.253671 0.430543
vt 0.020915 0.270587
vt 0.051792 0.325585
vt 0.147719 0.349027
vt 0.097680 0.393228
vt 0.257680 0.135105
vt 0.304162 0.182617
vt 0.079005 0.248084
vt 0.109352 0.293900
vt 0.354960 0.341954
vt 0.320562 0.100080
vt 0.305069 0.018404
vt 0.332875 0.218626
vt 0.346421 0.270566
vt 0.318399 0.179052
vt 0.367541 0.336265
vt 0.354204 0.038358
vt 0.334761 0.104396
vt 0.044615 0.009257
vt 0.053520 0.004237
vt 0.719202 0.524560
vt 0.001953 0.001953
vt 0.855151 0.033875
vt 0.831127 0.395990
vt 0.367541 0.042011
s 1
usemtl Rogue_Texture
f 53/1/1 2/2/2 1/3/3
f 2/2/2 3/4/4 1/3/3
f 56/5/5 2/6/2 52/7/6
f 1/8/3 57/9/7 53/10/1
f 10/11/8 69/12/9 11/13/10
f 5/14/11 7/15/12 11/13/10
f 7/15/12 10/11/8 11/13/10
f 71/16/13 10/11/8 9/17/14
f 7/15/12 9/17/14 10/11/8
f 13/18/15 72/19/16 73/20/17
f 12/21/18 6/22/19 14/23/20
f 72/19/16 15/24/21 75/25/22
f 11/13/10 74/26/23 5/14/11
f 6/22/19 9/17/14 7/15/12
f 12/21/18 14/23/20 13/18/15
f 6/22/19 15/24/24 14/23/20
f 42/27/25 24/28/26 41/29/27
f 18/30/28 26/31/29 19/32/30
f 38/33/31 95/34/32 94/35/33
f 93/36/34 40/37/35 39/38/36
f 23/39/37 38/33/31 39/38/36
f 23/39/37 24/28/26 25/40/38
f 37/41/39 95/34/32 36/42/40
f 27/43/41 25/40/38 24/28/26
f 20/44/42 19/32/30 21/45/43
f 36/42/40 28/46/44 37/41/39
f 30/47/45 100/48/46 101/49/47
f 96/50/48 35/51/49 97/52/50
f 29/53/51 16/54/52 31/55/53
f 35/51/49 98/56/54 97/52/50
f 113/57/55 34/58/56 99/59/57
f 99/59/57 30/47/58 101/49/59
f 41/29/27 22/60/60 32/61/61
f 34/58/56 29/53/62 30/47/58
f 38/33/31 25/40/38 36/42/40
f 33/62/63 28/46/44 27/43/41
f 43/63/64 27/43/41 42/27/25
f 35/51/49 37/41/39 28/46/44
f 39/38/36 94/35/33 93/36/34
f 23/39/37 40/37/35 22/60/60
f 16/54/52 20/44/42 17/64/65
f 29/53/51 31/55/53 30/47/45
f 43/63/64 26/31/29 34/58/56
f 19/32/30 32/61/61 21/45/43
f 33/62/63 113/57/55 98/56/54
f 19/32/30 42/27/25 41/29/27
f 22/60/60 44/65/66 32/61/61
f 109/66/67 44/65/66 40/37/35
f 20/44/42 47/67/68 46/68/69
f 44/65/66 48/69/70 32/61/61
f 17/64/65 46/68/69 45/70/71
f 115/71/72 49/72/73 44/65/66
f 21/45/43 48/69/70 47/67/68
f 51/2/74 53/1/1 50/3/75
f 51/2/74 54/4/76 55/73/77
f 51/6/74 56/5/5 52/7/6
f 50/8/75 57/9/7 54/74/76
f 69/12/9 63/11/78 64/13/79
f 60/15/80 58/14/81 64/13/79
f 60/15/80 64/13/79 63/11/78
f 63/11/78 71/16/13 62/17/82
f 60/15/80 63/11/78 62/17/82
f 66/18/83 72/19/16 67/23/84
f 65/21/85 59/22/86 61/75/87
f 72/19/16 68/24/88 67/23/84
f 64/13/79 74/26/23 69/12/9
f 59/22/86 62/17/82 61/75/87
f 65/21/85 66/18/83 67/23/84
f 59/22/86 68/24/89 58/14/81
f 84/28/90 112/27/91 111/29/92
f 78/30/93 86/31/94 89/53/95
f 95/34/32 107/33/96 94/35/33
f 110/37/97 93/36/34 108/38/98
f 83/39/99 108/38/98 107/33/96
f 83/39/99 84/28/90 82/60/100
f 95/34/32 106/41/101 105/42/102
f 85/40/103 87/43/104 84/28/90
f 79/32/105 80/44/106 81/45/107
f 88/46/108 105/42/102 106/41/101
f 90/47/109 100/48/46 91/55/110
f 96/50/48 104/51/111 106/41/101
f 89/53/112 76/54/113 78/30/93
f 98/56/54 104/51/111 97/52/50
f 113/57/55 103/58/114 114/63/115
f 99/59/57 90/47/116 103/58/114
f 111/29/92 82/60/100 84/28/90
f 89/53/95 103/58/114 90/47/116
f 85/40/103 107/33/96 105/42/102
f 102/62/117 88/46/108 104/51/111
f 114/63/115 87/43/104 102/62/117
f 104/51/111 88/46/108 106/41/101
f 108/38/98 94/35/33 107/33/96
f 83/39/99 110/37/97 108/38/98
f 76/54/113 80/44/106 78/30/93
f 89/53/112 90/47/109 91/55/110
f 86/31/94 114/63/115 103/58/114
f 79/32/105 92/61/118 111/29/92
f 113/57/55 102/62/117 98/56/54
f 79/32/105 112/27/91 86/31/94
f 82/60/100 116/65/119 110/37/97
f 116/65/119 109/66/67 110/37/97
f 80/44/106 119/67/120 81/45/107
f 120/69/121 116/65/119 92/61/118
f 77/64/122 118/68/123 80/44/106
f 122/72/124 115/71/72 116/65/119
f 81/45/107 120/69/121 92/61/118
f 53/1/1 52/76/6 2/2/2
f 2/2/2 4/73/125 3/4/4
f 56/5/5 4/77/125 2/6/2
f 1/8/3 3/74/4 57/9/7
f 10/11/8 70/78/126 69/12/9
f 5/14/11 6/22/19 7/15/12
f 71/16/13 70/78/127 10/11/8
f 13/18/15 14/23/20 72/19/16
f 12/21/18 8/75/128 6/22/19
f 72/19/16 14/23/20 15/24/21
f 11/13/10 69/12/9 74/26/23
f 6/22/19 8/75/128 9/17/14
f 6/22/19 5/14/11 15/24/24
f 42/27/25 27/43/41 24/28/26
f 18/30/28 29/53/62 26/31/29
f 38/33/31 36/42/40 95/34/32
f 93/36/34 109/66/67 40/37/35
f 23/39/37 22/60/60 24/28/26
f 37/41/39 96/50/129 95/34/32
f 27/43/41 28/46/44 25/40/38
f 20/44/42 18/30/28 19/32/30
f 36/42/40 25/40/38 28/46/44
f 30/47/45 31/55/53 100/48/46
f 96/50/48 37/41/39 35/51/49
f 29/53/51 18/30/28 16/54/52
f 35/51/49 33/62/63 98/56/54
f 113/57/55 43/63/64 34/58/56
f 99/59/57 34/58/56 30/47/58
f 41/29/27 24/28/26 22/60/60
f 34/58/56 26/31/29 29/53/62
f 38/33/31 23/39/37 25/40/38
f 33/62/63 35/51/49 28/46/44
f 43/63/64 33/62/63 27/43/41
f 39/38/36 38/33/31 94/35/33
f 23/39/37 39/38/36 40/37/35
f 16/54/52 18/30/28 20/44/42
f 43/63/64 42/27/25 26/31/29
f 19/32/30 41/29/27 32/61/61
f 33/62/63 43/63/64 113/57/55
f 19/32/30 26/31/29 42/27/25
f 22/60/60 40/37/35 44/65/66
f 109/66/67 115/71/72 44/65/66
f 20/44/42 21/45/43 47/67/68
f 44/65/66 49/72/73 48/69/70
f 17/64/65 20/44/42 46/68/69
f 115/71/72 121/79/130 49/72/73
f 21/45/43 32/61/61 48/69/70
f 51/2/74 52/76/6 53/1/1
f 51/2/74 50/3/75 54/4/76
f 51/6/74 55/77/77 56/5/5
f 50/8/75 53/10/1 57/9/7
f 69/12/9 70/78/126 63/11/78
f 60/15/80 59/22/86 58/14/81
f 63/11/78 70/78/127 71/16/13
f 66/18/83 73/20/17 72/19/16
f 65/21/85 67/23/84 59/22/86
f 72/19/16 75/25/22 68/24/88
f 64/13/79 58/14/81 74/26/23
f 59/22/86 60/15/80 62/17/82
f 59/22/86 67/23/84 68/24/89
f 84/28/90 87/43/104 112/27/91
f 78/30/93 79/32/105 86/31/94
f 95/34/32 105/42/102 107/33/96
f 110/37/97 109/66/67 93/36/34
f 83/39/99 85/40/103 84/28/90
f 95/34/32 96/50/129 106/41/101
f 85/40/103 88/46/108 87/43/104
f 79/32/105 78/30/93 80/44/106
f 88/46/108 85/40/103 105/42/102
f 90/47/109 101/49/47 100/48/46
f 96/50/48 97/52/50 104/51/111
f 89/53/112 91/55/110 76/54/113
f 98/56/54 102/62/117 104/51/111
f 113/57/55 99/59/57 103/58/114
f 99/59/57 101/49/59 90/47/116
f 111/29/92 92/61/118 82/60/100
f 89/53/95 86/31/94 103/58/114
f 85/40/103 83/39/99 107/33/96
f 102/62/117 87/43/104 88/46/108
f 114/63/115 112/27/91 87/43/104
f 108/38/98 93/36/34 94/35/33
f 83/39/99 82/60/100 110/37/97
f 76/54/113 77/64/122 80/44/106
f 86/31/94 112/27/91 114/63/115
f 79/32/105 81/45/107 92/61/118
f 113/57/55 114/63/115 102/62/117
f 79/32/105 111/29/92 112/27/91
f 82/60/100 92/61/118 116/65/119
f 116/65/119 115/71/72 109/66/67
f 80/44/106 118/68/123 119/67/120
f 120/69/121 122/72/124 116/65/119
f 77/64/122 117/70/131 118/68/123
f 122/72/124 121/79/130 115/71/72
f 81/45/107 119/67/120 120/69/121
