# Blender 4.1.0
# www.blender.org
mtllib Shoelace.R__ncl1_29.mtl
o Shoelace.R__ncl1_29.005
v -0.274327 0.062732 0.205540
v -0.274291 0.064532 0.190505
v -0.261040 0.073819 0.198293
v -0.261058 0.072020 0.213327
v -0.273523 0.069455 0.175019
v -0.273487 0.071255 0.159985
v -0.260236 0.080543 0.167773
v -0.260253 0.078743 0.182807
v -0.272737 0.075731 0.144050
v -0.272702 0.077531 0.129015
v -0.259450 0.086818 0.136803
v -0.259468 0.085019 0.151837
v -0.271971 0.081558 0.112631
v -0.271935 0.083358 0.097596
v -0.258684 0.092645 0.105384
v -0.258701 0.090846 0.120418
v -0.194419 0.062732 0.205540
v -0.194455 0.064532 0.190505
v -0.234373 0.077604 0.217731
v -0.234373 0.079403 0.202697
v -0.207706 0.073819 0.198293
v -0.207689 0.072020 0.213327
v -0.195224 0.069455 0.175019
v -0.195259 0.071255 0.159985
v -0.234373 0.084328 0.187211
v -0.234373 0.086127 0.172177
v -0.208511 0.080543 0.167773
v -0.208493 0.078743 0.182807
v -0.196009 0.075731 0.144050
v -0.196045 0.077531 0.129015
v -0.234373 0.090603 0.156241
v -0.234373 0.092402 0.141207
v -0.209296 0.086818 0.136803
v -0.209278 0.085019 0.151837
v -0.196776 0.081558 0.112631
v -0.196811 0.083358 0.097596
v -0.234373 0.096430 0.124822
v -0.234373 0.098230 0.109788
v -0.210063 0.092645 0.105384
v -0.210045 0.090846 0.120418
vn -0.4538 0.8849 0.1052
vn -0.6074 0.7889 0.0933
vn -0.3892 0.9147 0.1090
vn -0.0000 0.9929 0.1187
vn -0.0000 0.9929 0.1188
vn -0.4566 0.8834 0.1051
vn -0.3927 0.9132 0.1089
vn -0.4595 0.8820 0.1048
vn -0.3962 0.9117 0.1087
vn -0.4624 0.8805 0.1046
vn -0.3999 0.9101 0.1085
vn -0.0000 0.9929 0.1189
vn 0.6074 0.7889 0.0933
vn 0.4538 0.8848 0.1052
vn 0.3892 0.9147 0.1091
vn 0.4566 0.8834 0.1050
vn 0.3927 0.9132 0.1089
vn 0.4595 0.8820 0.1048
vn 0.3962 0.9117 0.1087
vn 0.4624 0.8805 0.1046
vn 0.3999 0.9101 0.1085
vn -0.6075 0.7888 0.0930
vn -0.6076 0.7888 0.0930
vn -0.6075 0.7889 0.0930
vn 0.6075 0.7888 0.0930
vn 0.6075 0.7889 0.0930
vt 0.074317 0.023978
vt 0.076941 0.029135
vt 0.078987 0.023984
vt 0.075461 0.015544
vt 0.080131 0.015544
vt 0.346215 0.023495
vt 0.348840 0.028652
vt 0.350885 0.023500
vt 0.347359 0.015302
vt 0.352029 0.015302
vt 0.360279 0.023024
vt 0.362903 0.028180
vt 0.364949 0.023029
vt 0.361423 0.015067
vt 0.366092 0.015067
vt 0.374343 0.022565
vt 0.376967 0.027721
vt 0.379012 0.022570
vt 0.375487 0.014837
vt 0.380156 0.014837
vt 0.076941 0.001953
vt 0.074317 0.007110
vt 0.078987 0.007104
vt 0.348840 0.001953
vt 0.346215 0.007110
vt 0.350885 0.007104
vt 0.362903 0.001953
vt 0.360279 0.007110
vt 0.364949 0.007104
vt 0.376967 0.001953
vt 0.374343 0.007110
vt 0.379012 0.007104
vt 0.072272 0.029125
vt 0.344170 0.028642
vt 0.358233 0.028171
vt 0.372297 0.027712
vt 0.072272 0.001963
vt 0.344170 0.001963
vt 0.358233 0.001963
vt 0.372297 0.001963
s 1
usemtl Rogue_Texture
f 3/1/1 1/2/2 4/3/3
f 20/4/4 4/3/3 19/5/5
f 7/6/6 5/7/2 8/8/7
f 26/9/4 8/8/7 25/10/5
f 11/11/8 9/12/2 12/13/9
f 32/14/4 12/13/9 31/15/5
f 15/16/10 13/17/2 16/18/11
f 38/19/5 16/18/11 37/20/12
f 17/21/13 21/22/14 22/23/15
f 22/23/15 20/4/4 19/5/5
f 23/24/13 27/25/16 28/26/17
f 28/26/17 26/9/4 25/10/5
f 29/27/13 33/28/18 34/29/19
f 34/29/19 32/14/4 31/15/5
f 35/30/13 39/31/20 40/32/21
f 40/32/21 38/19/5 37/20/12
f 3/1/1 2/33/22 1/2/2
f 20/4/4 3/1/1 4/3/3
f 7/6/6 6/34/23 5/7/2
f 26/9/4 7/6/6 8/8/7
f 11/11/8 10/35/24 9/12/2
f 32/14/4 11/11/8 12/13/9
f 15/16/10 14/36/22 13/17/2
f 38/19/5 15/16/10 16/18/11
f 17/21/13 18/37/25 21/22/14
f 22/23/15 21/22/14 20/4/4
f 23/24/13 24/38/25 27/25/16
f 28/26/17 27/25/16 26/9/4
f 29/27/13 30/39/25 33/28/18
f 34/29/19 33/28/18 32/14/4
f 35/30/13 36/40/26 39/31/20
f 40/32/21 39/31/20 38/19/5
