# Blender 4.1.0
# www.blender.org
mtllib ShoulderPad.L__ncl1_29.mtl
o ShoulderPad.L__ncl1_29.002
v 0.298602 1.738717 -0.102623
v 0.351979 1.827478 -0.127400
v 0.432311 1.879557 0.065475
v 0.403193 1.778223 0.131520
v 0.410325 1.954912 -0.055589
v 0.524252 1.832297 -0.100123
v 0.475911 1.617407 -0.175061
v 0.629575 1.700833 -0.009709
v 0.693781 1.716613 -0.172781
v 0.555902 1.623038 0.077918
v 0.523031 1.663663 -0.202289
v 0.449791 1.633072 -0.164767
v 0.605933 1.723478 0.000944
v 0.666829 1.733649 -0.161021
v 0.538288 1.641256 0.086343
v 0.497428 1.687655 -0.192931
v 0.310644 1.760284 -0.112305
v 0.410367 1.794716 0.118904
v 0.464974 1.653919 -0.175904
v 0.550392 1.655969 0.071061
vn -0.1935 0.2330 -0.9530
vn 0.0883 0.5048 -0.8587
vn -0.0069 0.5340 -0.8455
vn -0.0915 0.3013 -0.9491
vn 0.1282 0.4417 -0.8880
vn 0.7530 0.6112 0.2437
vn 0.6987 0.5389 0.4706
vn 0.6887 0.6873 0.2308
vn 0.5942 0.2881 0.7510
vn 0.5958 0.2884 0.7496
vn 0.6174 0.2580 0.7432
vn -0.4245 -0.1004 -0.8998
vn -0.1443 0.2218 -0.9644
vn -0.4115 -0.1440 -0.9000
vn 0.7000 0.5044 0.5055
vn 0.6162 0.7283 0.2999
vn 0.6693 0.5142 0.5363
vn -0.4162 -0.0612 -0.9072
vn 0.5763 0.3226 0.7508
vn 0.5742 0.3232 0.7522
vn -0.0232 0.5428 -0.8395
vn -0.4494 -0.1438 -0.8817
vn -0.4578 -0.1386 -0.8782
vn 0.6007 0.7378 0.3079
vt 0.067226 0.942394
vt 0.051907 0.892489
vt 0.105223 0.905571
vt 0.008747 0.920945
vt 0.001953 0.877580
vt 0.021540 0.842448
vt 0.092598 0.825472
vt 0.093215 0.818299
vt 0.100925 0.819813
vt 0.060789 0.955559
vt 0.077246 0.945990
vt 0.067381 0.964642
vt 0.099485 0.860371
vt 0.089630 0.858518
vt 0.003760 0.944069
vt 0.036673 0.809458
vt 0.034685 0.815599
vt 0.114787 0.907921
vt 0.057978 0.963335
vt 0.001953 0.951669
s 1
usemtl Wizard_Texture
f 16/1/1 6/2/2 14/3/3
f 2/4/4 5/5/5 6/2/2
f 5/5/6 3/6/7 6/2/8
f 20/7/9 15/8/10 10/9/11
f 19/10/12 11/11/13 7/12/14
f 8/13/15 14/3/16 13/14/17
f 13/14/17 6/2/8 3/6/7
f 2/4/4 19/10/12 17/15/18
f 4/16/19 20/7/9 18/17/20
f 11/11/13 14/3/3 9/18/21
f 17/15/18 12/19/22 1/20/23
f 12/19/22 19/10/12 7/12/14
f 18/17/20 13/14/17 3/6/7
f 20/7/9 8/13/15 13/14/17
f 16/1/1 2/4/4 6/2/2
f 19/10/12 16/1/1 11/11/13
f 8/13/15 9/18/24 14/3/16
f 13/14/17 14/3/16 6/2/8
f 2/4/4 16/1/1 19/10/12
f 4/16/19 15/8/10 20/7/9
f 11/11/13 16/1/1 14/3/3
f 17/15/18 19/10/12 12/19/22
f 18/17/20 20/7/9 13/14/17
f 20/7/9 10/9/11 8/13/15
