# Blender 4.1.0
# www.blender.org
mtllib WarriorPadL.mtl
o WarriorPadL
v 0.364263 1.923199 -0.228283
v 0.541475 1.956456 0.111579
v 0.505667 1.974347 -0.099116
v 0.523271 1.994916 -0.110456
v 0.559079 1.977026 0.100238
v 0.381867 1.943769 -0.239623
v 0.560474 1.999531 0.006242
v 0.542870 1.978961 0.017582
v 0.452941 1.979557 -0.199137
v 0.435337 1.958987 -0.187797
v 0.363446 1.895844 -0.251704
v 0.562477 1.932957 0.129022
v 0.515295 1.948837 -0.102975
v 0.559328 1.954659 0.026516
v 0.438599 1.932353 -0.203578
v 0.338306 1.865461 -0.235414
v 0.537337 1.902573 0.145312
v 0.490155 1.918454 -0.086684
v 0.534188 1.924275 0.042806
v 0.413459 1.901970 -0.187288
v 0.388783 1.799859 -0.271521
v 0.600270 1.838485 0.133105
v 0.543671 1.861659 -0.110605
v 0.592839 1.864482 0.026814
v 0.463934 1.841075 -0.218878
v 0.477975 1.643001 -0.274881
v 0.665150 1.677330 0.084211
v 0.620352 1.702590 -0.137394
v 0.666680 1.704911 -0.005297
v 0.544398 1.682675 -0.238584
v 0.546835 1.547809 -0.242762
v 0.685394 1.574030 0.023238
v 0.643303 1.641032 -0.143839
v 0.675816 1.633538 -0.046849
v 0.590625 1.618558 -0.210640
v 0.681392 1.533879 -0.163964
v 0.653264 1.589653 -0.149011
v 0.319965 1.809719 -0.220361
v 0.519975 1.848014 0.159731
v 0.308933 1.703356 -0.219780
v 0.521815 1.743669 0.183941
v 0.432217 1.587700 -0.245231
v 0.620787 1.623716 0.112957
v 0.354701 1.925939 -0.204582
v 0.516489 1.956470 0.106390
v 0.488721 1.975782 -0.089245
v 0.509713 2.004003 -0.103116
v 0.537481 1.984692 0.092519
v 0.375693 1.954161 -0.218454
v 0.542088 2.007764 0.004538
v 0.521096 1.979542 0.018410
v 0.443884 1.989440 -0.183368
v 0.422891 1.961218 -0.169497
v 0.354816 1.898749 -0.226258
v 0.536558 1.932806 0.122088
v 0.498388 1.950279 -0.093029
v 0.537010 1.955144 0.026325
v 0.426737 1.934687 -0.184186
v 0.329675 1.868366 -0.209968
v 0.511418 1.902422 0.138378
v 0.473248 1.919896 -0.076739
v 0.511870 1.924761 0.042615
v 0.401597 1.904303 -0.167896
v 0.380694 1.802859 -0.245062
v 0.573811 1.838239 0.125158
v 0.526789 1.863106 -0.100613
v 0.570179 1.864907 0.025983
v 0.452438 1.843474 -0.198800
v 0.468847 1.645818 -0.250367
v 0.639728 1.677267 0.078209
v 0.603501 1.704042 -0.127346
v 0.644293 1.705384 -0.005616
v 0.532609 1.685022 -0.219055
v 0.536713 1.542789 -0.222085
v 0.663201 1.566877 0.021309
v 0.627321 1.635807 -0.133625
v 0.655829 1.627605 -0.044136
v 0.578064 1.613938 -0.194019
v 0.666003 1.527929 -0.153152
v 0.637448 1.584458 -0.138487
v 0.311335 1.812624 -0.194915
v 0.494056 1.847863 0.152797
v 0.300844 1.706356 -0.193322
v 0.495356 1.743422 0.175995
v 0.423090 1.590517 -0.220717
v 0.595366 1.623654 0.106955
v 0.463238 1.697182 -0.239355
v 0.624442 1.728222 0.068373
v 0.596900 1.718479 -0.123414
v 0.634379 1.730147 -0.011469
v 0.529555 1.710345 -0.210699
v 0.473162 1.547541 -0.208107
v 0.615859 1.575310 0.064960
v 0.597283 1.567152 -0.110035
v 0.632456 1.578412 -0.002408
v 0.533008 1.559560 -0.191570
v 0.456631 1.465469 -0.147052
v 0.564298 1.487327 0.056309
v 0.571097 1.484816 -0.088283
v 0.591733 1.493506 -0.007885
v 0.522420 1.479981 -0.140605
v 0.518738 1.423752 -0.062600
v 0.547620 1.448736 -0.076160
v 0.361686 1.663304 -0.195082
v 0.535418 1.696837 0.132012
v 0.413265 1.527826 -0.185925
v 0.567264 1.557872 0.104211
v 0.457557 1.707484 -0.220225
v 0.604777 1.736053 0.061313
v 0.584549 1.727603 -0.116776
v 0.617339 1.738441 -0.013614
v 0.521575 1.720242 -0.195875
v 0.466690 1.557703 -0.190458
v 0.596985 1.583281 0.059381
v 0.584956 1.576280 -0.103350
v 0.615637 1.586746 -0.004138
v 0.524790 1.569415 -0.177191
v 0.448594 1.475356 -0.132333
v 0.546995 1.495575 0.053672
v 0.558771 1.493944 -0.081599
v 0.576156 1.502060 -0.007289
v 0.512870 1.489600 -0.128721
v 0.506695 1.432930 -0.055385
v 0.535429 1.457888 -0.069224
v 0.356471 1.673689 -0.175078
v 0.515293 1.704587 0.124091
v 0.407207 1.538063 -0.167500
v 0.547982 1.565771 0.097868
vn 0.5964 -0.7133 -0.3681
vn 0.6501 -0.7082 -0.2754
vn 0.5906 -0.7134 -0.3771
vn 0.7068 -0.6902 -0.1548
vn 0.7005 -0.6931 -0.1698
vn 0.6966 -0.6948 -0.1788
vn 0.6502 -0.7082 -0.2752
vn 0.5818 -0.7133 -0.3908
vn 0.1777 0.6198 -0.7643
vn 0.3827 0.5197 -0.7639
vn 0.1710 0.6378 -0.7509
vn 0.5397 0.4718 -0.6973
vn 0.7963 0.3847 -0.4669
vn 0.8467 0.5117 -0.1460
vn 0.8055 0.3736 -0.4600
vn 0.7051 0.6965 0.1333
vn 0.8204 0.5717 -0.0130
vn 0.7143 -0.6799 -0.1659
vn 0.7074 -0.6830 -0.1822
vn 0.7036 -0.6845 -0.1909
vn 0.5933 -0.7021 -0.3939
vn 0.6031 -0.7021 -0.3787
vn 0.6087 -0.7019 -0.3699
vn 0.6594 -0.6969 -0.2820
vn 0.6595 -0.6968 -0.2818
vn 0.7218 0.6819 0.1189
vn 0.8048 0.5847 -0.1020
vn 0.7031 0.7078 -0.0678
vn 0.2169 0.5897 -0.7779
vn 0.4734 0.5264 -0.7062
vn 0.3185 0.4464 -0.8362
vn 0.5892 0.7121 -0.3819
vn 0.3757 0.6527 -0.6579
vn 0.6910 0.5848 -0.4249
vn 0.8343 0.5437 0.0911
vn 0.9408 0.3218 -0.1063
vn 0.5758 0.2290 -0.7849
vn 0.0748 -0.0836 -0.9937
vn 0.7964 0.3875 -0.4643
vn 0.9877 0.0537 0.1468
vn 0.9628 0.2166 -0.1614
vn 0.6257 0.1768 -0.7597
vn 0.3926 -0.0282 -0.9193
vn 0.8326 0.2876 -0.4734
vn 0.7925 0.3981 -0.4620
vn 0.7971 0.3411 -0.4983
vn -0.5007 -0.0695 -0.8628
vn -0.8158 0.0988 -0.5698
vn -0.8289 0.2941 -0.4757
vn -0.7012 -0.0323 -0.7123
vn -0.2580 -0.2820 -0.9241
vn 0.4371 0.0966 0.8942
vn 0.0107 0.2398 0.9708
vn 0.2011 0.1259 0.9714
vn 0.8705 0.0715 0.4869
vn 0.6404 -0.1234 0.7581
vn -0.6158 0.6654 0.4219
vn -0.6887 0.6599 0.3004
vn -0.6889 0.6599 0.3000
vn -0.7549 0.6374 0.1544
vn -0.7655 0.6311 0.1254
vn -0.7477 0.6411 0.1729
vn -0.5839 0.6639 0.4672
vn -0.6029 0.6651 0.4407
vn -0.1503 -0.5979 0.7874
vn -0.3653 -0.5062 0.7812
vn -0.5184 -0.4645 0.7180
vn -0.7958 -0.3857 0.4668
vn -0.8055 -0.3736 0.4600
vn -0.8525 -0.5095 0.1168
vn -0.8256 -0.5641 -0.0126
vn -0.7108 -0.6823 -0.1709
vn -0.7116 0.6811 0.1723
vn -0.4166 0.6185 0.6662
vn -0.7072 0.6830 0.1825
vn -0.8320 0.5450 -0.1034
vn -0.5975 0.7021 0.3874
vn -0.6041 0.7020 0.3771
vn -0.6596 0.6968 0.2817
vn -0.6597 0.6968 0.2815
vn -0.8099 -0.5816 0.0769
vn -0.7262 -0.6694 -0.1562
vn -0.7101 -0.7030 0.0405
vn -0.1883 -0.5698 0.7999
vn -0.4552 -0.5187 0.7237
vn -0.3567 -0.6426 0.6781
vn -0.5893 -0.7119 0.3820
vn -0.9483 -0.3082 0.0762
vn -0.8352 -0.5346 -0.1294
vn -0.2867 -0.4304 0.8559
vn -0.5550 -0.2263 0.8005
vn -0.6911 -0.5845 0.4250
vn -0.9690 -0.2172 0.1178
vn -0.8606 -0.0791 -0.5032
vn -0.0469 0.0757 0.9960
vn -0.6383 -0.0900 0.7645
vn -0.8008 -0.3769 0.4655
vn -0.8358 -0.2760 0.4746
vn -0.7493 -0.3385 0.5691
vn -0.4087 -0.0005 0.9127
vn -0.7313 -0.4156 0.5409
vn 0.5846 -0.0134 0.8112
vn 0.4981 0.0706 0.8643
vn 0.5880 0.0249 0.8085
vn 0.4416 0.1118 0.8902
vn 0.2805 0.2628 0.9232
vn -0.4398 -0.0954 -0.8930
vn -0.3412 -0.1755 -0.9235
vn -0.3391 -0.1380 -0.9306
vn -0.4963 -0.0539 -0.8665
vn -0.9807 -0.0786 -0.1791
vn -0.6254 0.1028 -0.7735
vn -0.1761 0.4844 0.8570
vn -0.2226 0.5265 0.8205
vn -0.2178 -0.6180 0.7554
vn -0.1609 -0.7154 0.6799
vn -0.1196 -0.7850 0.6078
vn 0.3906 0.9172 0.0791
vn 0.0863 0.8218 0.5632
vn 0.0670 0.7953 0.6025
vn 0.2574 -0.8824 0.3938
vn 0.2956 -0.9519 -0.0806
vn 0.2936 -0.9502 -0.1051
vn -0.3943 0.5360 0.7465
vn -0.0914 0.4202 0.9028
vn -0.5923 -0.7957 -0.1268
vn -0.6970 -0.7040 -0.1365
vn -0.5028 -0.8572 -0.1117
vn -0.1285 -0.9450 -0.3006
vn -0.8470 0.3657 -0.3858
vn -0.5030 0.7107 -0.4917
vn -0.5387 0.6835 -0.4926
vn 0.2276 -0.8821 0.4125
vn 0.4026 0.8631 -0.3049
vn 0.4107 0.9117 0.0128
vn -0.8452 0.4171 -0.3343
vn -0.1650 -0.9436 -0.2870
vn 0.1236 0.8694 -0.4784
vn 0.0402 0.8637 -0.5024
vn -0.8778 0.4505 -0.1628
vn -0.2785 0.2112 0.9369
vn -0.9475 0.0954 -0.3053
vn 0.8777 -0.0366 0.4779
vn 0.9743 -0.2230 -0.0325
vn 0.9947 -0.0186 -0.1008
vn 0.0754 -0.1746 -0.9818
vn 0.5662 -0.2979 -0.7686
vn 0.0433 -0.3786 -0.9245
vn 0.8833 -0.0429 -0.4668
vn 0.6256 -0.0841 -0.7756
vn 0.8679 -0.2222 -0.4442
vn 0.8318 -0.2377 0.5017
vn 0.8138 -0.5788 0.0521
vn 0.4478 -0.6201 -0.6442
vn 0.1457 -0.6785 -0.7200
vn 0.7914 -0.4788 -0.3800
vn 0.6351 -0.7189 -0.2826
vn 0.5146 -0.8197 -0.2515
vn 0.7302 -0.5906 0.3436
vn -0.3191 -0.2031 -0.9257
vn -0.2087 -0.3798 -0.9012
vn 0.6030 -0.0404 0.7967
vn 0.6598 -0.2252 0.7169
vn -0.9764 0.2159 0.0051
vn -0.8652 0.0275 -0.5007
vn -0.9972 0.0158 0.0733
vn -0.0482 0.1679 0.9846
vn -0.5438 0.2944 0.7858
vn -0.6037 0.0853 0.7926
vn -0.8834 0.0431 0.4667
vn -0.8207 0.5657 -0.0808
vn -0.8202 0.2221 -0.5272
vn -0.0145 0.3656 0.9307
vn -0.4257 0.6112 0.6672
vn -0.8679 0.2227 0.4441
vn -0.7914 0.4782 0.3807
vn -0.6330 0.7206 0.2828
vn -0.5115 0.8215 0.2518
vn 0.3323 0.1933 0.9232
vn 0.2293 0.3619 0.9036
vn -0.1157 0.6630 0.7396
vn -0.5928 0.0301 -0.8048
vn -0.7281 0.5730 -0.3762
vn -0.6489 0.2057 -0.7326
vn -0.4371 -0.2657 0.8593
vn -0.4215 -0.3530 0.8353
vn -0.4225 -0.3992 0.8137
vn -0.3927 -0.6234 0.6762
vn -0.4640 -0.8296 0.3106
vn -0.4653 -0.8370 0.2880
vn -0.8982 -0.4366 -0.0505
vn -0.9334 -0.3532 -0.0634
vn -0.8778 -0.4779 -0.0321
vn -0.7429 -0.6685 0.0336
vn -0.4031 -0.6122 0.6802
vn -0.7547 -0.6550 0.0369
vn 0.2401 0.9053 0.3503
vn 0.1013 0.8245 0.5567
vn 0.2543 0.9166 0.3084
vn 0.4343 0.8993 -0.0520
vn -0.4671 0.7276 -0.5024
vn -0.2460 0.8183 -0.5195
vn -0.2034 0.8355 -0.5104
vn 0.1824 0.8651 -0.4672
vn 0.2285 0.8610 -0.4545
vn 0.4401 0.8386 -0.3211
vn 0.4465 0.8906 -0.0868
vn 0.6896 0.7125 0.1297
vn -0.1440 -0.6172 0.7735
vn -0.6948 -0.6997 -0.1665
vn -0.1770 0.4896 0.8538
vn -0.2206 -0.6188 0.7539
vn -0.2509 0.2606 0.9323
vn -0.6973 -0.7043 -0.1333
vn -0.8450 0.3723 -0.3839
vn 0.4138 0.8596 -0.2998
vn -0.9316 0.1462 -0.3327
vn -0.4399 -0.2656 0.8578
vn -0.9338 -0.3527 -0.0603
vn 0.0993 0.8256 0.5554
vn -0.4672 0.7290 -0.5003
vn 0.4468 0.8362 -0.3181
vt 0.546540 0.284172
vt 0.538742 0.314712
vt 0.538940 0.281793
vt 0.536863 0.373497
vt 0.536493 0.349708
vt 0.544161 0.348239
vt 0.546540 0.315117
vt 0.540784 0.259940
vt 0.533500 0.256900
vt 0.531143 0.278664
vt 0.525052 0.252324
vt 0.531267 0.314177
vt 0.529544 0.375977
vt 0.528555 0.352057
vt 0.520783 0.379958
vt 0.517316 0.353974
vt 0.519999 0.275553
vt 0.514376 0.247894
vt 0.519705 0.313633
vt 0.510250 0.383840
vt 0.494463 0.350693
vt 0.497124 0.276831
vt 0.492304 0.251096
vt 0.497293 0.312541
vt 0.487105 0.378309
vt 0.446618 0.345968
vt 0.449358 0.277962
vt 0.445751 0.256177
vt 0.448089 0.310253
vt 0.411470 0.356379
vt 0.426929 0.336403
vt 0.428984 0.286394
vt 0.414845 0.266616
vt 0.429895 0.309474
vt 0.415328 0.307698
vt 0.398126 0.305695
vt 0.504310 0.232919
vt 0.477667 0.217615
vt 0.435105 0.238741
vt 0.498218 0.395732
vt 0.471120 0.409875
vt 0.441072 0.369688
vt 0.429498 0.386599
vt 0.221821 0.536167
vt 0.216611 0.508419
vt 0.226763 0.508461
vt 0.211709 0.478617
vt 0.207966 0.458536
vt 0.221861 0.478659
vt 0.207966 0.554106
vt 0.211669 0.536125
vt 0.953840 0.007165
vt 0.960570 0.026267
vt 0.953169 0.029792
vt 0.961182 0.057635
vt 0.953802 0.057893
vt 0.953004 0.088046
vt 0.960419 0.091293
vt 0.953820 0.112456
vt 0.761847 0.320393
vt 0.764457 0.342691
vt 0.750390 0.320345
vt 0.764457 0.236093
vt 0.761893 0.256069
vt 0.750436 0.256021
vt 0.756791 0.287065
vt 0.745334 0.287017
vt 0.532231 0.500705
vt 0.512331 0.531027
vt 0.509411 0.502260
vt 0.512304 0.406017
vt 0.532033 0.433097
vt 0.509411 0.432155
vt 0.510000 0.466076
vt 0.579805 0.498255
vt 0.536507 0.527059
vt 0.535385 0.408729
vt 0.579439 0.434505
vt 0.531943 0.465711
vt 0.601559 0.490150
vt 0.583652 0.521180
vt 0.582837 0.413428
vt 0.601320 0.442702
vt 0.580146 0.464871
vt 0.599839 0.464589
vt 0.614368 0.463352
vt 0.615882 0.423794
vt 0.631829 0.462026
vt 0.522154 0.391165
vt 0.548615 0.375034
vt 0.592884 0.395726
vt 0.523513 0.543573
vt 0.549652 0.559504
vt 0.616103 0.510041
vt 0.593703 0.539000
vt 0.830550 0.675858
vt 0.832657 0.682620
vt 0.825624 0.684182
vt 0.844234 0.735596
vt 0.840922 0.778549
vt 0.834150 0.780376
vt 0.821008 0.644405
vt 0.830826 0.666652
vt 0.825267 0.670009
vt 0.831174 0.812786
vt 0.853993 0.856422
vt 0.850527 0.860426
vt 0.840151 0.691287
vt 0.839966 0.707147
vt 0.833118 0.692849
vt 0.667880 0.796473
vt 0.672830 0.839289
vt 0.660983 0.794942
vt 0.671722 0.725353
vt 0.656306 0.762685
vt 0.667492 0.722165
vt 0.847982 0.556807
vt 0.845472 0.565717
vt 0.841175 0.560779
vt 0.837304 0.811412
vt 0.821610 0.611498
vt 0.826145 0.642650
vt 0.852081 0.551059
vt 0.845827 0.547378
vt 0.662532 0.763814
vt 0.834376 0.585481
vt 0.830038 0.582009
vt 0.669823 0.867844
vt 0.670519 0.884033
vt 0.663371 0.882777
vt 0.851471 0.733965
vt 0.680186 0.840605
vt 0.663454 0.893053
vt 0.656306 0.891797
vt 0.786180 0.489600
vt 0.756620 0.459160
vt 0.795618 0.469115
vt 0.795783 0.384031
vt 0.761482 0.405216
vt 0.756939 0.389575
vt 0.801376 0.435650
vt 0.800816 0.403666
vt 0.760577 0.431013
vt 0.748985 0.475116
vt 0.733975 0.450707
vt 0.737126 0.410512
vt 0.728725 0.394383
vt 0.736471 0.428943
vt 0.724126 0.427126
vt 0.713271 0.425344
vt 0.723232 0.466479
vt 0.782203 0.354198
vt 0.746102 0.376684
vt 0.767717 0.514041
vt 0.736661 0.487183
vt 0.582511 0.599380
vt 0.613985 0.570032
vt 0.622276 0.590737
vt 0.621598 0.671625
vt 0.586697 0.649786
vt 0.626319 0.652274
vt 0.626319 0.622461
vt 0.559738 0.607747
vt 0.574812 0.584304
vt 0.581684 0.664544
vt 0.562805 0.644851
vt 0.586219 0.625624
vt 0.562900 0.627604
vt 0.551110 0.629576
vt 0.540570 0.631526
vt 0.604755 0.699561
vt 0.570746 0.678132
vt 0.553374 0.660446
vt 0.592909 0.546673
vt 0.548060 0.593294
vt 0.562305 0.572362
vt 0.734039 0.491878
vt 0.709723 0.428694
vt 0.744296 0.371600
vt 0.710038 0.421713
vt 0.719019 0.468633
vt 0.724784 0.391350
vt 0.790491 0.492401
vt 0.800611 0.381700
vt 0.805771 0.404409
vt 0.800523 0.469548
vt 0.197814 0.458494
vt 0.197814 0.554064
vt 0.961573 0.001953
vt 0.961573 0.117638
vt 0.775914 0.342739
vt 0.775914 0.236141
vt 0.837266 0.674500
vt 0.846999 0.705586
vt 0.853993 0.560199
vt 0.826320 0.612448
vt 0.676970 0.869100
vt 0.765611 0.519836
vt 0.781227 0.348098
vt 0.771469 0.518797
vt 0.787030 0.350196
vt 0.805771 0.436368
s 1
usemtl Warrior_Texture
f 9/1/1 3/2/2 10/3/3
f 5/4/4 8/5/5 7/6/6
f 7/6/6 3/2/2 4/7/7
f 6/8/8 10/3/3 1/9/8
f 1/9/9 15/10/10 11/11/11
f 10/3/12 13/12/13 15/10/10
f 8/5/14 13/12/13 3/2/15
f 2/13/16 14/14/17 8/5/14
f 12/15/18 19/16/19 14/14/20
f 11/11/21 20/17/22 16/18/21
f 15/10/23 18/19/24 20/17/22
f 14/14/20 18/19/24 13/12/25
f 17/20/26 24/21/27 19/16/28
f 16/18/29 25/22/30 21/23/31
f 18/19/32 25/22/30 20/17/33
f 18/19/32 24/21/27 23/24/34
f 22/25/35 29/26/36 24/21/27
f 21/23/31 30/27/37 26/28/38
f 23/24/34 30/27/37 25/22/30
f 23/24/34 29/26/36 28/29/39
f 29/26/36 32/30/40 34/31/41
f 26/28/38 35/32/42 31/33/43
f 28/29/39 35/32/42 30/27/37
f 28/29/39 34/31/41 33/34/44
f 33/34/44 37/35/45 35/32/42
f 35/32/42 36/36/46 31/33/43
f 37/35/45 33/34/44 34/31/41
f 36/36/46 34/31/41 32/30/40
f 21/23/47 38/37/48 16/18/49
f 26/28/38 40/38/50 21/23/47
f 26/28/38 31/33/43 42/39/51
f 22/25/52 39/40/53 41/41/54
f 27/42/55 41/41/54 43/43/56
f 32/30/40 27/42/55 43/43/56
f 52/44/57 46/45/58 47/46/59
f 51/47/60 48/48/61 50/49/62
f 46/45/58 50/49/62 47/46/59
f 49/50/63 53/51/64 52/44/57
f 44/52/65 58/53/66 53/54/67
f 53/54/67 56/55/68 46/56/69
f 56/55/68 51/57/70 46/56/69
f 57/58/71 45/59/72 51/57/70
f 62/60/73 55/61/74 57/62/75
f 54/63/76 63/64/77 58/65/78
f 58/65/78 61/66/79 56/67/80
f 61/66/79 57/62/75 56/67/80
f 67/68/81 60/69/82 62/70/83
f 59/71/84 68/72/85 63/73/86
f 68/72/85 61/74/87 63/73/86
f 61/74/87 67/68/81 62/70/83
f 72/75/88 65/76/89 67/68/81
f 64/77/90 73/78/91 68/72/85
f 73/78/91 66/79/92 68/72/85
f 66/79/92 72/75/88 67/68/81
f 77/80/93 70/81/94 72/75/88
f 69/82/95 78/83/96 73/78/91
f 78/83/96 71/84/97 73/78/91
f 71/84/97 77/80/93 72/75/88
f 76/85/98 78/83/96 80/86/99
f 74/87/100 80/86/99 78/83/96
f 80/86/99 77/80/93 76/85/98
f 79/88/101 77/80/93 80/86/99
f 81/89/102 64/77/103 59/71/104
f 83/90/105 69/82/95 64/77/103
f 69/82/95 85/91/106 74/87/100
f 65/76/107 82/92/108 60/69/109
f 70/81/94 84/93/110 65/76/107
f 75/94/111 86/95/112 70/81/94
f 2/96/113 55/97/74 12/98/114
f 41/99/115 86/100/116 43/101/117
f 7/102/118 48/103/119 5/104/120
f 32/105/121 79/106/122 36/107/123
f 60/108/124 39/109/53 17/110/125
f 48/103/119 2/96/113 5/104/120
f 85/111/126 40/112/127 42/113/128
f 79/114/122 31/115/129 36/116/123
f 1/117/130 49/118/131 6/119/132
f 43/101/117 75/120/133 32/105/121
f 4/121/134 50/122/135 7/102/118
f 54/123/76 1/117/130 11/124/136
f 74/125/137 42/113/128 31/115/129
f 52/126/138 4/121/134 9/127/139
f 49/118/131 9/127/139 6/119/132
f 38/128/48 59/129/140 16/130/49
f 55/97/74 17/110/125 12/98/114
f 39/109/53 84/131/141 41/99/54
f 83/132/142 38/128/48 40/112/50
f 16/130/49 54/133/76 11/134/136
f 88/135/143 95/136/144 90/137/145
f 87/138/146 96/139/147 92/140/148
f 89/141/149 96/139/147 91/142/150
f 89/141/149 95/136/144 94/143/151
f 93/144/152 100/145/153 95/136/144
f 92/140/148 101/146/154 97/147/155
f 94/143/151 101/146/154 96/139/147
f 94/143/151 100/145/153 99/148/156
f 99/148/156 103/149/157 101/146/154
f 101/146/154 102/150/158 97/147/155
f 103/149/157 99/148/156 100/145/153
f 102/150/158 100/145/153 98/151/159
f 92/140/148 104/152/160 87/138/146
f 92/140/148 97/147/155 106/153/161
f 93/144/152 105/154/162 107/155/163
f 98/151/159 93/144/152 107/155/163
f 116/156/164 109/157/165 111/158/166
f 108/159/167 117/160/168 112/161/169
f 117/160/168 110/162/170 112/161/169
f 110/162/170 116/156/164 111/158/166
f 121/163/171 114/164/172 116/156/164
f 113/165/173 122/166/174 117/160/168
f 122/166/174 115/167/175 117/160/168
f 115/167/175 121/163/171 116/156/164
f 120/168/176 122/166/174 124/169/177
f 122/166/174 123/170/178 124/169/177
f 124/169/177 121/163/171 120/168/176
f 123/170/178 121/163/171 124/169/177
f 125/171/179 113/165/173 108/159/167
f 113/165/173 127/172/180 118/173/181
f 114/164/172 126/174/182 109/157/165
f 119/175/183 128/176/184 114/164/172
f 105/154/185 128/177/186 107/155/187
f 98/151/188 123/178/189 102/150/190
f 127/179/191 104/152/192 106/153/193
f 123/180/189 97/147/194 102/150/190
f 107/155/187 119/181/195 98/151/188
f 118/182/196 106/153/193 97/147/194
f 109/183/197 105/154/198 88/135/199
f 90/137/200 109/183/197 88/135/199
f 104/152/201 108/184/202 87/138/203
f 108/184/202 91/142/204 87/138/203
f 112/185/205 89/141/206 91/142/204
f 89/141/206 111/186/207 90/137/200
f 9/1/1 4/7/7 3/2/2
f 5/4/4 2/13/4 8/5/5
f 7/6/6 8/5/5 3/2/2
f 6/8/8 9/1/1 10/3/3
f 1/9/9 10/3/12 15/10/10
f 10/3/12 3/2/15 13/12/13
f 8/5/14 14/14/17 13/12/13
f 2/13/16 12/15/208 14/14/17
f 12/15/18 17/20/18 19/16/19
f 11/11/21 15/10/23 20/17/22
f 15/10/23 13/12/25 18/19/24
f 14/14/20 19/16/19 18/19/24
f 17/20/26 22/25/35 24/21/27
f 16/18/29 20/17/33 25/22/30
f 18/19/32 23/24/34 25/22/30
f 18/19/32 19/16/28 24/21/27
f 22/25/35 27/42/55 29/26/36
f 21/23/31 25/22/30 30/27/37
f 23/24/34 28/29/39 30/27/37
f 23/24/34 24/21/27 29/26/36
f 29/26/36 27/42/55 32/30/40
f 26/28/38 30/27/37 35/32/42
f 28/29/39 33/34/44 35/32/42
f 28/29/39 29/26/36 34/31/41
f 35/32/42 37/35/45 36/36/46
f 36/36/46 37/35/45 34/31/41
f 21/23/47 40/38/50 38/37/48
f 26/28/38 42/39/51 40/38/50
f 22/25/52 17/20/125 39/40/53
f 27/42/55 22/25/52 41/41/54
f 52/44/57 53/51/64 46/45/58
f 51/47/60 45/187/61 48/48/61
f 46/45/58 51/47/60 50/49/62
f 49/50/63 44/188/63 53/51/64
f 44/52/65 54/189/209 58/53/66
f 53/54/67 58/53/66 56/55/68
f 56/55/68 57/58/71 51/57/70
f 57/58/71 55/190/210 45/59/72
f 62/60/73 60/191/124 55/61/74
f 54/63/76 59/192/140 63/64/77
f 58/65/78 63/64/77 61/66/79
f 61/66/79 62/60/73 57/62/75
f 67/68/81 65/76/89 60/69/82
f 59/71/84 64/77/90 68/72/85
f 68/72/85 66/79/92 61/74/87
f 61/74/87 66/79/92 67/68/81
f 72/75/88 70/81/94 65/76/89
f 64/77/90 69/82/95 73/78/91
f 73/78/91 71/84/97 66/79/92
f 66/79/92 71/84/97 72/75/88
f 77/80/93 75/94/111 70/81/94
f 69/82/95 74/87/100 78/83/96
f 78/83/96 76/85/98 71/84/97
f 71/84/97 76/85/98 77/80/93
f 74/87/100 79/88/101 80/86/99
f 79/88/101 75/94/111 77/80/93
f 81/89/102 83/90/105 64/77/103
f 83/90/105 85/91/106 69/82/95
f 65/76/107 84/93/110 82/92/108
f 70/81/94 86/95/112 84/93/110
f 2/96/113 45/193/211 55/97/74
f 41/99/115 84/131/212 86/100/116
f 7/102/118 50/122/135 48/103/119
f 32/105/121 75/120/133 79/106/122
f 60/108/124 82/194/213 39/109/53
f 48/103/119 45/193/211 2/96/113
f 85/111/126 83/132/214 40/112/127
f 79/114/122 74/125/137 31/115/129
f 1/117/130 44/195/215 49/118/131
f 43/101/117 86/100/116 75/120/133
f 4/121/134 47/196/216 50/122/135
f 54/123/76 44/195/215 1/117/130
f 74/125/137 85/111/126 42/113/128
f 52/126/138 47/196/216 4/121/134
f 49/118/131 52/126/138 9/127/139
f 38/128/48 81/197/217 59/129/140
f 55/97/74 60/108/124 17/110/125
f 39/109/53 82/194/213 84/131/141
f 83/132/142 81/197/217 38/128/48
f 16/130/49 59/129/140 54/133/76
f 88/135/143 93/144/152 95/136/144
f 87/138/146 91/142/150 96/139/147
f 89/141/149 94/143/151 96/139/147
f 89/141/149 90/137/145 95/136/144
f 93/144/152 98/151/159 100/145/153
f 92/140/148 96/139/147 101/146/154
f 94/143/151 99/148/156 101/146/154
f 94/143/151 95/136/144 100/145/153
f 101/146/154 103/149/157 102/150/158
f 102/150/158 103/149/157 100/145/153
f 92/140/148 106/153/161 104/152/160
f 93/144/152 88/135/143 105/154/162
f 116/156/164 114/164/172 109/157/165
f 108/159/167 113/165/173 117/160/168
f 117/160/168 115/167/175 110/162/170
f 110/162/170 115/167/175 116/156/164
f 121/163/171 119/175/183 114/164/172
f 113/165/173 118/173/181 122/166/174
f 122/166/174 120/168/176 115/167/175
f 115/167/175 120/168/176 121/163/171
f 122/166/174 118/173/181 123/170/178
f 123/170/178 119/175/183 121/163/171
f 125/171/179 127/172/180 113/165/173
f 114/164/172 128/176/184 126/174/182
f 105/154/185 126/198/218 128/177/186
f 98/151/188 119/181/195 123/178/189
f 127/179/191 125/199/219 104/152/192
f 123/180/189 118/182/196 97/147/194
f 107/155/187 128/177/186 119/181/195
f 118/182/196 127/179/191 106/153/193
f 109/183/197 126/200/220 105/154/198
f 90/137/200 111/186/207 109/183/197
f 104/152/201 125/201/221 108/184/202
f 108/184/202 112/185/205 91/142/204
f 112/185/205 110/202/222 89/141/206
f 89/141/206 110/202/222 111/186/207
