# Blender 4.1.0
# www.blender.org
mtllib WizardPouch.mtl
o WizardPouch
v 0.317156 1.183026 0.196114
v 0.279437 1.299900 0.181605
v 0.239519 1.146809 0.161979
v 0.193627 1.284762 0.150147
v 0.424616 1.203938 0.023133
v 0.381608 1.319783 0.017138
v 0.363367 1.170910 -0.037383
v 0.317475 1.308862 -0.049215
v 0.283583 1.154530 0.211599
v 0.235074 1.310207 0.193121
v 0.426338 1.182310 -0.018198
v 0.370803 1.336620 -0.025367
v 0.282337 1.307814 0.204479
v 0.190225 1.286639 0.148949
v 0.403023 1.331300 0.010206
v 0.314683 1.310859 -0.051396
v 0.422337 1.287548 0.010122
v 0.196997 1.250089 0.155743
v 0.229334 1.316476 0.198270
v 0.372793 1.344393 -0.032661
v 0.295624 1.262890 0.214095
v 0.198041 1.294781 0.104396
v 0.279288 1.310592 -0.026390
v 0.390977 1.343978 0.044963
v 0.306403 1.327520 0.181104
v 0.342769 1.354939 0.006108
v 0.249118 1.336715 0.156860
v 0.327671 1.275519 -0.054605
v 0.242580 1.265967 0.208467
v 0.393203 1.295278 -0.033994
v 0.210275 1.245267 0.110583
v 0.295579 1.261867 -0.026733
v 0.422482 1.264245 0.050135
v 0.333685 1.246965 0.193075
v 0.384267 1.237018 0.123199
v 0.252927 1.253567 0.041925
v 0.295943 1.345827 0.081484
v 0.348690 1.335749 0.113033
v 0.238665 1.302686 0.039003
v 0.385019 1.211717 0.140129
v 0.363166 1.278758 0.134658
v 0.402479 1.215115 0.112024
v 0.380625 1.282156 0.106553
v 0.403158 1.191095 0.109543
v 0.385699 1.187697 0.137648
v 0.372861 1.162695 0.125528
v 0.390320 1.166092 0.097423
v 0.428164 1.270031 0.011624
v 0.201468 1.236649 0.156896
v 0.301451 1.245372 0.215598
v 0.332142 1.262078 -0.053453
v 0.248408 1.248449 0.209970
v 0.399030 1.277761 -0.032492
v 0.214746 1.231827 0.111736
v 0.300050 1.248427 -0.025580
v 0.428310 1.246727 0.051637
v 0.339512 1.229447 0.194577
v 0.390094 1.219500 0.124701
v 0.257398 1.240127 0.043078
v 0.363581 1.255421 0.149890
v 0.396827 1.261891 0.096373
v 0.412857 1.216829 0.100884
v 0.379612 1.210359 0.154401
v 0.394441 1.254750 0.104415
v 0.370410 1.250073 0.143099
v 0.406029 1.222177 0.107675
v 0.381997 1.217500 0.146359
v 0.392287 1.259931 0.093316
v 0.359041 1.253462 0.146832
v 0.406229 1.214063 0.096432
v 0.372983 1.207594 0.149949
v 0.389612 1.252679 0.101164
v 0.365580 1.248002 0.139848
v 0.399690 1.219523 0.103417
v 0.375658 1.214847 0.142101
v 0.396834 1.221077 0.134339
v 0.382391 1.237724 0.127379
v 0.401642 1.222013 0.126600
v 0.387199 1.238660 0.119640
v 0.379041 1.233297 0.124763
v 0.397408 1.214032 0.133844
v 0.383849 1.234233 0.117023
v 0.402216 1.214967 0.126104
v 0.184858 1.305642 0.186942
v 0.354253 1.287473 -0.058069
v 0.335477 1.334953 -0.055515
v 0.196112 1.256699 0.196494
v 0.205662 1.326790 0.143474
v 0.303988 1.345924 -0.014802
v 0.254825 1.336357 0.064336
v 0.360042 1.270069 -0.056576
v 0.201902 1.239295 0.197987
v 0.193966 1.300064 0.183021
v 0.392812 1.165130 -0.039548
v 0.242972 1.135971 0.201653
v 0.336432 1.327788 -0.046310
v 0.328932 1.136386 0.017210
v 0.275894 1.126130 0.102590
v 0.222026 1.291096 0.087237
v 0.275272 1.301446 0.001765
v 0.411517 1.183888 0.075532
v 0.360301 1.173517 0.158698
v 0.316900 1.309171 0.144392
v 0.365103 1.318472 0.065877
v 0.336360 1.132154 0.145246
v 0.392812 1.143592 0.054115
v 0.291407 1.319026 0.026168
v 0.240393 1.309099 0.108286
v 0.299597 1.112634 0.130093
v 0.356484 1.124160 0.038261
v 0.351374 1.140894 0.111366
v 0.368833 1.144291 0.083261
vn -0.8318 0.0861 0.5483
vn -0.8245 -0.5345 -0.1858
vn -0.5065 -0.6432 0.5742
vn -0.4764 0.2234 -0.8504
vn -0.5303 0.8082 -0.2561
vn 0.0336 0.3403 -0.9397
vn 0.8825 -0.2428 -0.4029
vn 0.9351 0.3461 0.0758
vn 0.9885 0.0715 0.1336
vn 0.7242 0.3032 0.6194
vn 0.5535 -0.0124 0.8328
vn 0.7555 -0.1640 0.6342
vn 0.6835 -0.7221 0.1072
vn 0.9206 -0.1310 0.3678
vn 0.5134 -0.7411 0.4327
vn 0.2189 -0.3555 0.9087
vn -0.3470 -0.4498 -0.8230
vn 0.1831 -0.9632 -0.1968
vn -0.4507 -0.7043 -0.5484
vn 0.3024 -0.5369 -0.7876
vn -0.0253 -0.9929 0.1164
vn 0.7426 0.2368 -0.6265
vn 0.4494 0.2475 0.8584
vn 0.0462 0.9968 -0.0654
vn 0.7682 0.6218 -0.1525
vn 0.4506 0.7357 -0.5057
vn 0.6797 0.2379 -0.6938
vn -0.6225 0.7815 -0.0419
vn -0.1893 0.6320 0.7515
vn -0.1120 0.9649 0.2375
vn 0.1429 0.5001 0.8541
vn 0.3787 0.7325 0.5657
vn -0.0674 0.9946 0.0784
vn 0.5933 0.7742 0.2203
vn -0.4116 0.8380 -0.3583
vn -0.4916 0.8468 -0.2030
vn -0.0891 0.5563 -0.8262
vn -0.4782 0.1381 -0.8673
vn -0.6961 -0.2546 -0.6713
vn -0.7362 0.2043 -0.6452
vn -0.7978 -0.2869 -0.5303
vn -0.8437 0.1934 -0.5007
vn 0.2313 0.2065 0.9507
vn 0.6774 0.3011 0.6712
vn -0.9874 -0.0028 -0.1583
vn -0.7750 -0.1212 0.6203
vn -0.8121 0.3832 0.4400
vn 0.9251 0.3415 -0.1661
vn -0.1791 0.0929 0.9794
vn 0.5014 0.7651 0.4040
vn 0.7869 0.3201 0.5275
vn -0.8766 -0.2905 -0.3837
vn -0.9588 -0.2624 -0.1089
vn 0.1988 0.0654 -0.9779
vn 0.8672 0.3380 0.3656
vn -0.9143 0.1530 -0.3749
vn 0.8338 0.1377 0.5346
vn 0.7931 0.3017 0.5291
vn 0.8236 -0.3115 0.4740
vn 0.6660 -0.6675 0.3331
vn 0.8248 -0.3061 0.4754
vn -0.6944 -0.2876 -0.6597
vn -0.7909 -0.3084 -0.5286
vn -0.3436 -0.1931 -0.9191
vn -0.7304 -0.1866 0.6571
vn -0.9407 -0.3221 -0.1066
vn 0.3353 0.1907 0.9226
vn 0.7152 0.2923 0.6349
vn 0.2444 -0.0019 -0.9697
vn 0.9485 0.3100 -0.0646
vn -0.8624 -0.3205 -0.3919
vn -0.1650 0.0297 0.9858
vn 0.7909 0.3084 0.5286
vn 0.8529 0.3192 0.4132
vn 0.7164 0.1805 -0.6739
vn 0.3414 -0.4109 0.8454
vn 0.9668 0.0479 0.2508
vn -0.0454 0.6751 0.7363
vn 0.6514 -0.0135 0.7586
vn 0.5604 0.7930 -0.2389
vn 0.9473 -0.2930 -0.1300
vn 0.7658 0.6131 0.1940
vn 0.4502 0.5516 0.7022
vn -0.9412 0.3077 0.1396
vn -0.6632 0.0596 -0.7461
vn -0.5807 -0.7824 0.2249
vn -0.7965 -0.5743 -0.1892
vn -0.3316 0.4263 -0.8416
vn -0.9660 0.0008 -0.2587
vn 0.0227 -0.6650 -0.7465
vn -0.4638 -0.5095 -0.7247
vn 0.9225 0.3617 -0.1345
vn -0.3464 0.7553 0.5563
vn 0.2559 0.2319 0.9385
vn -0.9953 -0.0799 0.0553
vn 0.6192 -0.7041 -0.3475
vn 0.0452 -0.8158 0.5766
vn -0.3891 0.0381 -0.9204
vn 0.2571 0.8728 -0.4149
vn -0.3581 -0.1251 -0.9253
vn -0.7872 0.3175 -0.5287
vn 0.8437 0.3277 0.4252
vn -0.9641 0.1412 -0.2250
vn -0.5665 0.7942 -0.2199
vn -0.8540 0.2978 -0.4267
vn -0.6235 -0.7072 -0.3335
vn 0.5897 -0.7595 0.2745
vn 0.6667 -0.6665 0.3336
vn -0.0350 0.1070 0.9936
vt 0.691090 0.487455
vt 0.739040 0.508168
vt 0.730319 0.511432
vt 0.863641 0.856621
vt 0.854490 0.878808
vt 0.856346 0.853395
vt 0.725997 0.588759
vt 0.682154 0.592825
vt 0.716965 0.580922
vt 0.675504 0.537812
vt 0.714141 0.528899
vt 0.716335 0.542626
vt 0.733807 0.568135
vt 0.718349 0.566713
vt 0.731638 0.539558
vt 0.722298 0.520627
vt 0.740875 0.599771
vt 0.746851 0.567485
vt 0.755823 0.572786
vt 0.736520 0.594613
vt 0.744301 0.533748
vt 0.683150 0.609562
vt 0.681411 0.517194
vt 0.731229 0.827785
vt 0.747103 0.834938
vt 0.733637 0.840217
vt 0.740129 0.851804
vt 0.710237 0.782193
vt 0.721463 0.770342
vt 0.723100 0.783471
vt 0.735963 0.771352
vt 0.740546 0.780867
vt 0.727250 0.805666
vt 0.747700 0.824437
vt 0.718778 0.829110
vt 0.712855 0.806183
vt 0.722047 0.841683
vt 0.713983 0.842076
vt 0.696111 0.841763
vt 0.706465 0.832238
vt 0.684463 0.813643
vt 0.699740 0.811172
vt 0.743299 0.761108
vt 0.758881 0.767907
vt 0.700856 0.775382
vt 0.706316 0.759153
vt 0.710142 0.770006
vt 0.758809 0.840913
vt 0.724439 0.757223
vt 0.746333 0.802052
vt 0.776565 0.795108
vt 0.684373 0.783728
vt 0.693406 0.768116
vt 0.722066 0.854175
vt 0.771805 0.828023
vt 0.698387 0.788482
vt 0.346132 0.022759
vt 0.355994 0.001989
vt 0.355917 0.022795
vt 0.346106 0.029865
vt 0.355578 0.038900
vt 0.355891 0.029901
vt 0.692658 0.844244
vt 0.680214 0.814384
vt 0.708930 0.855484
vt 0.705039 0.754288
vt 0.690341 0.765390
vt 0.747065 0.757363
vt 0.763582 0.765137
vt 0.722245 0.859375
vt 0.764121 0.842812
vt 0.680214 0.782700
vt 0.726145 0.752295
vt 0.782165 0.793660
vt 0.777494 0.828084
vt 0.743391 0.855936
vt 0.386182 0.018901
vt 0.388354 0.028917
vt 0.385556 0.031147
vt 0.366518 0.002295
vt 0.369364 0.017785
vt 0.367083 0.018504
vt 0.387613 0.002328
vt 0.388526 0.018376
vt 0.369989 0.028517
vt 0.367356 0.031004
vt 0.392499 0.031527
vt 0.391410 0.018420
vt 0.393685 0.019186
vt 0.371593 0.017605
vt 0.372150 0.001953
vt 0.373933 0.018036
vt 0.391708 0.004917
vt 0.393685 0.002732
vt 0.372187 0.028494
vt 0.375101 0.030552
vt 0.390029 0.029047
vt 0.370401 0.004259
vt 0.368559 0.004339
vt 0.383694 0.031217
vt 0.364634 0.002280
vt 0.389359 0.004705
vt 0.383475 0.018710
vt 0.365192 0.018560
vt 0.046433 0.006561
vt 0.039679 0.003755
vt 0.046477 0.003867
vt 0.039785 0.010946
vt 0.047964 0.007976
vt 0.048054 0.010669
vt 0.064991 0.001953
vt 0.063185 0.004648
vt 0.063185 0.001953
vt 0.039695 0.008253
vt 0.039634 0.006449
vt 0.055849 0.001953
vt 0.053765 0.004648
vt 0.053765 0.001953
vt 0.039799 0.001953
vt 0.710848 0.851827
vt 0.690687 0.622090
vt 0.864044 0.875998
vt 0.907016 0.855690
vt 0.915280 0.875899
vt 0.675711 0.573730
vt 0.864108 0.925688
vt 0.854806 0.907686
vt 0.864298 0.905413
vt 0.907269 0.925941
vt 0.915280 0.906006
vt 0.755823 0.531273
vt 0.346210 0.048777
vt 0.345794 0.038864
vt 0.701109 0.481273
vt 0.682571 0.500301
vt 0.346210 0.001953
vt 0.384940 0.001953
vt 0.364634 0.031302
vt 0.064991 0.004648
vt 0.055849 0.004648
vt 0.048054 0.002504
vt 0.699417 0.626004
vt 0.857410 0.933981
vt 0.355994 0.048813
s 1
usemtl Wizard_Texture
f 93/1/1 3/2/2 95/3/3
f 8/4/4 107/5/5 96/6/6
f 11/7/7 6/8/8 5/9/9
f 103/10/10 1/11/11 102/12/12
f 106/13/13 5/9/9 101/14/14
f 105/15/15 1/11/11 9/16/16
f 7/17/17 110/18/18 97/19/19
f 94/20/20 106/13/13 110/18/18
f 109/21/21 9/16/16 95/3/3
f 94/20/20 12/22/22 11/7/7
f 2/23/23 9/16/16 1/11/11
f 26/24/24 15/25/25 20/26/26
f 15/25/25 30/27/27 20/26/26
f 88/28/28 19/29/29 27/30/30
f 27/30/30 13/31/31 25/32/32
f 37/33/33 24/34/34 26/24/24
f 37/33/33 89/35/35 90/36/36
f 86/37/37 26/24/24 20/26/26
f 16/38/38 32/39/39 23/40/40
f 23/40/40 36/41/41 39/42/42
f 25/32/32 21/43/43 34/44/44
f 14/45/45 87/46/46 84/47/47
f 24/34/34 17/48/48 15/25/25
f 13/31/31 29/49/49 21/43/43
f 38/50/50 34/44/44 35/51/51
f 14/45/45 31/52/52 18/53/53
f 20/26/26 85/54/54 86/37/37
f 38/50/50 33/55/55 24/34/34
f 22/56/56 36/41/41 31/52/52
f 27/30/30 90/36/36 88/28/28
f 25/32/32 37/33/33 27/30/30
f 42/57/57 41/58/58 40/59/57
f 40/59/57 44/60/59 42/57/57
f 46/61/60 44/60/59 45/62/61
f 36/41/41 55/63/62 59/64/63
f 32/39/39 51/65/64 55/63/62
f 18/53/53 92/66/65 87/46/46
f 31/52/52 49/67/66 18/53/53
f 34/44/44 50/68/67 57/69/68
f 30/27/27 91/70/69 85/54/54
f 33/55/55 48/71/70 17/48/48
f 31/52/52 59/64/63 54/72/71
f 21/43/43 52/73/72 50/68/67
f 35/51/51 57/69/68 58/74/73
f 35/51/51 56/75/74 33/55/55
f 17/48/48 53/76/75 30/27/27
f 63/77/76 65/78/77 60/79/78
f 60/80/78 64/81/79 61/82/80
f 62/83/81 67/84/82 63/77/76
f 61/82/80 66/85/83 62/86/81
f 69/87/84 75/88/85 71/89/86
f 72/90/87 69/91/84 68/92/88
f 71/89/86 74/93/89 70/94/90
f 74/95/89 68/92/88 70/96/90
f 67/84/82 73/97/91 65/78/77
f 73/98/91 64/81/79 65/99/77
f 69/100/84 63/77/76 60/79/78
f 61/82/80 69/101/84 60/80/78
f 74/93/89 67/84/82 66/102/83
f 72/90/87 66/85/83 64/81/79
f 71/103/86 62/83/81 63/77/76
f 62/86/81 68/104/88 61/82/80
f 78/105/92 77/106/93 76/107/94
f 80/108/95 83/109/96 81/110/97
f 82/111/98 77/112/93 79/113/99
f 78/105/92 82/114/98 79/115/99
f 81/116/97 78/117/92 76/118/94
f 80/119/95 76/107/94 77/106/93
f 28/120/100 91/70/69 51/65/64
f 29/49/49 92/66/65 52/73/72
f 22/56/56 90/36/36 39/42/42
f 16/38/38 85/54/54 28/120/100
f 19/29/29 87/46/46 29/49/49
f 16/38/38 89/35/35 86/37/37
f 39/42/42 89/35/35 23/40/40
f 14/45/45 88/28/28 22/56/56
f 7/17/17 96/121/6 94/20/20
f 100/122/101 7/123/17 97/124/19
f 5/9/9 104/125/102 101/14/14
f 4/126/103 108/127/104 99/128/105
f 3/129/2 99/128/105 98/130/106
f 9/16/16 93/1/1 95/3/3
f 106/13/13 102/12/12 105/15/15
f 103/10/10 101/14/14 104/125/102
f 97/124/19 99/128/105 100/122/101
f 110/18/18 105/15/15 109/21/21
f 99/128/105 107/5/5 100/122/101
f 110/18/18 98/131/106 97/19/19
f 3/2/2 109/21/21 95/3/3
f 46/61/60 112/132/107 47/133/108
f 93/1/1 4/134/103 3/2/2
f 8/4/4 100/122/101 107/5/5
f 11/7/7 12/22/22 6/8/8
f 103/10/10 2/23/23 1/11/11
f 106/13/13 11/7/7 5/9/9
f 105/15/15 102/12/12 1/11/11
f 7/17/17 94/20/20 110/18/18
f 94/20/20 11/7/7 106/13/13
f 109/21/21 105/15/15 9/16/16
f 94/20/20 96/121/6 12/22/22
f 2/23/23 10/135/109 9/16/16
f 26/24/24 24/34/34 15/25/25
f 15/25/25 17/48/48 30/27/27
f 88/28/28 84/47/47 19/29/29
f 27/30/30 19/29/29 13/31/31
f 37/33/33 38/50/50 24/34/34
f 37/33/33 26/24/24 89/35/35
f 86/37/37 89/35/35 26/24/24
f 16/38/38 28/120/100 32/39/39
f 23/40/40 32/39/39 36/41/41
f 25/32/32 13/31/31 21/43/43
f 14/45/45 18/53/53 87/46/46
f 24/34/34 33/55/55 17/48/48
f 13/31/31 19/29/29 29/49/49
f 38/50/50 25/32/32 34/44/44
f 14/45/45 22/56/56 31/52/52
f 20/26/26 30/27/27 85/54/54
f 38/50/50 35/51/51 33/55/55
f 22/56/56 39/42/42 36/41/41
f 27/30/30 37/33/33 90/36/36
f 25/32/32 38/50/50 37/33/33
f 42/57/57 43/136/58 41/58/58
f 40/59/57 45/62/61 44/60/59
f 46/61/60 47/133/108 44/60/59
f 36/41/41 32/39/39 55/63/62
f 32/39/39 28/120/100 51/65/64
f 18/53/53 49/67/66 92/66/65
f 31/52/52 54/72/71 49/67/66
f 34/44/44 21/43/43 50/68/67
f 30/27/27 53/76/75 91/70/69
f 33/55/55 56/75/74 48/71/70
f 31/52/52 36/41/41 59/64/63
f 21/43/43 29/49/49 52/73/72
f 35/51/51 34/44/44 57/69/68
f 35/51/51 58/74/73 56/75/74
f 17/48/48 48/71/70 53/76/75
f 63/77/76 67/84/82 65/78/77
f 60/80/78 65/99/77 64/81/79
f 62/83/81 66/102/83 67/84/82
f 61/82/80 64/81/79 66/85/83
f 69/87/84 73/97/91 75/88/85
f 72/90/87 73/98/91 69/91/84
f 71/89/86 75/88/85 74/93/89
f 74/95/89 72/90/87 68/92/88
f 67/84/82 75/88/85 73/97/91
f 73/98/91 72/90/87 64/81/79
f 69/100/84 71/103/86 63/77/76
f 61/82/80 68/104/88 69/101/84
f 74/93/89 75/88/85 67/84/82
f 72/90/87 74/95/89 66/85/83
f 71/103/86 70/137/90 62/83/81
f 62/86/81 70/138/90 68/104/88
f 78/105/92 79/115/99 77/106/93
f 80/108/95 82/114/98 83/109/96
f 82/111/98 80/139/95 77/112/93
f 78/105/92 83/109/96 82/114/98
f 81/116/97 83/140/96 78/117/92
f 80/119/95 81/141/97 76/107/94
f 28/120/100 85/54/54 91/70/69
f 29/49/49 87/46/46 92/66/65
f 22/56/56 88/28/28 90/36/36
f 16/38/38 86/37/37 85/54/54
f 19/29/29 84/47/47 87/46/46
f 16/38/38 23/40/40 89/35/35
f 39/42/42 90/36/36 89/35/35
f 14/45/45 84/47/47 88/28/28
f 7/17/17 8/142/4 96/121/6
f 100/122/101 8/4/4 7/123/17
f 5/9/9 6/8/8 104/125/102
f 4/126/103 93/143/1 108/127/104
f 3/129/2 4/126/103 99/128/105
f 9/16/16 10/135/109 93/1/1
f 106/13/13 101/14/14 102/12/12
f 103/10/10 102/12/12 101/14/14
f 97/124/19 98/130/106 99/128/105
f 110/18/18 106/13/13 105/15/15
f 99/128/105 108/127/104 107/5/5
f 110/18/18 109/21/21 98/131/106
f 3/2/2 98/131/106 109/21/21
f 46/61/60 111/144/107 112/132/107
