# Blender 3.5.1
# www.blender.org
mtllib House_Door_Sphere.mtl
o House_Door_Sphere.004
v 0.389554 3.268806 1.588783
v 0.565545 3.174737 1.588783
v 0.719803 3.048142 1.588783
v 0.846398 2.893884 1.588783
v 0.940467 2.717894 1.588783
v 0.998395 2.526932 1.588783
v 0.998395 2.129746 1.588783
v 0.940468 1.938785 1.588783
v 0.846399 1.762794 1.588783
v 0.719803 1.608537 1.588783
v 0.565545 1.481941 1.588783
v 0.389555 1.387872 1.588783
v 0.198593 1.329944 1.588783
v 0.198593 3.326734 1.588783
v -0.198593 3.326734 1.588783
v -0.389554 3.268806 1.588783
v -0.565545 3.174737 1.588783
v -0.719802 3.048141 1.588783
v -0.846398 2.893884 1.588783
v -0.940467 2.717893 1.588783
v -0.998394 2.526932 1.588783
v -0.998394 2.129746 1.588783
v -0.940467 1.938785 1.588783
v -0.846398 1.762794 1.588783
v -0.719802 1.608537 1.588783
v -0.565545 1.481941 1.588783
v -0.389554 1.387872 1.588783
v -0.198593 1.329945 1.588783
v -1.014578 2.294064 1.588783
v -1.014578 2.362621 1.588783
v 1.014566 2.362751 1.588783
v 1.014566 2.293927 1.588783
v -0.032156 1.313552 1.588783
v 0.032156 1.313552 1.588783
v 0.032156 3.343126 1.588783
v -0.032156 3.343126 1.588783
v -1.014578 2.362621 1.524587
v -0.998394 2.526932 1.524587
v -1.014578 2.294064 1.524587
v 0.998395 2.526932 1.524587
v 1.014566 2.362751 1.524587
v -0.198593 1.329945 1.524587
v -0.389554 1.387872 1.524587
v 1.014566 2.293927 1.524587
v 0.998395 2.129746 1.524587
v -0.940467 2.717893 1.524587
v -0.846398 2.893884 1.524587
v -0.719802 3.048141 1.524587
v -0.565545 3.174737 1.524587
v -0.389554 3.268806 1.524587
v -0.198593 3.326734 1.524587
v -0.565545 1.481941 1.524587
v -0.719802 1.608537 1.524587
v -0.998394 2.129746 1.524587
v -0.846398 1.762794 1.524587
v -0.940467 1.938785 1.524587
v 0.198593 3.326734 1.524587
v 0.389554 3.268806 1.524587
v 0.565545 3.174737 1.524587
v 0.719803 3.048142 1.524587
v 0.846398 2.893884 1.524587
v 0.940467 2.717894 1.524587
v 0.940468 1.938785 1.524587
v 0.846399 1.762794 1.524587
v 0.719803 1.608537 1.524587
v 0.565545 1.481941 1.524587
v 0.389555 1.387872 1.524587
v 0.198593 1.329944 1.524587
v -0.032156 3.343126 1.524587
v 0.032156 3.343126 1.524587
v 0.032156 1.313552 1.524587
v -0.032156 1.313552 1.524587
vn -0.0000 -0.0000 1.0000
vn -0.0000 -0.0000 -1.0000
vn -0.9239 -0.3827 -0.0000
vn -0.8315 -0.5556 -0.0000
vn 0.9988 0.0491 -0.0000
vn 0.9808 0.1951 -0.0000
vn 0.1951 -0.9808 -0.0000
vn 0.3827 -0.9239 -0.0000
vn -0.9808 -0.1951 -0.0000
vn -0.3827 -0.9239 -0.0000
vn -0.1951 -0.9808 -0.0000
vn 0.0491 0.9988 -0.0000
vn -0.0491 0.9988 -0.0000
vn -0.9239 0.3827 -0.0000
vn -0.9808 0.1951 -0.0000
vn 0.9988 -0.0491 -0.0000
vn 0.3827 0.9239 -0.0000
vn 0.1951 0.9808 -0.0000
vn 0.9808 -0.1951 -0.0000
vn -0.0491 -0.9988 -0.0000
vn 0.0491 -0.9988 -0.0000
vn 0.5556 0.8315 -0.0000
vn -0.8315 0.5556 -0.0000
vn 0.7071 0.7071 -0.0000
vn -0.7071 0.7071 -0.0000
vn -0.1951 0.9808 -0.0000
vn 0.8315 0.5556 -0.0000
vn -0.5556 0.8315 -0.0000
vn 0.9239 0.3827 -0.0000
vn -0.3827 0.9239 -0.0000
vn 0.9239 -0.3827 -0.0000
vn -0.5556 -0.8315 -0.0000
vn 0.8315 -0.5556 -0.0000
vn -0.7071 -0.7071 -0.0000
vn 0.7071 -0.7071 -0.0000
vn -0.9988 -0.0491 -0.0000
vn -0.9988 0.0491 -0.0000
vn 0.5556 -0.8315 -0.0000
vt 0.016853 0.985527
vt 0.016853 0.985527
vt 0.016853 0.985527
vt 0.016853 0.985527
vt 0.016853 0.985527
vt 0.016853 0.985527
vt 0.016853 0.985527
vt 0.016853 0.985527
vt 0.016853 0.985527
vt 0.016853 0.985527
vt 0.016853 0.985527
vt 0.016853 0.985527
vt 0.016853 0.985527
vt 0.016853 0.985527
vt 0.016853 0.985527
vt 0.016853 0.985527
vt 0.016853 0.985527
vt 0.016853 0.985527
vt 0.016853 0.985527
vt 0.016853 0.985527
vt 0.016853 0.985527
vt 0.016853 0.985527
vt 0.016853 0.985527
vt 0.016853 0.985527
vt 0.016853 0.985527
vt 0.016853 0.985527
vt 0.016853 0.985527
vt 0.016853 0.985527
vt 0.016853 0.985527
vt 0.016853 0.985527
vt 0.016853 0.985527
vt 0.016853 0.985527
vt 0.108197 0.983165
vt 0.016853 0.985527
vt 0.016853 0.985527
vt 0.108197 0.983165
vt 0.108197 0.983165
vt 0.016853 0.985527
vt 0.016853 0.985527
vt 0.108197 0.983165
vt 0.016853 0.985527
vt 0.016853 0.985527
vt 0.016853 0.985527
vt 0.016853 0.985527
vt 0.016853 0.985527
vt 0.016853 0.985527
vt 0.016853 0.985527
vt 0.016853 0.985527
vt 0.016853 0.985527
vt 0.016853 0.985527
vt 0.016853 0.985527
vt 0.016853 0.985527
vt 0.016853 0.985527
vt 0.016853 0.985527
vt 0.016853 0.985527
vt 0.016853 0.985527
vt 0.016853 0.985527
vt 0.016853 0.985527
vt 0.016853 0.985527
vt 0.016853 0.985527
vt 0.016853 0.985527
vt 0.016853 0.985527
vt 0.016853 0.985527
vt 0.016853 0.985527
vt 0.016853 0.985527
vt 0.016853 0.985527
vt 0.016853 0.985527
vt 0.016853 0.985527
vt 0.016853 0.985527
vt 0.016853 0.985527
vt 0.016853 0.985527
vt 0.016853 0.985527
vt 0.108197 0.983165
vt 0.016853 0.985527
vt 0.108197 0.983165
vt 0.016853 0.985527
vt 0.108197 0.983165
vt 0.016853 0.985527
vt 0.108197 0.983165
vt 0.016853 0.985527
s 1
usemtl Atlas.014
f 11/11/1 5/5/1 1/1/1
f 36/40/1 34/36/1 35/37/1
f 23/23/1 15/15/1 19/19/1
f 58/62/2 45/49/2 66/70/2
f 71/77/2 69/73/2 70/75/2
f 47/51/2 43/47/2 56/60/2
f 56/60/3 24/24/4 23/23/3
f 41/45/5 6/6/6 31/31/5
f 68/72/7 12/12/8 13/13/7
f 54/58/9 23/23/3 22/22/9
f 43/47/10 28/28/11 27/27/10
f 70/75/12 36/40/13 35/37/12
f 46/50/14 21/21/15 20/20/14
f 44/48/16 31/31/5 32/32/16
f 58/62/17 14/14/18 1/1/17
f 45/49/19 32/32/16 7/7/19
f 72/79/20 34/36/21 33/33/20
f 59/63/22 1/1/17 2/2/22
f 47/51/23 20/20/14 19/19/23
f 60/64/24 2/2/22 3/3/24
f 48/52/25 19/19/23 18/18/25
f 69/74/13 15/15/26 36/39/13
f 61/65/27 3/3/24 4/4/27
f 49/53/28 18/18/25 17/17/28
f 42/46/11 33/34/20 28/28/11
f 62/66/29 4/4/27 5/5/29
f 51/55/26 16/16/30 15/15/26
f 71/78/21 13/13/7 34/35/21
f 40/44/6 5/5/29 6/6/6
f 50/54/30 17/17/28 16/16/30
f 57/61/18 35/38/12 14/14/18
f 63/67/31 7/7/19 8/8/31
f 52/56/32 27/27/10 26/26/32
f 64/68/33 8/8/31 9/9/33
f 53/57/34 26/26/32 25/25/34
f 65/69/35 9/9/33 10/10/35
f 39/43/36 22/22/9 29/29/36
f 38/42/15 30/30/37 21/21/15
f 66/70/38 10/10/35 11/11/38
f 55/59/4 25/25/34 24/24/4
f 37/41/37 29/29/36 30/30/37
f 67/71/8 11/11/38 12/12/8
f 35/38/1 34/35/1 13/13/1
f 13/13/1 12/12/1 11/11/1
f 11/11/1 10/10/1 9/9/1
f 9/9/1 8/8/1 7/7/1
f 7/7/1 32/32/1 31/31/1
f 31/31/1 6/6/1 5/5/1
f 5/5/1 4/4/1 3/3/1
f 3/3/1 2/2/1 1/1/1
f 1/1/1 14/14/1 35/38/1
f 35/38/1 13/13/1 11/11/1
f 11/11/1 9/9/1 7/7/1
f 7/7/1 31/31/1 5/5/1
f 5/5/1 3/3/1 1/1/1
f 1/1/1 35/38/1 11/11/1
f 11/11/1 7/7/1 5/5/1
f 36/40/1 33/33/1 34/36/1
f 21/21/1 30/30/1 29/29/1
f 29/29/1 22/22/1 23/23/1
f 23/23/1 24/24/1 25/25/1
f 25/25/1 26/26/1 27/27/1
f 27/27/1 28/28/1 33/34/1
f 33/34/1 36/39/1 15/15/1
f 15/15/1 16/16/1 17/17/1
f 17/17/1 18/18/1 19/19/1
f 19/19/1 20/20/1 21/21/1
f 21/21/1 29/29/1 23/23/1
f 23/23/1 25/25/1 27/27/1
f 27/27/1 33/34/1 15/15/1
f 15/15/1 17/17/1 19/19/1
f 19/19/1 21/21/1 23/23/1
f 23/23/1 27/27/1 15/15/1
f 68/72/2 71/78/2 70/76/2
f 70/76/2 57/61/2 58/62/2
f 58/62/2 59/63/2 60/64/2
f 60/64/2 61/65/2 62/66/2
f 62/66/2 40/44/2 41/45/2
f 41/45/2 44/48/2 45/49/2
f 45/49/2 63/67/2 64/68/2
f 64/68/2 65/69/2 66/70/2
f 66/70/2 67/71/2 68/72/2
f 68/72/2 70/76/2 58/62/2
f 58/62/2 60/64/2 62/66/2
f 62/66/2 41/45/2 45/49/2
f 45/49/2 64/68/2 66/70/2
f 66/70/2 68/72/2 58/62/2
f 58/62/2 62/66/2 45/49/2
f 71/77/2 72/79/2 69/73/2
f 39/43/2 37/41/2 38/42/2
f 38/42/2 46/50/2 47/51/2
f 47/51/2 48/52/2 49/53/2
f 49/53/2 50/54/2 51/55/2
f 51/55/2 69/74/2 72/80/2
f 72/80/2 42/46/2 43/47/2
f 43/47/2 52/56/2 53/57/2
f 53/57/2 55/59/2 56/60/2
f 56/60/2 54/58/2 39/43/2
f 39/43/2 38/42/2 47/51/2
f 47/51/2 49/53/2 51/55/2
f 51/55/2 72/80/2 43/47/2
f 43/47/2 53/57/2 56/60/2
f 56/60/2 39/43/2 47/51/2
f 47/51/2 51/55/2 43/47/2
f 56/60/3 55/59/4 24/24/4
f 41/45/5 40/44/6 6/6/6
f 68/72/7 67/71/8 12/12/8
f 54/58/9 56/60/3 23/23/3
f 43/47/10 42/46/11 28/28/11
f 70/75/12 69/73/13 36/40/13
f 46/50/14 38/42/15 21/21/15
f 44/48/16 41/45/5 31/31/5
f 58/62/17 57/61/18 14/14/18
f 45/49/19 44/48/16 32/32/16
f 72/79/20 71/77/21 34/36/21
f 59/63/22 58/62/17 1/1/17
f 47/51/23 46/50/14 20/20/14
f 60/64/24 59/63/22 2/2/22
f 48/52/25 47/51/23 19/19/23
f 69/74/13 51/55/26 15/15/26
f 61/65/27 60/64/24 3/3/24
f 49/53/28 48/52/25 18/18/25
f 42/46/11 72/80/20 33/34/20
f 62/66/29 61/65/27 4/4/27
f 51/55/26 50/54/30 16/16/30
f 71/78/21 68/72/7 13/13/7
f 40/44/6 62/66/29 5/5/29
f 50/54/30 49/53/28 17/17/28
f 57/61/18 70/76/12 35/38/12
f 63/67/31 45/49/19 7/7/19
f 52/56/32 43/47/10 27/27/10
f 64/68/33 63/67/31 8/8/31
f 53/57/34 52/56/32 26/26/32
f 65/69/35 64/68/33 9/9/33
f 39/43/36 54/58/9 22/22/9
f 38/42/15 37/41/37 30/30/37
f 66/70/38 65/69/35 10/10/35
f 55/59/4 53/57/34 25/25/34
f 37/41/37 39/43/36 29/29/36
f 67/71/8 66/70/38 11/11/38
