# Blender 3.5.1
# www.blender.org
mtllib Plant_2_CUBezierCurve.mtl
o Plant_2_CUBezierCurve.018
v -0.413061 -0.001774 0.304394
v -0.254743 -0.001774 0.200860
v 0.442447 1.960093 -0.121168
v 0.453550 1.913025 -0.134196
v 0.501980 1.925357 -0.137480
v 0.490878 1.972425 -0.124452
v 0.332599 1.824541 0.213312
v 0.351120 1.762283 0.184776
v 0.406042 1.758124 0.229494
v 0.387522 1.820383 0.258030
v 0.030426 1.655846 0.331581
v 0.067518 1.584200 0.287764
v 0.095951 1.549841 0.368013
v 0.058859 1.621487 0.411830
v -0.288717 1.496731 0.269881
v -0.213282 1.427021 0.223566
v -0.225523 1.356151 0.310298
v -0.300958 1.425860 0.356613
v -0.442637 1.392028 0.048358
v -0.318162 1.343686 0.049174
v -0.362449 1.230589 0.104665
v -0.486924 1.278931 0.103850
v -0.344406 1.265880 -0.339466
v -0.227728 1.254040 -0.251085
v -0.271535 1.119653 -0.211257
v -0.388213 1.131494 -0.299638
v -0.095673 1.124511 -0.514341
v -0.039513 1.155809 -0.367644
v -0.100679 1.017561 -0.314734
v -0.156839 0.986264 -0.461430
v 0.193669 0.977819 -0.505051
v 0.185780 1.050472 -0.347713
v 0.089962 0.917405 -0.291072
v 0.097851 0.844752 -0.448410
v 0.437247 0.812169 -0.354730
v 0.373981 0.935019 -0.229036
v 0.216711 0.835809 -0.211231
v 0.279977 0.712959 -0.336924
v 0.446657 0.619354 -0.013089
v 0.382168 0.790504 0.037284
v 0.222096 0.758650 -0.059417
v 0.286586 0.587500 -0.109790
v 0.147199 0.515844 0.228617
v 0.087863 0.693612 0.273100
v -0.015354 0.699825 0.110593
v 0.043982 0.522057 0.066109
v -0.107985 0.351599 0.345582
v -0.244917 0.459493 0.434119
v -0.344721 0.470503 0.266345
v -0.207789 0.362609 0.177808
v -0.152197 -0.001774 0.362746
v -0.310515 -0.001774 0.466280
v 0.096778 -0.001774 -0.409590
v 0.280515 -0.001774 -0.433721
v -0.489204 1.972425 -0.130880
v -0.445327 1.960093 -0.110116
v -0.461375 1.913024 -0.104160
v -0.505252 1.925357 -0.124924
v -0.186241 1.824541 -0.348481
v -0.216331 1.762283 -0.332609
v -0.242453 1.758124 -0.398440
v -0.212363 1.820383 -0.414312
v 0.135227 1.655846 -0.304278
v 0.081471 1.584200 -0.284129
v 0.095808 1.549841 -0.368051
v 0.149564 1.621487 -0.388200
v 0.383698 1.496731 -0.094703
v 0.295254 1.427022 -0.091082
v 0.348257 1.356151 -0.160817
v 0.436702 1.425860 -0.164438
v 0.409966 1.392028 0.173762
v 0.301712 1.343686 0.112316
v 0.367445 1.230589 0.085487
v 0.475699 1.278931 0.146933
v 0.134993 1.265880 0.464359
v 0.076269 1.254040 0.330283
v 0.133941 1.119653 0.316892
v 0.192664 1.131494 0.450968
v -0.167449 1.124511 0.495642
v -0.144893 1.155809 0.340191
v -0.065685 1.017561 0.323850
v -0.088242 0.986264 0.479301
v -0.415478 0.977819 0.346356
v -0.331823 1.050472 0.212867
v -0.220548 0.917405 0.210178
v -0.304204 0.844752 0.343666
v -0.554696 0.817401 0.101179
v -0.436031 0.938210 0.022331
v -0.292282 0.830577 0.073757
v -0.410947 0.709767 0.152605
v -0.434704 0.636501 -0.241144
v -0.341839 0.801862 -0.245708
v -0.227592 0.741537 -0.106794
v -0.320457 0.576176 -0.102229
v -0.119250 0.533462 -0.399892
v -0.029596 0.703933 -0.401511
v 0.019164 0.680044 -0.216706
v -0.070490 0.509573 -0.215087
v 0.102611 0.362634 -0.436038
v 0.276433 0.449041 -0.459485
v 0.302385 0.449424 -0.265689
v 0.128562 0.363016 -0.242242
v 0.305933 -0.001774 -0.243169
v 0.122197 -0.001774 -0.219037
vn -0.1257 0.2370 -0.9633
vn -0.3603 0.2370 0.9022
vn -0.6461 0.6424 -0.4121
vn 0.4348 0.5423 0.7190
vn 0.4964 0.8178 -0.2913
vn -0.2436 -0.6321 -0.7356
vn -0.3788 -0.4831 -0.7894
vn 0.7922 -0.5642 0.2326
vn 0.7349 -0.2138 -0.6435
vn -0.6312 0.7733 -0.0601
vn -0.0177 0.2742 0.9615
vn 0.1292 -0.3054 -0.9434
vn 0.5275 -0.7649 0.3697
vn -0.4528 0.8866 -0.0946
vn -0.4708 0.8644 -0.1767
vn 0.6029 0.0120 -0.7977
vn 0.3400 -0.8523 0.3975
vn -0.9034 -0.2992 0.3072
vn -0.5246 -0.0038 0.8513
vn 0.8709 0.4104 -0.2703
vn 0.2630 -0.8845 0.3852
vn -0.5551 0.8020 -0.2207
vn -0.8182 -0.5029 -0.2787
vn -0.4221 0.6677 -0.6132
vn 0.2436 -0.7532 0.6110
vn -0.5407 -0.6806 -0.4943
vn 0.6897 0.7022 0.1768
vn -0.0306 0.4449 -0.8951
vn -0.1047 -0.5077 0.8552
vn -0.3462 -0.7975 -0.4941
vn 0.4793 0.8221 0.3073
vn 0.3948 0.2460 -0.8852
vn -0.4509 -0.2545 0.8555
vn -0.2014 -0.8351 -0.5119
vn 0.4957 0.8152 0.2995
vn 0.3645 0.8762 0.3154
vn -0.8386 0.1170 0.5320
vn 0.8391 -0.0788 -0.5382
vn -0.1638 -0.8409 -0.5158
vn 0.8593 -0.4778 0.1826
vn -0.7969 0.5911 -0.1250
vn 0.6081 -0.6192 0.4969
vn 0.4964 0.6610 0.5627
vn 0.1536 0.6469 0.7470
vn -0.1727 -0.6097 -0.7736
vn 0.8215 -0.3715 0.4327
vn -0.5654 0.7323 -0.3796
vn -0.2388 0.3987 0.8854
vn -0.0277 -0.2641 -0.9641
vn 0.1620 -0.0780 -0.9837
vn -0.2635 0.1005 0.9594
vn -0.9773 0.1261 -0.1703
vn -0.8656 0.4598 -0.1983
vn 0.3628 0.6424 0.6750
vn -0.0287 0.5423 -0.8397
vn -0.5754 0.8178 0.0120
vn -0.1463 -0.6321 0.7610
vn -0.0545 -0.4831 0.8738
vn -0.5781 -0.5641 -0.5896
vn -0.9555 -0.2138 0.2031
vn 0.5216 0.7733 0.3605
vn 0.4846 0.2742 -0.8307
vn -0.5731 -0.3054 0.7604
vn -0.2801 -0.7649 -0.5801
vn 0.3491 0.8866 0.3035
vn 0.3247 0.8644 0.3840
vn -0.9155 0.0120 0.4022
vn -0.1028 -0.8523 -0.5129
vn 0.9384 -0.2992 0.1727
vn 0.8733 -0.0038 -0.4871
vn -0.8921 0.4104 -0.1890
vn -0.0416 -0.8845 -0.4646
vn 0.3769 0.8020 0.4635
vn 0.5782 -0.5029 0.6425
vn 0.0693 0.6677 0.7412
vn 0.0855 -0.7532 -0.6522
vn 0.2308 -0.6806 0.6953
vn -0.5157 0.7022 -0.4909
vn -0.4100 0.4449 0.7962
vn 0.5086 -0.5077 -0.6954
vn 0.0603 -0.7957 0.6026
vn -0.2684 0.8221 -0.5021
vn -0.7754 0.2462 0.5815
vn 0.8157 -0.2477 -0.5227
vn -0.0624 -0.8539 0.5167
vn -0.2545 0.8517 -0.4580
vn -0.1634 0.8767 -0.4524
vn 0.9956 0.0541 -0.0766
vn -0.9926 -0.0504 0.1101
vn -0.0635 -0.8894 0.4526
vn -0.7836 -0.3653 -0.5025
vn 0.7635 0.4322 0.4799
vn -0.4883 -0.4578 -0.7429
vn -0.1992 0.7734 -0.6018
vn 0.1553 0.7230 -0.6731
vn -0.1423 -0.7063 0.6934
vn -0.5964 -0.2523 -0.7620
vn 0.5076 0.6210 0.5972
vn 0.6090 0.3303 -0.7211
vn -0.4049 -0.2381 0.8828
vn -0.8119 -0.0292 -0.5831
vn 0.6256 -0.0449 -0.7788
vn 0.7862 0.3471 0.5113
vn 0.7818 0.0425 0.6220
vn 0.9635 -0.1087 0.2448
vn -0.5985 0.0613 0.7988
vt 0.139478 0.891293
vt 0.139267 0.890700
vt 0.139088 0.891105
vt 0.139310 0.890656
vt 0.138685 0.891008
vt 0.138592 0.891117
vt 0.138855 0.890859
vt 0.138685 0.890992
vt 0.138868 0.890865
vt 0.138855 0.890975
vt 0.138669 0.890991
vt 0.138868 0.890975
vt 0.138869 0.890853
vt 0.138669 0.891008
vt 0.138581 0.891110
vt 0.138855 0.890859
vt 0.138850 0.890969
vt 0.138548 0.891214
vt 0.139395 0.891299
vt 0.139372 0.891296
vt 0.138850 0.891070
vt 0.139409 0.891053
vt 0.139396 0.891068
vt 0.139497 0.890609
vt 0.138868 0.891085
vt 0.138869 0.890727
vt 0.138524 0.891216
vt 0.138850 0.890731
vt 0.139474 0.890613
vt 0.139385 0.890372
vt 0.138592 0.891280
vt 0.139406 0.891177
vt 0.139376 0.891179
vt 0.139351 0.890999
vt 0.139491 0.890476
vt 0.139323 0.891011
vt 0.138567 0.891293
vt 0.139361 0.890352
vt 0.139460 0.890475
vt 0.139406 0.891068
vt 0.139346 0.890456
vt 0.138696 0.890352
vt 0.138699 0.890388
vt 0.139370 0.891080
vt 0.139337 0.890914
vt 0.138871 0.890691
vt 0.139300 0.890915
vt 0.139497 0.890363
vt 0.139311 0.890446
vt 0.139461 0.890352
vt 0.138862 0.890727
vt 0.138609 0.890366
vt 0.139353 0.890552
vt 0.138634 0.890403
vt 0.139361 0.890845
vt 0.139323 0.890825
vt 0.138798 0.890656
vt 0.139310 0.890561
vt 0.138768 0.890689
vt 0.139385 0.890660
vt 0.138524 0.890477
vt 0.139428 0.891030
vt 0.139409 0.890772
vt 0.138571 0.890492
vt 0.139104 0.891105
vt 0.139152 0.891112
vt 0.139369 0.890745
vt 0.138747 0.890552
vt 0.139475 0.891022
vt 0.139339 0.890676
vt 0.138699 0.890558
vt 0.138526 0.890590
vt 0.139417 0.890920
vt 0.138576 0.890573
vt 0.139095 0.891186
vt 0.139147 0.891187
vt 0.138765 0.890479
vt 0.139469 0.890917
vt 0.138719 0.890454
vt 0.139409 0.890820
vt 0.138588 0.890679
vt 0.138627 0.890639
vt 0.139088 0.891259
vt 0.139146 0.891250
vt 0.138819 0.890430
vt 0.139465 0.890828
vt 0.138787 0.890384
vt 0.139419 0.890745
vt 0.138680 0.890733
vt 0.138636 0.891110
vt 0.138699 0.890679
vt 0.139097 0.891311
vt 0.138681 0.891120
vt 0.138961 0.891231
vt 0.139152 0.891286
vt 0.138871 0.890410
vt 0.138916 0.891218
vt 0.138593 0.891123
vt 0.138872 0.891228
vt 0.139475 0.890770
vt 0.138862 0.890352
vt 0.138666 0.891092
vt 0.138634 0.891239
vt 0.138935 0.891338
vt 0.138681 0.891220
vt 0.138961 0.891131
vt 0.138605 0.891110
vt 0.138918 0.891162
vt 0.138878 0.891327
vt 0.139250 0.890352
vt 0.139310 0.890372
vt 0.138871 0.891142
vt 0.138592 0.891208
vt 0.139026 0.891298
vt 0.138655 0.891341
vt 0.138608 0.890976
vt 0.139415 0.891032
vt 0.138935 0.891231
vt 0.138547 0.890997
vt 0.138871 0.891243
vt 0.139478 0.891030
vt 0.139198 0.890433
vt 0.138592 0.891328
vt 0.139258 0.890456
vt 0.139088 0.891300
vt 0.139020 0.891224
vt 0.138587 0.890869
vt 0.138524 0.890853
vt 0.139409 0.891138
vt 0.139473 0.891134
vt 0.139170 0.890573
vt 0.139084 0.891228
vt 0.139234 0.890560
vt 0.139026 0.891105
vt 0.138666 0.890779
vt 0.138624 0.890733
vt 0.139415 0.891294
vt 0.172791 0.889070
vt 0.172350 0.888842
vt 0.172305 0.888802
vt 0.172548 0.889710
vt 0.172499 0.889168
vt 0.172496 0.888802
vt 0.172018 0.889183
vt 0.172511 0.889166
vt 0.172499 0.888818
vt 0.172821 0.889480
vt 0.172511 0.889150
vt 0.172838 0.889483
vt 0.172629 0.889546
vt 0.172499 0.889151
vt 0.172625 0.889562
vt 0.172001 0.889185
vt 0.172397 0.888893
vt 0.172807 0.889601
vt 0.172831 0.889602
vt 0.172535 0.889467
vt 0.172514 0.889478
vt 0.172005 0.889315
vt 0.172377 0.888880
vt 0.172028 0.889315
vt 0.172380 0.889013
vt 0.172807 0.889706
vt 0.172320 0.889779
vt 0.172295 0.889767
vt 0.172838 0.889702
vt 0.172527 0.889350
vt 0.172812 0.889207
vt 0.171998 0.889436
vt 0.172496 0.889347
vt 0.172028 0.889441
vt 0.172350 0.889014
vt 0.172836 0.889195
vt 0.172421 0.889123
vt 0.172323 0.889677
vt 0.172293 0.889673
vt 0.172570 0.889253
vt 0.172540 0.889232
vt 0.172809 0.889314
vt 0.172391 0.889141
vt 0.172838 0.889309
vt 0.172136 0.889546
vt 0.172499 0.889165
vt 0.172323 0.889581
vt 0.172745 0.889112
vt 0.172290 0.889601
vt 0.172629 0.889227
vt 0.172171 0.889560
vt 0.172655 0.889521
vt 0.172699 0.889518
vt 0.172609 0.889195
vt 0.172805 0.889406
vt 0.171989 0.889689
vt 0.172790 0.889114
vt 0.172025 0.889694
vt 0.172479 0.889195
vt 0.172838 0.889424
vt 0.172092 0.889650
vt 0.172718 0.888984
vt 0.172140 0.889644
vt 0.172632 0.889618
vt 0.172681 0.889622
vt 0.171985 0.889774
vt 0.172092 0.889742
vt 0.172766 0.888979
vt 0.172025 0.889802
vt 0.172509 0.889562
vt 0.172128 0.889719
vt 0.172714 0.888876
vt 0.172171 0.889693
vt 0.172547 0.889593
vt 0.172629 0.889697
vt 0.172682 0.889695
vt 0.172072 0.889695
vt 0.172767 0.888876
vt 0.172028 0.889719
vt 0.172735 0.888802
vt 0.172144 0.889546
vt 0.172496 0.889659
vt 0.172542 0.889669
vt 0.172644 0.889754
vt 0.172313 0.889228
vt 0.172341 0.889271
vt 0.172699 0.889744
vt 0.172079 0.889629
vt 0.172179 0.889506
vt 0.172790 0.888810
vt 0.172032 0.889631
vt 0.172350 0.889228
vt 0.172499 0.889768
vt 0.172066 0.889493
vt 0.172547 0.889751
vt 0.172247 0.889255
vt 0.172294 0.889292
vt 0.172092 0.889571
vt 0.172435 0.889196
vt 0.172496 0.889195
vt 0.172048 0.889546
vt 0.172028 0.889364
vt 0.172340 0.889124
vt 0.172201 0.889348
vt 0.172280 0.889145
vt 0.172263 0.889354
vt 0.172423 0.889251
vt 0.172482 0.889274
vt 0.172091 0.889367
vt 0.172073 0.889251
vt 0.172278 0.889018
vt 0.172227 0.889466
vt 0.172218 0.889041
vt 0.172286 0.889443
vt 0.172369 0.889327
vt 0.172428 0.889351
vt 0.172128 0.889282
vt 0.172790 0.889190
vt 0.172128 0.889177
vt 0.172263 0.888927
vt 0.172547 0.889562
vt 0.172201 0.888909
vt 0.172284 0.889581
vt 0.172341 0.889548
vt 0.172350 0.889445
vt 0.172611 0.889568
vt 0.172179 0.889218
vt 0.172853 0.889183
vt 0.172412 0.889430
vt 0.172611 0.889716
vt 0.172451 0.889555
vt 0.172853 0.889063
vt 0.172496 0.889517
s 0
usemtl Atlas.033
f 5/11/1 3/5/1 6/14/1
f 5/11/1 4/8/1 3/5/1
f 58/151/2 56/145/2 55/142/2
f 58/151/2 57/148/2 56/145/2
s 1
f 3/6/3 10/27/4 6/15/5
f 8/21/6 3/7/3 4/9/7
f 9/25/8 4/10/7 5/12/9
f 6/16/5 9/26/8 5/13/9
f 7/18/10 14/37/11 10/27/4
f 12/33/12 7/19/10 8/20/6
f 13/36/13 8/22/6 9/23/8
f 10/29/4 13/35/13 9/24/8
f 15/41/14 14/38/11 11/30/15
f 16/44/16 11/32/15 12/33/12
f 13/36/13 16/45/16 12/34/12
f 14/39/11 17/48/17 13/35/13
f 15/41/14 22/58/18 18/49/19
f 20/54/20 15/42/14 16/43/16
f 21/56/21 16/45/16 17/47/17
f 18/51/19 21/57/21 17/46/17
f 19/53/22 26/70/23 22/58/18
f 20/54/20 23/61/24 19/52/22
f 25/67/25 20/55/20 21/56/21
f 26/71/23 21/57/21 22/59/18
f 23/62/24 30/78/26 26/69/23
f 24/64/27 27/72/28 23/61/24
f 29/76/29 24/65/27 25/66/25
f 30/79/26 25/68/25 26/71/23
f 27/73/28 34/86/30 30/78/26
f 28/74/31 31/81/32 27/72/28
f 33/84/33 28/75/31 29/76/29
f 34/87/30 29/77/29 30/79/26
f 31/80/32 38/100/34 34/86/30
f 36/91/35 31/81/32 32/82/36
f 37/95/37 32/83/36 33/84/33
f 34/87/30 37/96/37 33/85/33
f 35/90/38 42/113/39 38/98/34
f 36/93/35 39/103/40 35/90/38
f 41/108/41 36/94/35 37/97/37
f 42/112/39 37/97/37 38/99/34
f 43/115/42 42/113/39 39/103/40
f 40/107/43 43/116/42 39/102/40
f 41/109/41 44/118/44 40/104/43
f 46/124/45 41/110/41 42/111/39
f 47/126/46 46/125/45 43/114/42
f 44/119/44 47/127/46 43/116/42
f 45/121/47 48/129/48 44/117/44
f 50/133/49 45/122/47 46/124/45
f 47/126/46 2/3/50 50/132/49
f 52/136/51 47/127/46 48/128/48
f 1/1/52 48/129/48 49/130/53
f 50/133/49 1/2/52 49/131/53
f 56/146/54 62/160/55 55/143/56
f 60/156/57 56/147/54 57/149/58
f 61/158/59 57/150/58 58/152/60
f 55/144/56 61/159/59 58/153/60
f 59/154/61 66/172/62 62/160/55
f 64/166/63 59/155/61 60/156/57
f 65/170/64 60/157/57 61/158/59
f 62/161/55 65/169/64 61/159/59
f 67/174/65 66/172/62 63/162/66
f 68/176/67 63/164/66 64/165/63
f 65/170/64 68/177/67 64/167/63
f 66/173/62 69/179/68 65/168/64
f 67/174/65 74/196/69 70/180/70
f 72/186/71 67/175/65 68/176/67
f 73/191/72 68/177/67 69/178/68
f 70/181/70 73/192/72 69/179/68
f 71/185/73 78/205/74 74/194/69
f 72/188/71 75/198/75 71/182/73
f 77/202/76 72/189/71 73/190/72
f 78/206/74 73/193/72 74/195/69
f 75/199/75 82/215/77 78/205/74
f 76/200/78 79/208/79 75/198/75
f 81/213/80 76/201/78 77/202/76
f 82/216/77 77/204/76 78/206/74
f 79/209/79 86/227/81 82/215/77
f 80/211/82 83/219/83 79/207/79
f 85/224/84 80/212/82 81/213/80
f 86/228/81 81/214/80 82/216/77
f 83/218/83 90/238/85 86/226/81
f 88/232/86 83/219/83 84/220/87
f 89/234/88 84/222/87 85/223/84
f 86/228/81 89/235/88 85/225/84
f 87/231/89 94/246/90 90/238/85
f 88/233/86 91/240/91 87/229/89
f 93/243/92 88/233/86 89/234/88
f 94/245/90 89/236/88 90/237/85
f 95/247/93 94/246/90 91/239/91
f 92/242/94 95/248/93 91/240/91
f 93/243/92 96/249/95 92/241/94
f 98/253/96 93/244/92 94/245/90
f 99/256/97 98/254/96 95/247/93
f 96/250/95 99/257/97 95/248/93
f 97/251/98 100/260/99 96/249/95
f 102/266/100 97/252/98 98/253/96
f 53/138/101 102/265/100 99/255/97
f 54/140/102 99/257/97 100/259/99
f 101/263/103 54/141/102 100/258/99
f 102/266/100 103/268/104 101/262/103
f 3/6/3 7/18/10 10/27/4
f 8/21/6 7/17/10 3/7/3
f 9/25/8 8/21/6 4/10/7
f 6/16/5 10/28/4 9/26/8
f 7/18/10 11/31/15 14/37/11
f 12/33/12 11/32/15 7/19/10
f 13/36/13 12/34/12 8/22/6
f 10/29/4 14/39/11 13/35/13
f 15/41/14 18/49/19 14/38/11
f 16/44/16 15/40/14 11/32/15
f 13/36/13 17/47/17 16/45/16
f 14/39/11 18/50/19 17/48/17
f 15/41/14 19/53/22 22/58/18
f 20/54/20 19/52/22 15/42/14
f 21/56/21 20/55/20 16/45/16
f 18/51/19 22/59/18 21/57/21
f 19/53/22 23/60/24 26/70/23
f 20/54/20 24/64/27 23/61/24
f 25/67/25 24/63/27 20/55/20
f 26/71/23 25/68/25 21/57/21
f 23/62/24 27/73/28 30/78/26
f 24/64/27 28/74/31 27/72/28
f 29/76/29 28/75/31 24/65/27
f 30/79/26 29/77/29 25/68/25
f 27/73/28 31/80/32 34/86/30
f 28/74/31 32/82/36 31/81/32
f 33/84/33 32/83/36 28/75/31
f 34/87/30 33/85/33 29/77/29
f 31/80/32 35/88/38 38/100/34
f 36/91/35 35/89/38 31/81/32
f 37/95/37 36/92/35 32/83/36
f 34/87/30 38/101/34 37/96/37
f 35/90/38 39/103/40 42/113/39
f 36/93/35 40/105/43 39/103/40
f 41/108/41 40/106/43 36/94/35
f 42/112/39 41/108/41 37/97/37
f 43/115/42 46/123/45 42/113/39
f 40/107/43 44/119/44 43/116/42
f 41/109/41 45/120/47 44/118/44
f 46/124/45 45/122/47 41/110/41
f 47/126/46 50/132/49 46/125/45
f 44/119/44 48/128/48 47/127/46
f 45/121/47 49/130/53 48/129/48
f 50/133/49 49/131/53 45/122/47
f 47/126/46 51/134/105 2/3/50
f 52/136/51 51/135/105 47/127/46
f 1/1/52 52/137/51 48/129/48
f 50/133/49 2/4/50 1/2/52
f 56/146/54 59/154/61 62/160/55
f 60/156/57 59/155/61 56/147/54
f 61/158/59 60/157/57 57/150/58
f 55/144/56 62/161/55 61/159/59
f 59/154/61 63/162/66 66/172/62
f 64/166/63 63/163/66 59/155/61
f 65/170/64 64/167/63 60/157/57
f 62/161/55 66/171/62 65/169/64
f 67/174/65 70/180/70 66/172/62
f 68/176/67 67/175/65 63/164/66
f 65/170/64 69/178/68 68/177/67
f 66/173/62 70/181/70 69/179/68
f 67/174/65 71/183/73 74/196/69
f 72/186/71 71/184/73 67/175/65
f 73/191/72 72/187/71 68/177/67
f 70/181/70 74/197/69 73/192/72
f 71/185/73 75/199/75 78/205/74
f 72/188/71 76/200/78 75/198/75
f 77/202/76 76/201/78 72/189/71
f 78/206/74 77/203/76 73/193/72
f 75/199/75 79/209/79 82/215/77
f 76/200/78 80/210/82 79/208/79
f 81/213/80 80/212/82 76/201/78
f 82/216/77 81/214/80 77/204/76
f 79/209/79 83/217/83 86/227/81
f 80/211/82 84/220/87 83/219/83
f 85/224/84 84/221/87 80/212/82
f 86/228/81 85/225/84 81/214/80
f 83/218/83 87/231/89 90/238/85
f 88/232/86 87/230/89 83/219/83
f 89/234/88 88/233/86 84/222/87
f 86/228/81 90/238/85 89/235/88
f 87/231/89 91/239/91 94/246/90
f 88/233/86 92/242/94 91/240/91
f 93/243/92 92/241/94 88/233/86
f 94/245/90 93/244/92 89/236/88
f 95/247/93 98/254/96 94/246/90
f 92/242/94 96/250/95 95/248/93
f 93/243/92 97/251/98 96/249/95
f 98/253/96 97/252/98 93/244/92
f 99/256/97 102/264/100 98/254/96
f 96/250/95 100/259/99 99/257/97
f 97/251/98 101/261/103 100/260/99
f 102/266/100 101/262/103 97/252/98
f 53/138/101 104/269/106 102/265/100
f 54/140/102 53/139/101 99/257/97
f 101/263/103 103/267/104 54/141/102
f 102/266/100 104/270/106 103/268/104
