# Blender 3.5.1
# www.blender.org
mtllib Ramp_Sphere.mtl
o Ramp_Sphere.009
v 0.728841 -0.004641 4.433833
v 0.728841 1.387158 2.159988
v 0.728841 -0.004641 3.988358
v 0.728841 1.077289 2.158588
v 0.909329 -0.004641 4.433833
v 0.909329 1.387158 2.159988
v 0.909329 -0.004641 3.988358
v 0.909329 1.077289 2.158588
v 0.728841 1.077289 1.319286
v 0.728841 1.387158 1.785000
v 0.909329 1.077289 1.319286
v 0.909329 1.387158 1.785000
v 0.759470 1.328359 1.835535
v 0.759469 -0.004641 4.074533
v -0.728841 -0.004641 4.433833
v -0.728841 1.387158 2.159988
v -0.728841 -0.004641 3.988358
v -0.728841 1.077289 2.158588
v -0.909329 -0.004641 4.433833
v -0.909329 1.387158 2.159988
v -0.909329 -0.004641 3.988358
v -0.909329 1.077289 2.158588
v -0.728841 1.077289 1.319286
v -0.728841 1.387158 1.785000
v -0.909329 1.077289 1.319286
v -0.909329 1.387158 1.785000
v -0.759470 1.328359 1.835535
v 0.000000 1.328359 1.835535
v -0.759470 1.328359 1.788236
v 0.000000 1.328359 1.788236
v 0.000000 -0.004641 4.074533
v -0.759470 -0.004641 4.074533
v 0.759469 1.328359 1.788236
v 0.777050 1.200674 2.021305
v 0.858509 1.200674 2.021305
v 0.777050 1.200674 1.888290
v 0.858509 1.200674 1.888290
v 0.777050 0.033670 2.017130
v 0.858509 0.033670 2.017130
v 0.777050 0.033670 1.892465
v 0.858509 0.033670 1.892465
v 0.937348 0.004145 2.244220
v 0.937348 0.004145 1.665375
v 0.708320 0.004145 2.244220
v 0.708320 0.004145 1.665375
v 0.708320 0.055142 1.665375
v 0.708320 0.055142 2.244220
v 0.937348 0.055142 2.244220
v 0.937348 0.055142 1.665375
v 0.708320 0.004145 2.047495
v 0.708320 0.004145 1.862100
v 0.937348 0.004145 1.862100
v 0.937348 0.004145 2.047495
v 0.708320 0.116876 1.862100
v 0.708320 0.116876 2.047495
v 0.937348 0.116876 2.047495
v 0.937348 0.116876 1.862100
v 0.926276 1.007101 2.154936
v 0.928297 1.165344 2.154936
v 0.926276 1.007101 1.754658
v 0.928297 1.165344 1.754658
v 0.711303 1.010700 1.754658
v 0.711303 1.010700 2.154936
v 0.713324 1.168943 2.154936
v 0.713324 1.168943 1.754658
v -0.777050 1.200674 2.021305
v -0.858509 1.200674 2.021305
v -0.777050 1.200674 1.888290
v -0.858509 1.200674 1.888290
v -0.777050 0.033670 2.017130
v -0.858509 0.033670 2.017130
v -0.777050 0.033670 1.892465
v -0.858509 0.033670 1.892465
v -0.937348 0.004145 2.244220
v -0.937348 0.004145 1.665375
v -0.708320 0.004145 2.244220
v -0.708320 0.004145 1.665375
v -0.708320 0.055142 1.665375
v -0.708320 0.055142 2.244220
v -0.937348 0.055142 2.244220
v -0.937348 0.055142 1.665375
v -0.708320 0.004145 2.047495
v -0.708320 0.004145 1.862100
v -0.937348 0.004145 1.862100
v -0.937348 0.004145 2.047495
v -0.708320 0.116876 1.862100
v -0.708320 0.116876 2.047495
v -0.937348 0.116876 2.047495
v -0.937348 0.116876 1.862100
v -0.926276 1.007101 2.154936
v -0.928297 1.165344 2.154936
v -0.926276 1.007101 1.754658
v -0.928297 1.165344 1.754658
v -0.711303 1.010700 1.754658
v -0.711303 1.010700 2.154936
v -0.713324 1.168943 2.154936
v -0.713324 1.168943 1.754658
v 0.759469 0.194708 3.722107
v 0.759469 0.179221 3.749048
v 0.759469 0.386213 3.394684
v 0.759469 0.370523 3.421509
v 0.759469 0.577717 3.067262
v 0.759469 0.562027 3.094087
v 0.759469 0.769221 2.739839
v 0.759469 0.753531 2.766664
v -0.759469 0.753531 2.766664
v -0.759469 0.769221 2.739839
v -0.759470 0.179221 3.749048
v -0.759470 0.194708 3.722107
v -0.759470 0.370523 3.421509
v -0.759470 0.386213 3.394684
v -0.759470 0.562027 3.094087
v -0.759470 0.577717 3.067262
v -0.759470 0.945035 2.439242
v -0.759470 0.960865 2.412499
v -0.759470 1.136400 2.119454
v -0.759470 1.152167 2.092676
v 0.759469 1.152167 2.092676
v 0.759469 1.136400 2.119454
v 0.759469 0.960865 2.412499
v 0.759469 0.945035 2.439242
v 0.000000 0.194708 3.722107
v 0.000000 0.179221 3.749048
v 0.000000 0.386213 3.394684
v 0.000000 0.370523 3.421509
v 0.000000 0.577717 3.067262
v 0.000000 0.562027 3.094087
v 0.000000 0.753531 2.766664
v 0.000000 0.769221 2.739839
v 0.000000 0.960865 2.412499
v 0.000000 0.945035 2.439242
v 0.000000 1.152167 2.092676
v 0.000000 1.136400 2.119454
vn -1.0000 -0.0000 -0.0000
vn 1.0000 -0.0000 -0.0000
vn -0.0000 1.0000 -0.0000
vn -0.0000 0.8529 0.5221
vn -0.0000 -1.0000 -0.0000
vn -0.0000 -0.8608 -0.5090
vn -0.0000 0.8326 -0.5539
vn -0.0000 0.8632 0.5049
vn -0.0000 0.8707 0.4918
vn -0.0000 0.8655 0.5009
vn -0.0000 0.8579 0.5139
vn -0.0000 -0.0036 -1.0000
vn -0.0000 -0.0036 1.0000
vn -0.0000 -0.0000 -1.0000
vn -0.0000 -0.0000 1.0000
vn -0.0000 0.9541 0.2994
vn -0.0000 0.9541 -0.2994
vn 0.9999 -0.0128 -0.0000
vn -0.9999 0.0128 -0.0000
vn 0.0167 0.9999 -0.0000
vn -0.0167 -0.9999 -0.0000
vn -0.9999 -0.0128 -0.0000
vn 0.9999 0.0128 -0.0000
vn -0.0167 0.9999 -0.0000
vn 0.0167 -0.9999 -0.0000
vn -0.0000 0.8670 0.4984
vn -0.0000 0.8617 0.5074
vn -0.0000 0.8605 0.5094
vt 0.078641 0.986266
vt 0.079052 0.985505
vt 0.079013 0.986266
vt 0.079013 0.985656
vt 0.078547 0.985658
vt 0.078677 0.986171
vt 0.079052 0.985607
vt 0.078609 0.985685
vt 0.079052 0.986046
vt 0.078900 0.985505
vt 0.078975 0.986266
vt 0.079013 0.985505
vt 0.078806 0.986113
vt 0.078975 0.985656
vt 0.079013 0.985607
vt 0.079013 0.986046
vt 0.078868 0.986086
vt 0.079013 0.985505
vt 0.078677 0.985505
vt 0.079052 0.986240
vt 0.079013 0.985577
vt 0.078577 0.985577
vt 0.078975 0.985505
vt 0.079013 0.986240
vt 0.078975 0.985577
vt 0.078836 0.986193
vt 0.019354 0.987342
vt 0.019032 0.987342
vt 0.079091 0.986240
vt 0.078511 0.985505
vt 0.078936 0.986266
vt 0.078936 0.985656
vt 0.078417 0.986113
vt 0.078547 0.985600
vt 0.079091 0.986137
vt 0.078479 0.986086
vt 0.079091 0.985698
vt 0.078770 0.986266
vt 0.079052 0.986240
vt 0.078677 0.985658
vt 0.078975 0.985656
vt 0.078806 0.986171
vt 0.079052 0.986137
vt 0.079052 0.985698
vt 0.078738 0.985685
vt 0.078936 0.985505
vt 0.078547 0.986266
vt 0.079091 0.985505
vt 0.078936 0.985577
vt 0.078448 0.986193
vt 0.078806 0.985505
vt 0.079052 0.985505
vt 0.078975 0.985577
vt 0.078707 0.985577
vt 0.019354 0.987693
vt 0.019354 0.987517
vt 0.019359 0.986735
vt 0.019343 0.987693
vt 0.019343 0.987517
vt 0.019195 0.986735
vt 0.019195 0.987342
vt 0.019359 0.987342
vt 0.019343 0.987342
vt 0.019032 0.986735
vt 0.078339 0.986505
vt 0.078177 0.986111
vt 0.078356 0.986505
vt 0.078148 0.986111
vt 0.078321 0.986235
vt 0.078205 0.986111
vt 0.078339 0.986235
vt 0.078119 0.986111
vt 0.078339 0.986235
vt 0.078178 0.986381
vt 0.078356 0.986235
vt 0.078147 0.986381
vt 0.078321 0.986505
vt 0.078204 0.986381
vt 0.078120 0.986381
vt 0.078339 0.986505
vt 0.078402 0.986235
vt 0.078871 0.986266
vt 0.078205 0.986111
vt 0.078402 0.986369
vt 0.078545 0.986266
vt 0.078205 0.986245
vt 0.078677 0.986400
vt 0.078254 0.986111
vt 0.078871 0.986319
vt 0.078545 0.986319
vt 0.078677 0.986266
vt 0.078254 0.986245
vt 0.078534 0.986319
vt 0.078304 0.986235
vt 0.078666 0.986266
vt 0.078304 0.986111
vt 0.078666 0.986400
vt 0.078882 0.986319
vt 0.078391 0.986235
vt 0.078882 0.986266
vt 0.078353 0.986111
vt 0.078534 0.986266
vt 0.078391 0.986369
vt 0.078353 0.986235
vt 0.078677 0.986354
vt 0.078254 0.986157
vt 0.078677 0.986312
vt 0.078254 0.986199
vt 0.078205 0.986199
vt 0.078402 0.986323
vt 0.078402 0.986280
vt 0.078205 0.986157
vt 0.078304 0.986198
vt 0.078652 0.986312
vt 0.078652 0.986354
vt 0.078304 0.986159
vt 0.078378 0.986280
vt 0.078353 0.986159
vt 0.078378 0.986323
vt 0.078353 0.986198
vt 0.078584 0.986359
vt 0.078837 0.986266
vt 0.078298 0.986337
vt 0.078510 0.986266
vt 0.078618 0.986359
vt 0.078871 0.986266
vt 0.078298 0.986245
vt 0.078584 0.986266
vt 0.078837 0.986266
vt 0.078618 0.986266
vt 0.078510 0.986351
vt 0.078803 0.986266
vt 0.078652 0.986266
vt 0.078251 0.986245
vt 0.078837 0.986316
vt 0.078652 0.986359
vt 0.078251 0.986337
vt 0.078837 0.986316
vt 0.078618 0.986359
vt 0.078464 0.986266
vt 0.078871 0.986316
vt 0.078803 0.986316
vt 0.078618 0.986266
vt 0.078464 0.986352
vt 0.078374 0.986505
vt 0.078119 0.986111
vt 0.078356 0.986505
vt 0.078148 0.986111
vt 0.078321 0.986235
vt 0.078091 0.986111
vt 0.078304 0.986235
vt 0.078177 0.986111
vt 0.078374 0.986235
vt 0.078119 0.986381
vt 0.078356 0.986235
vt 0.078149 0.986381
vt 0.078321 0.986505
vt 0.078092 0.986381
vt 0.078176 0.986381
vt 0.078304 0.986505
vt 0.078735 0.986369
vt 0.078510 0.986266
vt 0.078254 0.986245
vt 0.078510 0.986400
vt 0.078882 0.986266
vt 0.078254 0.986111
vt 0.078304 0.986245
vt 0.078701 0.986266
vt 0.078882 0.986319
vt 0.078304 0.986111
vt 0.078701 0.986400
vt 0.078893 0.986319
vt 0.078353 0.986111
vt 0.078690 0.986400
vt 0.078353 0.986235
vt 0.078690 0.986266
vt 0.078521 0.986266
vt 0.078746 0.986369
vt 0.078402 0.986235
vt 0.078893 0.986266
vt 0.078521 0.986400
vt 0.078402 0.986111
vt 0.078701 0.986312
vt 0.078304 0.986199
vt 0.078701 0.986354
vt 0.078304 0.986157
vt 0.078254 0.986157
vt 0.078510 0.986354
vt 0.078510 0.986312
vt 0.078254 0.986199
vt 0.078353 0.986148
vt 0.078677 0.986354
vt 0.078677 0.986312
vt 0.078353 0.986187
vt 0.078534 0.986312
vt 0.078402 0.986187
vt 0.078534 0.986354
vt 0.078402 0.986148
vt 0.078769 0.986266
vt 0.078251 0.986245
vt 0.078464 0.986352
vt 0.078735 0.986266
vt 0.078251 0.986337
vt 0.078803 0.986316
vt 0.078701 0.986359
vt 0.078464 0.986266
vt 0.078769 0.986316
vt 0.078550 0.986266
vt 0.078205 0.986337
vt 0.078803 0.986266
vt 0.078550 0.986359
vt 0.078205 0.986245
vt 0.078769 0.986316
vt 0.078584 0.986359
vt 0.078417 0.986351
vt 0.078735 0.986316
vt 0.078584 0.986266
vt 0.078417 0.986266
vt 0.078769 0.986266
vt 0.110696 0.984788
vt 0.019032 0.987249
vt 0.019032 0.987256
vt 0.110696 0.984795
vt 0.110696 0.984701
vt 0.019032 0.987162
vt 0.019032 0.987169
vt 0.110696 0.984708
vt 0.110696 0.984614
vt 0.019032 0.987075
vt 0.019032 0.987082
vt 0.110696 0.984621
vt 0.110696 0.984527
vt 0.019032 0.986988
vt 0.019032 0.986995
vt 0.110696 0.984534
vt 0.019359 0.986995
vt 0.111023 0.984534
vt 0.019359 0.986988
vt 0.111023 0.984527
vt 0.019359 0.987256
vt 0.111023 0.984795
vt 0.019359 0.987249
vt 0.111023 0.984788
vt 0.111023 0.984708
vt 0.019359 0.987169
vt 0.019359 0.987162
vt 0.111023 0.984701
vt 0.111023 0.984621
vt 0.019359 0.987082
vt 0.019359 0.987075
vt 0.111023 0.984614
vt 0.111023 0.984447
vt 0.019359 0.986908
vt 0.019359 0.986901
vt 0.111023 0.984440
vt 0.111023 0.984362
vt 0.019359 0.986823
vt 0.019359 0.986816
vt 0.111023 0.984355
vt 0.019032 0.986816
vt 0.110696 0.984355
vt 0.019032 0.986823
vt 0.110696 0.984362
vt 0.019032 0.986901
vt 0.110696 0.984440
vt 0.019032 0.986908
vt 0.110696 0.984447
vt 0.110859 0.984788
vt 0.019195 0.987249
vt 0.019195 0.987256
vt 0.110859 0.984795
vt 0.019195 0.987162
vt 0.110860 0.984701
vt 0.110860 0.984708
vt 0.019195 0.987169
vt 0.019195 0.987075
vt 0.110860 0.984614
vt 0.019195 0.987082
vt 0.110860 0.984621
vt 0.019195 0.986995
vt 0.110860 0.984534
vt 0.019195 0.986988
vt 0.110860 0.984527
vt 0.019195 0.986901
vt 0.110860 0.984440
vt 0.019195 0.986908
vt 0.110860 0.984447
vt 0.019195 0.986816
vt 0.110860 0.984355
vt 0.019195 0.986823
vt 0.110860 0.984362
s 0
usemtl Atlas.035
f 2/5/1 3/6/1 1/1/1
f 6/13/2 7/15/2 8/17/2
f 6/14/3 10/21/3 2/4/3
f 1/3/4 6/14/4 2/4/4
f 3/7/5 5/12/5 1/2/5
f 4/9/6 7/15/6 3/7/6
f 10/21/7 11/23/7 9/18/7
f 8/17/2 12/26/2 6/13/2
f 4/8/1 10/22/1 9/19/1
f 4/9/5 11/24/5 8/16/5
f 127/278/8 100/225/8 103/230/8
f 28/56/5 33/63/5 13/27/5
f 110/245/8 122/269/8 125/275/8
f 131/286/8 107/238/8 129/282/8
f 131/286/8 104/233/8 121/266/8
f 128/280/8 102/229/8 105/234/8
f 31/61/9 99/222/9 123/270/9
f 16/33/2 17/34/2 18/36/2
f 20/40/1 21/42/1 19/38/1
f 24/49/3 20/41/3 16/32/3
f 20/41/4 15/31/4 16/32/4
f 19/39/5 17/35/5 15/29/5
f 21/43/6 18/37/6 17/35/6
f 25/52/7 24/49/7 23/46/7
f 26/54/1 22/45/1 20/40/1
f 18/36/2 24/50/2 16/33/2
f 25/52/5 18/37/5 22/44/5
f 112/249/8 124/272/8 127/278/8
f 29/58/5 28/56/5 27/55/5
f 106/236/8 126/276/8 128/280/8
f 117/258/10 30/60/10 29/57/10
f 133/290/11 120/264/11 119/262/11
f 116/257/11 130/284/11 133/290/11
f 32/62/9 123/270/9 108/240/9
f 132/288/10 33/64/10 30/60/10
f 37/71/12 40/77/12 36/69/12
f 39/75/13 34/65/13 38/73/13
f 40/78/1 34/66/1 36/70/1
f 37/72/2 39/76/2 41/79/2
f 53/111/2 48/99/2 42/81/2
f 46/93/14 43/85/14 45/90/14
f 47/97/1 50/105/1 44/87/1
f 49/103/2 52/110/2 43/84/2
f 48/100/15 44/89/15 42/82/15
f 48/101/16 55/116/16 47/96/16
f 45/92/5 52/109/5 51/108/5
f 57/120/17 46/94/17 54/113/17
f 51/107/1 46/95/1 45/91/1
f 52/110/2 56/117/2 53/111/2
f 50/105/1 54/114/1 51/107/1
f 55/116/3 57/120/3 54/113/3
f 53/112/5 51/108/5 52/109/5
f 50/106/5 42/83/5 44/88/5
f 60/128/18 59/125/18 58/121/18
f 64/139/19 62/133/19 63/136/19
f 61/131/20 64/140/20 59/124/20
f 58/123/21 62/134/21 60/127/21
f 61/132/14 62/135/14 65/142/14
f 59/126/15 63/138/15 58/122/15
f 72/157/12 69/151/12 68/149/12
f 66/145/13 71/155/13 70/153/13
f 66/146/2 72/158/2 68/150/2
f 71/156/1 69/152/1 73/159/1
f 85/189/1 80/177/1 88/195/1
f 75/165/14 78/172/14 77/169/14
f 82/183/2 79/176/2 76/168/2
f 84/188/1 81/181/1 75/164/1
f 76/168/15 80/178/15 74/161/15
f 87/194/16 80/179/16 79/175/16
f 84/187/5 77/170/5 83/186/5
f 78/173/17 89/198/17 86/191/17
f 83/185/2 78/174/2 86/192/2
f 88/195/1 84/188/1 85/189/1
f 86/192/2 82/183/2 83/185/2
f 89/198/3 87/194/3 86/191/3
f 83/186/5 85/190/5 84/187/5
f 74/163/5 82/184/5 76/167/5
f 91/202/22 92/205/22 90/199/22
f 94/208/23 96/214/23 95/211/23
f 96/215/24 93/206/24 91/201/24
f 94/209/25 90/200/25 92/203/25
f 93/207/14 94/210/14 92/204/14
f 95/213/15 91/202/15 90/199/15
f 107/239/8 128/281/8 129/283/8
f 129/283/8 105/235/8 104/232/8
f 126/277/8 103/231/8 102/228/8
f 124/273/8 101/227/8 100/224/8
f 122/268/26 99/223/26 98/220/26
f 119/263/27 132/289/27 133/291/27
f 121/267/28 130/285/28 131/287/28
f 133/291/27 117/259/27 116/256/27
f 131/287/28 115/255/28 114/252/28
f 127/279/8 113/251/8 112/248/8
f 125/274/8 111/247/8 110/244/8
f 123/271/26 109/243/26 108/241/26
f 125/275/8 98/221/8 101/226/8
f 2/5/1 4/8/1 3/6/1
f 6/13/2 5/10/2 7/15/2
f 6/14/3 12/25/3 10/21/3
f 1/3/4 5/11/4 6/14/4
f 3/7/5 7/15/5 5/12/5
f 4/9/6 8/16/6 7/15/6
f 10/21/7 12/25/7 11/23/7
f 8/17/2 11/24/2 12/26/2
f 4/8/1 2/5/1 10/22/1
f 4/9/5 9/20/5 11/24/5
f 127/278/8 124/272/8 100/225/8
f 28/56/5 30/59/5 33/63/5
f 110/245/8 109/242/8 122/269/8
f 131/286/8 114/253/8 107/238/8
f 131/286/8 129/282/8 104/233/8
f 128/280/8 126/276/8 102/229/8
f 31/61/9 14/28/9 99/222/9
f 16/33/2 15/30/2 17/34/2
f 20/40/1 22/45/1 21/42/1
f 24/49/3 26/53/3 20/41/3
f 20/41/4 19/39/4 15/31/4
f 19/39/5 21/43/5 17/35/5
f 21/43/6 22/44/6 18/37/6
f 25/52/7 26/53/7 24/49/7
f 26/54/1 25/51/1 22/45/1
f 18/36/2 23/47/2 24/50/2
f 25/52/5 23/48/5 18/37/5
f 112/249/8 111/246/8 124/272/8
f 29/58/5 30/59/5 28/56/5
f 106/236/8 113/250/8 126/276/8
f 117/258/10 132/288/10 30/60/10
f 133/290/11 130/284/11 120/264/11
f 116/257/11 115/254/11 130/284/11
f 32/62/9 31/61/9 123/270/9
f 132/288/10 118/260/10 33/64/10
f 37/71/12 41/80/12 40/77/12
f 39/75/13 35/67/13 34/65/13
f 40/78/1 38/74/1 34/66/1
f 37/72/2 35/68/2 39/76/2
f 53/111/2 56/117/2 48/99/2
f 46/93/14 49/102/14 43/85/14
f 47/97/1 55/115/1 50/105/1
f 49/103/2 57/119/2 52/110/2
f 48/100/15 47/98/15 44/89/15
f 48/101/16 56/118/16 55/116/16
f 45/92/5 43/86/5 52/109/5
f 57/120/17 49/104/17 46/94/17
f 51/107/1 54/114/1 46/95/1
f 52/110/2 57/119/2 56/117/2
f 50/105/1 55/115/1 54/114/1
f 55/116/3 56/118/3 57/120/3
f 53/112/5 50/106/5 51/108/5
f 50/106/5 53/112/5 42/83/5
f 60/128/18 61/130/18 59/125/18
f 64/139/19 65/143/19 62/133/19
f 61/131/20 65/144/20 64/140/20
f 58/123/21 63/137/21 62/134/21
f 61/132/14 60/129/14 62/135/14
f 59/126/15 64/141/15 63/138/15
f 72/157/12 73/160/12 69/151/12
f 66/145/13 67/147/13 71/155/13
f 66/146/2 70/154/2 72/158/2
f 71/156/1 67/148/1 69/152/1
f 85/189/1 74/162/1 80/177/1
f 75/165/14 81/180/14 78/172/14
f 82/183/2 87/193/2 79/176/2
f 84/188/1 89/197/1 81/181/1
f 76/168/15 79/176/15 80/178/15
f 87/194/16 88/196/16 80/179/16
f 84/187/5 75/166/5 77/170/5
f 78/173/17 81/182/17 89/198/17
f 83/185/2 77/171/2 78/174/2
f 88/195/1 89/197/1 84/188/1
f 86/192/2 87/193/2 82/183/2
f 89/198/3 88/196/3 87/194/3
f 83/186/5 82/184/5 85/190/5
f 74/163/5 85/190/5 82/184/5
f 91/202/22 93/207/22 92/205/22
f 94/208/23 97/217/23 96/214/23
f 96/215/24 97/218/24 93/206/24
f 94/209/25 95/212/25 90/200/25
f 93/207/14 97/219/14 94/210/14
f 95/213/15 96/216/15 91/202/15
f 107/239/8 106/237/8 128/281/8
f 129/283/8 128/281/8 105/235/8
f 126/277/8 127/279/8 103/231/8
f 124/273/8 125/274/8 101/227/8
f 122/268/26 123/271/26 99/223/26
f 119/263/27 118/261/27 132/289/27
f 121/267/28 120/265/28 130/285/28
f 133/291/27 132/289/27 117/259/27
f 131/287/28 130/285/28 115/255/28
f 127/279/8 126/277/8 113/251/8
f 125/274/8 124/273/8 111/247/8
f 123/271/26 122/268/26 109/243/26
f 125/275/8 122/269/8 98/221/8
