# Blender 3.5.1
# www.blender.org
mtllib Roof_VentL_Cylinder.mtl
o Roof_VentL_Cylinder.000
v -1.231855 3.560454 -0.716261
v -1.501531 3.830130 -0.544785
v -1.405197 3.387112 -0.673036
v -1.633403 3.698259 -0.511901
v -1.557631 3.234678 -0.548573
v -1.749369 3.582293 -0.417215
v -1.670772 3.121536 -0.357886
v -1.835442 3.496220 -0.272148
v -1.730973 3.061336 -0.123974
v -1.881240 3.450422 -0.094197
v -1.730973 3.061336 0.124951
v -1.881240 3.450422 0.095174
v -1.670772 3.121537 0.358863
v -1.835442 3.496220 0.273125
v -1.557631 3.234678 0.549550
v -1.749369 3.582293 0.418192
v -1.405197 3.387112 0.674012
v -1.633403 3.698259 0.512877
v -1.231855 3.560454 0.717237
v -1.501531 3.830130 0.545761
v -1.058513 3.733796 0.674012
v -1.369660 3.962002 0.512877
v -0.906078 3.886230 0.549550
v -1.253694 4.077968 0.418192
v -0.792938 3.999371 0.358863
v -1.167621 4.164041 0.273125
v -0.732736 4.059572 0.124951
v -1.121823 4.209839 0.095174
v -0.732736 4.059572 -0.123974
v -1.121823 4.209839 -0.094197
v -0.792937 3.999372 -0.357886
v -1.167621 4.164041 -0.272148
v -0.906078 3.886230 -0.548573
v -1.253694 4.077968 -0.417215
v -1.058513 3.733796 -0.673035
v -1.369660 3.962002 -0.511901
v -1.606445 3.725217 -0.407156
v -1.501531 3.830130 -0.433318
v -1.698705 3.632957 -0.331827
v -1.767183 3.564479 -0.216415
v -1.803619 3.528043 -0.074841
v -1.803619 3.528043 0.075818
v -1.767182 3.564479 0.217392
v -1.698705 3.632957 0.332803
v -1.606445 3.725216 0.408133
v -1.501531 3.830130 0.434295
v -1.396618 3.935044 0.408133
v -1.304358 4.027304 0.332803
v -1.235880 4.095781 0.217392
v -1.199444 4.132217 0.075818
v -1.199444 4.132217 -0.074841
v -1.235880 4.095781 -0.216415
v -1.304358 4.027304 -0.331827
v -1.396617 3.935044 -0.407156
v -1.354218 3.892645 -0.407156
v -1.261958 3.984905 -0.331827
v -1.193481 4.053382 -0.216415
v -1.157045 4.089818 -0.074841
v -1.157045 4.089818 0.075818
v -1.193481 4.053382 0.217392
v -1.261959 3.984905 0.332803
v -1.354218 3.892645 0.408133
v -1.459132 3.787731 0.434295
v -1.564046 3.682817 0.408133
v -1.656306 3.590558 0.332803
v -1.724783 3.522080 0.217392
v -1.761220 3.485644 0.075818
v -1.761220 3.485644 -0.074841
v -1.724783 3.522080 -0.216415
v -1.656306 3.590558 -0.331827
v -1.459132 3.787731 -0.433318
v -1.564046 3.682817 -0.407156
vn -0.5105 0.0694 -0.8570
vn -0.2900 0.2900 -0.9121
vn -0.7045 -0.1246 -0.6987
vn -0.8485 -0.2685 -0.4560
vn -0.9251 -0.3452 -0.1584
vn -0.9251 -0.3452 0.1584
vn -0.8485 -0.2685 0.4560
vn -0.7045 -0.1246 0.6987
vn -0.5105 0.0694 0.8570
vn -0.2900 0.2900 0.9121
vn -0.0694 0.5105 0.8570
vn 0.1246 0.7045 0.6987
vn 0.2685 0.8485 0.4560
vn 0.3452 0.9251 0.1584
vn 0.3452 0.9251 -0.1584
vn 0.2685 0.8485 -0.4560
vn 0.1246 0.7045 -0.6987
vn -0.7071 0.7071 -0.0000
vn -0.0694 0.5105 -0.8570
vn 0.7071 -0.7071 -0.0000
vn -0.0000 -0.0000 -1.0000
vn 0.2418 0.2418 -0.9397
vn -0.4545 -0.4545 0.7660
vn -0.6124 -0.6124 0.5000
vn 0.2418 0.2418 0.9397
vn -0.0000 -0.0000 1.0000
vn 0.4545 0.4545 -0.7660
vn -0.6964 -0.6964 0.1736
vn 0.6124 0.6124 -0.5000
vn -0.6964 -0.6964 -0.1736
vn 0.6964 0.6964 -0.1737
vn 0.6964 0.6964 -0.1736
vn -0.6124 -0.6124 -0.5000
vn 0.6964 0.6964 0.1736
vn -0.4545 -0.4545 -0.7660
vn 0.6124 0.6124 0.5000
vn -0.2418 -0.2418 -0.9397
vn -0.2418 -0.2418 0.9397
vn 0.4545 0.4545 0.7660
vt 0.049843 0.988165
vt 0.050271 0.987077
vt 0.050184 0.988177
vt 0.051111 0.986803
vt 0.049851 0.988378
vt 0.050271 0.987291
vt 0.050190 0.988340
vt 0.051010 0.986678
vt 0.049874 0.988578
vt 0.051013 0.987505
vt 0.050200 0.987491
vt 0.051347 0.987604
vt 0.050207 0.988492
vt 0.050874 0.986597
vt 0.050990 0.987669
vt 0.050067 0.987655
vt 0.050718 0.986569
vt 0.051330 0.987730
vt 0.050983 0.987871
vt 0.049888 0.987762
vt 0.051324 0.987883
vt 0.050563 0.986597
vt 0.050990 0.988084
vt 0.049683 0.987799
vt 0.051330 0.988045
vt 0.050426 0.986678
vt 0.051013 0.988284
vt 0.049426 0.988742
vt 0.049479 0.987762
vt 0.049096 0.988629
vt 0.051347 0.988197
vt 0.050325 0.986803
vt 0.049454 0.988578
vt 0.049300 0.987655
vt 0.049117 0.988504
vt 0.050271 0.986955
vt 0.049469 0.988377
vt 0.049167 0.987491
vt 0.049129 0.988352
vt 0.050271 0.987118
vt 0.049469 0.988163
vt 0.049096 0.987291
vt 0.049129 0.988189
vt 0.050325 0.987271
vt 0.049454 0.987963
vt 0.049096 0.987077
vt 0.049117 0.988036
vt 0.050426 0.987395
vt 0.049426 0.987799
vt 0.049167 0.986876
vt 0.049096 0.987912
vt 0.049843 0.987912
vt 0.050563 0.987476
vt 0.049485 0.987963
vt 0.049300 0.986713
vt 0.050718 0.987505
vt 0.049821 0.988036
vt 0.049469 0.988163
vt 0.049479 0.986606
vt 0.049810 0.988189
vt 0.050874 0.987476
vt 0.049469 0.988377
vt 0.049683 0.986569
vt 0.049810 0.988352
vt 0.051010 0.987395
vt 0.049485 0.988578
vt 0.049888 0.986606
vt 0.051111 0.987271
vt 0.049821 0.988504
vt 0.049874 0.987799
vt 0.049513 0.988742
vt 0.050067 0.986713
vt 0.049843 0.988629
vt 0.050207 0.987899
vt 0.051165 0.987118
vt 0.049851 0.987964
vt 0.050200 0.986876
vt 0.050190 0.988024
vt 0.051165 0.986955
vt 0.050950 0.986751
vt 0.050351 0.988621
vt 0.051031 0.986851
vt 0.050346 0.988500
vt 0.050842 0.986687
vt 0.051192 0.986569
vt 0.050365 0.988721
vt 0.050718 0.986664
vt 0.051175 0.986668
vt 0.050595 0.986687
vt 0.051165 0.986789
vt 0.051165 0.986919
vt 0.050486 0.986751
vt 0.050405 0.986851
vt 0.051175 0.987040
vt 0.050298 0.988249
vt 0.051192 0.987139
vt 0.050363 0.986972
vt 0.050363 0.987101
vt 0.050280 0.988348
vt 0.050271 0.988470
vt 0.050405 0.987223
vt 0.050486 0.987322
vt 0.050271 0.988599
vt 0.050595 0.987387
vt 0.050280 0.988721
vt 0.050718 0.987409
vt 0.050432 0.988249
vt 0.050298 0.988820
vt 0.050842 0.987387
vt 0.050418 0.988370
vt 0.050414 0.988500
vt 0.050950 0.987322
vt 0.051031 0.987223
vt 0.050418 0.988621
vt 0.050432 0.988721
vt 0.050365 0.988249
vt 0.051074 0.987101
vt 0.051074 0.986972
vt 0.050351 0.988370
vt 0.050400 0.988372
vt 0.202307 0.984273
vt 0.050481 0.988723
vt 0.050414 0.988251
vt 0.202350 0.984394
vt 0.050467 0.988623
vt 0.202350 0.984524
vt 0.050462 0.988501
vt 0.202307 0.984645
vt 0.050467 0.988372
vt 0.202226 0.984744
vt 0.050481 0.988251
vt 0.050346 0.988820
vt 0.202118 0.984809
vt 0.050329 0.988721
vt 0.201994 0.984831
vt 0.050320 0.988599
vt 0.201870 0.984809
vt 0.050320 0.988470
vt 0.201762 0.984744
vt 0.050329 0.988348
vt 0.201681 0.984645
vt 0.050346 0.988249
vt 0.051241 0.987139
vt 0.201638 0.984524
vt 0.051223 0.987040
vt 0.201638 0.984394
vt 0.051214 0.986919
vt 0.201681 0.984273
vt 0.051214 0.986789
vt 0.201762 0.984174
vt 0.051223 0.986668
vt 0.201870 0.984109
vt 0.051241 0.986569
vt 0.050414 0.988723
vt 0.201994 0.984087
vt 0.050395 0.988501
vt 0.202226 0.984174
vt 0.050400 0.988623
vt 0.202118 0.984109
s 1
usemtl Atlas.046
f 3/5/1 2/3/2 1/1/2
f 5/9/3 4/7/1 3/5/1
f 5/10/3 8/18/4 6/12/3
f 9/19/5 8/18/4 7/15/4
f 11/23/6 10/21/5 9/19/5
f 11/23/6 14/31/7 12/25/6
f 13/28/7 16/35/8 14/30/7
f 17/37/9 16/35/8 15/33/8
f 17/37/9 20/43/10 18/39/9
f 21/45/11 20/43/10 19/41/10
f 21/45/11 24/51/12 22/47/11
f 25/54/13 24/52/12 23/49/12
f 25/54/13 28/60/14 26/57/13
f 29/62/15 28/60/14 27/58/14
f 31/66/16 30/64/15 29/62/15
f 31/66/16 34/73/17 32/69/16
f 14/32/18 42/92/18 12/26/18
f 35/76/19 34/74/17 33/70/17
f 35/76/19 2/3/2 36/78/19
f 31/67/20 15/34/20 7/16/20
f 63/138/21 45/99/22 46/100/21
f 48/104/18 22/48/18 24/53/18
f 34/75/18 52/113/18 32/68/18
f 10/22/18 40/87/18 8/17/18
f 46/101/18 18/40/18 20/44/18
f 30/65/18 50/109/18 28/61/18
f 39/84/18 4/8/18 6/14/18
f 16/36/18 43/93/18 14/32/18
f 49/106/18 24/53/18 26/56/18
f 36/79/18 53/117/18 34/75/18
f 12/26/18 41/89/18 10/22/18
f 47/102/18 20/44/18 22/48/18
f 52/113/18 30/65/18 32/68/18
f 40/87/18 6/14/18 8/17/18
f 18/40/18 44/97/18 16/36/18
f 37/80/18 2/4/18 4/8/18
f 28/61/18 49/106/18 26/56/18
f 38/82/18 36/79/18 2/4/18
f 56/122/23 52/114/24 53/115/23
f 37/81/25 71/156/26 38/83/26
f 45/99/22 65/142/27 44/95/27
f 52/114/24 58/127/28 51/111/28
f 65/143/27 43/94/29 44/96/27
f 58/127/28 50/110/30 51/111/28
f 43/94/29 67/147/31 42/91/32
f 59/129/30 49/107/33 50/110/30
f 67/147/31 41/90/34 42/91/32
f 49/108/33 61/134/35 48/105/35
f 68/149/34 40/88/36 41/90/34
f 48/105/35 62/136/37 47/103/37
f 38/83/26 55/120/38 54/119/38
f 69/151/36 39/85/39 40/88/36
f 47/103/37 63/138/21 46/100/21
f 54/119/38 56/123/23 53/116/23
f 39/86/39 72/158/25 37/81/25
f 69/152/18 61/135/18 57/126/18
f 3/5/1 4/7/1 2/3/2
f 5/9/3 6/13/3 4/7/1
f 5/10/3 7/15/4 8/18/4
f 9/19/5 10/21/5 8/18/4
f 11/23/6 12/25/6 10/21/5
f 11/23/6 13/27/7 14/31/7
f 13/28/7 15/33/8 16/35/8
f 17/37/9 18/39/9 16/35/8
f 17/37/9 19/41/10 20/43/10
f 21/45/11 22/47/11 20/43/10
f 21/45/11 23/49/12 24/51/12
f 25/54/13 26/57/13 24/52/12
f 25/54/13 27/58/14 28/60/14
f 29/62/15 30/64/15 28/60/14
f 31/66/16 32/69/16 30/64/15
f 31/66/16 33/71/17 34/73/17
f 14/32/18 43/93/18 42/92/18
f 35/76/19 36/78/19 34/74/17
f 35/76/19 1/1/2 2/3/2
f 3/6/20 1/2/20 35/77/20
f 35/77/20 33/72/20 31/67/20
f 31/67/20 29/63/20 27/59/20
f 27/59/20 25/55/20 23/50/20
f 23/50/20 21/46/20 19/42/20
f 19/42/20 17/38/20 15/34/20
f 15/34/20 13/29/20 11/24/20
f 11/24/20 9/20/20 7/16/20
f 7/16/20 5/11/20 3/6/20
f 3/6/20 35/77/20 31/67/20
f 31/67/20 27/59/20 23/50/20
f 23/50/20 19/42/20 15/34/20
f 15/34/20 11/24/20 7/16/20
f 7/16/20 3/6/20 31/67/20
f 31/67/20 23/50/20 15/34/20
f 63/138/21 64/140/22 45/99/22
f 48/104/18 47/102/18 22/48/18
f 34/75/18 53/117/18 52/113/18
f 10/22/18 41/89/18 40/87/18
f 46/101/18 45/98/18 18/40/18
f 30/65/18 51/112/18 50/109/18
f 39/84/18 37/80/18 4/8/18
f 16/36/18 44/97/18 43/93/18
f 49/106/18 48/104/18 24/53/18
f 36/79/18 54/118/18 53/117/18
f 12/26/18 42/92/18 41/89/18
f 47/102/18 46/101/18 20/44/18
f 52/113/18 51/112/18 30/65/18
f 40/87/18 39/84/18 6/14/18
f 18/40/18 45/98/18 44/97/18
f 37/80/18 38/82/18 2/4/18
f 28/61/18 50/109/18 49/106/18
f 38/82/18 54/118/18 36/79/18
f 56/122/23 57/125/24 52/114/24
f 37/81/25 72/158/25 71/156/26
f 45/99/22 64/140/22 65/142/27
f 52/114/24 57/125/24 58/127/28
f 65/143/27 66/145/29 43/94/29
f 58/127/28 59/129/30 50/110/30
f 43/94/29 66/145/29 67/147/31
f 59/129/30 60/131/33 49/107/33
f 67/147/31 68/149/34 41/90/34
f 49/108/33 60/132/33 61/134/35
f 68/149/34 69/151/36 40/88/36
f 48/105/35 61/134/35 62/136/37
f 38/83/26 71/156/26 55/120/38
f 69/151/36 70/153/39 39/85/39
f 47/103/37 62/136/37 63/138/21
f 54/119/38 55/120/38 56/123/23
f 39/86/39 70/154/39 72/158/25
f 55/121/18 71/157/18 72/159/18
f 72/159/18 70/155/18 69/152/18
f 69/152/18 68/150/18 67/148/18
f 67/148/18 66/146/18 65/144/18
f 65/144/18 64/141/18 63/139/18
f 63/139/18 62/137/18 61/135/18
f 61/135/18 60/133/18 59/130/18
f 59/130/18 58/128/18 57/126/18
f 57/126/18 56/124/18 55/121/18
f 55/121/18 72/159/18 69/152/18
f 69/152/18 67/148/18 65/144/18
f 65/144/18 63/139/18 61/135/18
f 61/135/18 59/130/18 57/126/18
f 57/126/18 55/121/18 69/152/18
f 69/152/18 65/144/18 61/135/18
