# Blender 3.5.1
# www.blender.org
mtllib Stairs_Sphere.mtl
o Stairs_Sphere.016
v 0.728841 -0.004641 4.433833
v 0.728841 1.387158 2.159988
v 0.728841 -0.004641 3.988358
v 0.728841 1.077289 2.158588
v 0.909329 -0.004641 4.433833
v 0.909329 1.387158 2.159988
v 0.909329 -0.004641 3.988358
v 0.909329 1.077289 2.158588
v 0.728841 1.077289 1.319286
v 0.728841 1.387158 1.785000
v 0.909329 1.077289 1.319286
v 0.909329 1.387158 1.785000
v 0.759470 1.328359 1.835535
v -0.759469 -0.004641 4.074533
v -0.759469 1.328359 1.835535
v 0.759470 1.328359 1.788236
v 0.759470 -0.004641 4.074533
v -0.759469 1.328359 1.788236
v 0.759470 0.186864 3.735520
v 0.759470 0.186864 4.074533
v 0.759470 0.378368 3.408097
v 0.759470 0.378368 3.735520
v 0.759470 0.569872 3.080674
v 0.759470 0.569872 3.408097
v 0.759470 0.761376 2.753252
v 0.759470 0.761376 3.080674
v 0.759470 0.952880 2.425829
v 0.759470 0.952880 2.753252
v 0.759470 1.144384 2.106125
v 0.759470 1.144384 2.425829
v -0.759469 1.144384 2.425829
v -0.759469 1.144384 2.106125
v -0.759469 0.952880 2.753252
v -0.759469 0.952880 2.425829
v -0.759469 0.761376 3.080674
v -0.759469 0.761376 2.753252
v -0.759469 0.569872 3.408097
v -0.759469 0.569872 3.080674
v -0.759469 0.378368 3.735520
v -0.759469 0.378368 3.408097
v -0.759469 0.186864 4.074533
v -0.759469 0.186864 3.735520
v 0.759470 1.328359 2.106125
v -0.759469 1.328359 2.106125
v -0.728841 -0.004641 4.433833
v -0.728841 1.387158 2.159988
v -0.728841 -0.004641 3.988358
v -0.728841 1.077289 2.158588
v -0.909329 -0.004641 4.433833
v -0.909329 1.387158 2.159988
v -0.909329 -0.004641 3.988358
v -0.909329 1.077289 2.158588
v -0.728841 1.077289 1.319286
v -0.728841 1.387158 1.785000
v -0.909329 1.077289 1.319286
v -0.909329 1.387158 1.785000
v -0.759470 1.328359 1.835535
v 0.000000 1.328359 1.835535
v 0.759469 -0.004641 4.074533
v 0.759469 1.328359 1.835535
v -0.759470 1.328359 1.788236
v 0.000000 1.328359 1.788236
v 0.000000 -0.004641 4.074533
v -0.759470 -0.004641 4.074533
v 0.759469 1.328359 1.788236
v -0.759470 0.186864 3.735520
v -0.759470 0.186864 4.074533
v -0.759470 0.378368 3.408097
v -0.759470 0.378368 3.735520
v -0.759470 0.569872 3.080674
v -0.759470 0.569872 3.408097
v -0.759470 0.761376 2.753252
v -0.759470 0.761376 3.080674
v -0.759470 0.952880 2.425829
v -0.759470 0.952880 2.753252
v -0.759470 1.144384 2.106125
v -0.759470 1.144384 2.425829
v 0.759469 1.144384 2.425829
v 0.759469 1.144384 2.106125
v 0.759469 0.952880 2.753252
v 0.759469 0.952880 2.425829
v 0.759469 0.761376 3.080674
v 0.759469 0.761376 2.753252
v 0.759469 0.569872 3.408097
v 0.759469 0.569872 3.080674
v 0.759469 0.378368 3.735520
v 0.759469 0.378368 3.408097
v 0.759469 0.186864 4.074533
v 0.759469 0.186864 3.735520
v 0.000000 0.186864 4.074533
v 0.000000 0.186864 3.735520
v 0.000000 0.378368 3.735520
v 0.000000 0.378368 3.408097
v 0.000000 0.569872 3.408097
v 0.000000 0.569872 3.080674
v 0.000000 0.761376 3.080674
v 0.000000 0.761376 2.753252
v 0.000000 0.952880 2.753252
v 0.000000 0.952880 2.425829
v 0.000000 1.144384 2.425829
v 0.000000 1.144384 2.106125
v -0.759470 1.328359 2.106125
v 0.000000 1.328359 2.106125
v 0.759469 1.328359 2.106125
v 0.777050 1.200674 2.021305
v 0.858509 1.200674 2.021305
v 0.777050 1.200674 1.888290
v 0.858509 1.200674 1.888290
v 0.777050 0.033670 2.017130
v 0.858509 0.033670 2.017130
v 0.777050 0.033670 1.892465
v 0.858509 0.033670 1.892465
v 0.937348 0.004145 2.244220
v 0.937348 0.004145 1.665375
v 0.708320 0.004145 2.244220
v 0.708320 0.004145 1.665375
v 0.708320 0.055142 1.665375
v 0.708320 0.055142 2.244220
v 0.937348 0.055142 2.244220
v 0.937348 0.055142 1.665375
v 0.708320 0.004145 2.047495
v 0.708320 0.004145 1.862100
v 0.937348 0.004145 1.862100
v 0.937348 0.004145 2.047495
v 0.708320 0.116876 1.862100
v 0.708320 0.116876 2.047495
v 0.937348 0.116876 2.047495
v 0.937348 0.116876 1.862100
v 0.926276 1.007101 2.154936
v 0.928297 1.165344 2.154936
v 0.926276 1.007101 1.754658
v 0.928297 1.165344 1.754658
v 0.711303 1.010700 1.754658
v 0.711303 1.010700 2.154936
v 0.713324 1.168943 2.154936
v 0.713324 1.168943 1.754658
v -0.777050 1.200674 2.021305
v -0.858509 1.200674 2.021305
v -0.777050 1.200674 1.888290
v -0.858509 1.200674 1.888290
v -0.777050 0.033670 2.017130
v -0.858509 0.033670 2.017130
v -0.777050 0.033670 1.892465
v -0.858509 0.033670 1.892465
v -0.937348 0.004145 2.244220
v -0.937348 0.004145 1.665375
v -0.708320 0.004145 2.244220
v -0.708320 0.004145 1.665375
v -0.708320 0.055142 1.665375
v -0.708320 0.055142 2.244220
v -0.937348 0.055142 2.244220
v -0.937348 0.055142 1.665375
v -0.708320 0.004145 2.047495
v -0.708320 0.004145 1.862100
v -0.937348 0.004145 1.862100
v -0.937348 0.004145 2.047495
v -0.708320 0.116876 1.862100
v -0.708320 0.116876 2.047495
v -0.937348 0.116876 2.047495
v -0.937348 0.116876 1.862100
v -0.926276 1.007101 2.154936
v -0.928297 1.165344 2.154936
v -0.926276 1.007101 1.754658
v -0.928297 1.165344 1.754658
v -0.711303 1.010700 1.754658
v -0.711303 1.010700 2.154936
v -0.713324 1.168943 2.154936
v -0.713324 1.168943 1.754658
vn -1.0000 -0.0000 -0.0000
vn 1.0000 -0.0000 -0.0000
vn -0.0000 1.0000 -0.0000
vn -0.0000 0.8529 0.5221
vn -0.0000 -1.0000 -0.0000
vn -0.0000 -0.8608 -0.5090
vn -0.0000 0.8326 -0.5539
vn -0.0000 -0.0000 1.0000
vn -0.0000 -0.0036 -1.0000
vn -0.0000 -0.0036 1.0000
vn -0.0000 -0.0000 -1.0000
vn -0.0000 0.9541 0.2994
vn -0.0000 0.9541 -0.2994
vn 0.9999 -0.0128 -0.0000
vn -0.9999 0.0128 -0.0000
vn 0.0167 0.9999 -0.0000
vn -0.0167 -0.9999 -0.0000
vn -0.9999 -0.0128 -0.0000
vn 0.9999 0.0128 -0.0000
vn -0.0167 0.9999 -0.0000
vn 0.0167 -0.9999 -0.0000
vt 0.079586 0.987273
vt 0.080071 0.985612
vt 0.080347 0.987197
vt 0.080347 0.986032
vt 0.079363 0.985947
vt 0.079671 0.987065
vt 0.080071 0.985837
vt 0.079510 0.986005
vt 0.080071 0.986790
vt 0.080255 0.987197
vt 0.079979 0.985612
vt 0.079671 0.986939
vt 0.080255 0.986032
vt 0.079979 0.985821
vt 0.079979 0.986790
vt 0.079818 0.986881
vt 0.080347 0.985612
vt 0.079671 0.985612
vt 0.080071 0.987212
vt 0.080347 0.985843
vt 0.079435 0.985771
vt 0.080255 0.985612
vt 0.079979 0.987212
vt 0.080255 0.985843
vt 0.079743 0.987114
vt 0.013577 0.986370
vt 0.012914 0.987136
vt 0.013577 0.985603
vt 0.013415 0.986370
vt 0.013602 0.986370
vt 0.012914 0.986370
vt 0.013602 0.985603
vt 0.013415 0.985603
vt 0.013417 0.984837
vt 0.012914 0.985603
vt 0.013012 0.986370
vt 0.013087 0.985603
vt 0.013109 0.986370
vt 0.012914 0.986370
vt 0.013515 0.984837
vt 0.013081 0.986370
vt 0.013515 0.984837
vt 0.013248 0.986370
vt 0.013207 0.986370
vt 0.013415 0.986370
vt 0.013207 0.986370
vt 0.013081 0.986370
vt 0.013613 0.984837
vt 0.013248 0.986370
vt 0.013012 0.986370
vt 0.013254 0.984837
vt 0.013305 0.986370
vt 0.013087 0.984837
vt 0.013305 0.986370
vt 0.013254 0.985603
vt 0.013109 0.986370
vt 0.013417 0.985603
vt 0.013417 0.984837
vt 0.013109 0.987136
vt 0.013305 0.987136
vt 0.013254 0.984837
vt 0.013087 0.985603
vt 0.013305 0.987136
vt 0.013012 0.987136
vt 0.013254 0.985603
vt 0.013248 0.985603
vt 0.013613 0.985603
vt 0.013207 0.987136
vt 0.013081 0.985603
vt 0.013415 0.985603
vt 0.013207 0.987136
vt 0.013515 0.985603
vt 0.013248 0.985603
vt 0.013081 0.985603
vt 0.013515 0.985603
vt 0.013109 0.987136
vt 0.012914 0.985603
vt 0.013087 0.984837
vt 0.013012 0.987136
vt 0.013417 0.985603
vt 0.012914 0.984837
vt 0.013399 0.986370
vt 0.013577 0.986370
vt 0.013399 0.987136
vt 0.013577 0.985603
vt 0.080071 0.985612
vt 0.078970 0.985612
vt 0.080163 0.987197
vt 0.080163 0.986032
vt 0.078747 0.986939
vt 0.079055 0.985821
vt 0.080071 0.985837
vt 0.078894 0.986881
vt 0.080071 0.986790
vt 0.079278 0.987273
vt 0.080255 0.987197
vt 0.080163 0.985612
vt 0.079055 0.985947
vt 0.080255 0.986032
vt 0.079363 0.987065
vt 0.080163 0.985837
vt 0.080163 0.986790
vt 0.079202 0.986005
vt 0.080163 0.985612
vt 0.079055 0.987273
vt 0.080071 0.987212
vt 0.080163 0.985843
vt 0.078819 0.987114
vt 0.080255 0.985612
vt 0.079363 0.985612
vt 0.080163 0.987212
vt 0.080255 0.985843
vt 0.079127 0.985771
vt 0.013577 0.985603
vt 0.013577 0.985987
vt 0.012914 0.986370
vt 0.013577 0.986370
vt 0.013415 0.985603
vt 0.013602 0.985603
vt 0.013602 0.985987
vt 0.013415 0.985987
vt 0.012914 0.986753
vt 0.012914 0.987136
vt 0.013602 0.986370
vt 0.013415 0.986370
vt 0.013417 0.985603
vt 0.012914 0.984837
vt 0.013012 0.987136
vt 0.013087 0.984837
vt 0.013109 0.987136
vt 0.012914 0.985603
vt 0.013515 0.985603
vt 0.013081 0.985603
vt 0.013515 0.985603
vt 0.013248 0.985603
vt 0.013207 0.987136
vt 0.013415 0.985603
vt 0.013207 0.987136
vt 0.013081 0.985603
vt 0.013613 0.985603
vt 0.013248 0.985603
vt 0.013012 0.987136
vt 0.013254 0.985603
vt 0.013305 0.987136
vt 0.013087 0.985603
vt 0.013305 0.987136
vt 0.013254 0.984837
vt 0.013109 0.987136
vt 0.013417 0.984837
vt 0.013417 0.985603
vt 0.013109 0.986370
vt 0.013305 0.986370
vt 0.013254 0.985603
vt 0.013087 0.984837
vt 0.013305 0.986370
vt 0.013012 0.986370
vt 0.013254 0.984837
vt 0.013248 0.986370
vt 0.013613 0.984837
vt 0.013207 0.986370
vt 0.013081 0.986370
vt 0.013415 0.986370
vt 0.013207 0.986370
vt 0.013515 0.984837
vt 0.013248 0.986370
vt 0.013081 0.986370
vt 0.013515 0.984837
vt 0.013109 0.986370
vt 0.012914 0.986370
vt 0.013087 0.985603
vt 0.013012 0.986370
vt 0.013417 0.984837
vt 0.012914 0.985603
vt 0.013087 0.985220
vt 0.013012 0.986753
vt 0.013417 0.985220
vt 0.012914 0.985220
vt 0.013515 0.985220
vt 0.013081 0.985987
vt 0.013109 0.986753
vt 0.012914 0.985987
vt 0.013207 0.986753
vt 0.013415 0.985987
vt 0.013515 0.985220
vt 0.013248 0.985987
vt 0.013613 0.985220
vt 0.013248 0.985987
vt 0.013207 0.986753
vt 0.013081 0.985987
vt 0.013305 0.986753
vt 0.013087 0.985220
vt 0.013012 0.986753
vt 0.013254 0.985220
vt 0.013109 0.986753
vt 0.013417 0.985220
vt 0.013305 0.986753
vt 0.013254 0.985220
vt 0.013399 0.987136
vt 0.013577 0.985603
vt 0.013399 0.986753
vt 0.013577 0.985987
vt 0.013399 0.986370
vt 0.013577 0.986370
vt 0.080088 0.987212
vt 0.080280 0.987197
vt 0.080047 0.987212
vt 0.080231 0.987197
vt 0.080231 0.987197
vt 0.080347 0.987197
vt 0.080273 0.987197
vt 0.080163 0.987197
vt 0.080088 0.987801
vt 0.080282 0.987786
vt 0.080047 0.987801
vt 0.080229 0.987786
vt 0.080231 0.987786
vt 0.080345 0.987786
vt 0.080165 0.987786
vt 0.080273 0.987786
vt 0.079757 0.987273
vt 0.080137 0.987212
vt 0.079480 0.987565
vt 0.079757 0.987566
vt 0.079864 0.987273
vt 0.079480 0.987273
vt 0.079921 0.987566
vt 0.079363 0.987565
vt 0.080137 0.987328
vt 0.079864 0.987389
vt 0.079921 0.987273
vt 0.079363 0.987273
vt 0.079838 0.987389
vt 0.078864 0.987565
vt 0.079895 0.987273
vt 0.078864 0.987273
vt 0.079895 0.987566
vt 0.080163 0.987328
vt 0.079731 0.987273
vt 0.080163 0.987212
vt 0.078981 0.987273
vt 0.079838 0.987273
vt 0.079731 0.987566
vt 0.078981 0.987565
vt 0.079921 0.987466
vt 0.079363 0.987466
vt 0.079921 0.987373
vt 0.079363 0.987373
vt 0.079480 0.987373
vt 0.079757 0.987466
vt 0.079757 0.987373
vt 0.079480 0.987466
vt 0.078864 0.987467
vt 0.079864 0.987373
vt 0.079864 0.987466
vt 0.078864 0.987374
vt 0.079700 0.987373
vt 0.078981 0.987374
vt 0.079700 0.987466
vt 0.078981 0.987467
vt 0.079444 0.987674
vt 0.079590 0.987475
vt 0.079136 0.987273
vt 0.079590 0.987677
vt 0.079363 0.987673
vt 0.079590 0.987274
vt 0.079509 0.987475
vt 0.078909 0.987565
vt 0.079590 0.987475
vt 0.079136 0.987475
vt 0.078828 0.987566
vt 0.079671 0.987475
vt 0.079480 0.987273
vt 0.078909 0.987674
vt 0.079671 0.987677
vt 0.079444 0.987565
vt 0.079590 0.987677
vt 0.079027 0.987274
vt 0.079363 0.987565
vt 0.078828 0.987674
vt 0.079590 0.987475
vt 0.079027 0.987475
vt 0.080088 0.987212
vt 0.080900 0.987145
vt 0.080130 0.987212
vt 0.079979 0.987212
vt 0.080942 0.987145
vt 0.080832 0.987145
vt 0.080900 0.987145
vt 0.080047 0.987212
vt 0.080088 0.987801
vt 0.080898 0.987734
vt 0.080130 0.987801
vt 0.079981 0.987801
vt 0.080942 0.987734
vt 0.080835 0.987734
vt 0.080045 0.987801
vt 0.080900 0.987734
vt 0.078981 0.987389
vt 0.079757 0.987273
vt 0.079363 0.987273
vt 0.079757 0.987566
vt 0.080137 0.987328
vt 0.079363 0.987565
vt 0.079979 0.987273
vt 0.079246 0.987273
vt 0.078981 0.987273
vt 0.080137 0.987443
vt 0.079246 0.987565
vt 0.079979 0.987566
vt 0.080163 0.987443
vt 0.078864 0.987565
vt 0.079953 0.987566
vt 0.078864 0.987273
vt 0.079953 0.987273
vt 0.079007 0.987273
vt 0.079783 0.987273
vt 0.079007 0.987389
vt 0.078747 0.987273
vt 0.080163 0.987328
vt 0.079783 0.987566
vt 0.078747 0.987565
vt 0.079979 0.987373
vt 0.079246 0.987373
vt 0.079979 0.987466
vt 0.079246 0.987466
vt 0.079363 0.987466
vt 0.079757 0.987466
vt 0.079757 0.987373
vt 0.079363 0.987373
vt 0.078864 0.987467
vt 0.079921 0.987466
vt 0.079921 0.987373
vt 0.078864 0.987374
vt 0.079815 0.987373
vt 0.078747 0.987374
vt 0.079815 0.987466
vt 0.078747 0.987467
vt 0.079136 0.987475
vt 0.078828 0.987565
vt 0.079700 0.987273
vt 0.079217 0.987475
vt 0.078747 0.987566
vt 0.079700 0.987475
vt 0.079327 0.987674
vt 0.079136 0.987677
vt 0.079246 0.987274
vt 0.079217 0.987677
vt 0.079027 0.987475
vt 0.079590 0.987475
vt 0.079327 0.987565
vt 0.079027 0.987677
vt 0.079590 0.987274
vt 0.078828 0.987674
vt 0.079107 0.987677
vt 0.079136 0.987475
vt 0.078747 0.987674
vt 0.079107 0.987475
vt 0.079136 0.987273
vt 0.079246 0.987565
s 0
usemtl Atlas.050
f 2/5/1 3/6/1 1/1/1
f 6/12/2 7/14/2 8/16/2
f 6/13/3 10/20/3 2/4/3
f 1/3/4 6/13/4 2/4/4
f 3/7/5 5/11/5 1/2/5
f 4/9/6 7/14/6 3/7/6
f 10/20/7 11/22/7 9/17/7
f 8/16/2 12/25/2 6/12/2
f 4/8/1 10/21/1 9/18/1
f 4/9/5 11/23/5 8/15/5
f 92/178/8 19/34/8 22/40/8
f 58/115/5 16/30/5 13/26/5
f 18/32/5 58/115/5 15/28/5
f 31/59/8 99/192/8 100/194/8
f 33/63/8 97/188/8 98/190/8
f 35/67/8 95/184/8 96/186/8
f 37/71/8 93/180/8 94/182/8
f 39/75/8 91/176/8 92/178/8
f 41/79/8 63/122/8 90/175/8
f 44/84/8 101/196/8 103/200/8
f 103/200/8 29/54/8 43/82/8
f 100/194/8 27/50/8 30/56/8
f 98/190/8 25/46/8 28/52/8
f 96/186/8 23/42/8 26/48/8
f 94/182/8 21/38/8 24/44/8
f 100/195/3 32/61/3 31/58/3
f 98/191/3 34/65/3 33/62/3
f 96/187/3 36/69/3 35/66/3
f 94/183/3 38/73/3 37/70/3
f 92/179/3 40/77/3 39/74/3
f 90/174/3 42/81/3 41/78/3
f 30/57/3 101/197/3 100/195/3
f 28/53/3 99/193/3 98/191/3
f 26/49/3 97/189/3 96/187/3
f 24/45/3 95/185/3 94/183/3
f 22/41/3 93/181/3 92/179/3
f 20/37/3 91/177/3 90/174/3
f 90/175/8 17/31/8 20/36/8
f 62/121/3 43/83/3 16/29/3
f 18/33/3 103/201/3 62/121/3
f 46/90/2 47/91/2 48/93/2
f 50/98/1 51/100/1 49/95/1
f 54/107/3 50/99/3 46/89/3
f 50/99/4 45/88/4 46/89/4
f 49/97/5 47/92/5 45/86/5
f 51/101/6 48/94/6 47/92/6
f 55/109/7 54/107/7 53/104/7
f 56/113/1 52/103/1 50/98/1
f 48/93/2 54/108/2 46/90/2
f 55/111/5 48/94/5 52/102/5
f 66/126/8 92/178/8 69/132/8
f 61/119/5 58/115/5 57/114/5
f 58/115/5 65/124/5 60/117/5
f 99/192/8 78/151/8 100/194/8
f 97/188/8 80/155/8 98/190/8
f 95/184/8 82/159/8 96/186/8
f 93/180/8 84/163/8 94/182/8
f 91/176/8 86/167/8 92/178/8
f 63/122/8 88/171/8 90/175/8
f 101/196/8 104/202/8 103/200/8
f 76/146/8 103/200/8 102/198/8
f 74/142/8 100/194/8 77/148/8
f 72/138/8 98/190/8 75/144/8
f 70/134/8 96/186/8 73/140/8
f 68/130/8 94/182/8 71/136/8
f 79/153/3 100/195/3 78/150/3
f 81/157/3 98/191/3 80/154/3
f 83/161/3 96/187/3 82/158/3
f 85/165/3 94/183/3 84/162/3
f 87/169/3 92/179/3 86/166/3
f 89/173/3 90/174/3 88/170/3
f 101/197/3 77/149/3 100/195/3
f 99/193/3 75/145/3 98/191/3
f 97/189/3 73/141/3 96/187/3
f 95/185/3 71/137/3 94/183/3
f 93/181/3 69/133/3 92/179/3
f 91/177/3 67/129/3 90/174/3
f 64/123/8 90/175/8 67/128/8
f 102/199/3 62/121/3 61/118/3
f 103/201/3 65/125/3 62/121/3
f 108/210/9 111/216/9 107/208/9
f 110/214/10 105/204/10 109/212/10
f 111/217/1 105/205/1 107/209/1
f 108/211/2 110/215/2 112/218/2
f 124/250/2 119/238/2 113/220/2
f 117/232/11 114/224/11 116/229/11
f 118/236/1 121/244/1 115/226/1
f 120/242/2 123/249/2 114/223/2
f 119/239/8 115/228/8 113/221/8
f 119/240/12 126/255/12 118/235/12
f 116/231/5 123/248/5 122/247/5
f 128/259/13 117/233/13 125/252/13
f 122/246/1 117/234/1 116/230/1
f 123/249/2 127/256/2 124/250/2
f 121/244/1 125/253/1 122/246/1
f 126/255/3 128/259/3 125/252/3
f 124/251/5 122/247/5 123/248/5
f 121/245/5 113/222/5 115/227/5
f 131/266/14 130/263/14 129/260/14
f 135/276/15 133/271/15 134/274/15
f 132/269/16 135/277/16 130/262/16
f 129/261/17 133/272/17 131/265/17
f 132/270/11 133/273/11 136/279/11
f 130/264/8 134/275/8 129/260/8
f 143/294/9 140/288/9 139/286/9
f 137/282/10 142/292/10 141/290/10
f 137/283/2 143/295/2 139/287/2
f 142/293/1 140/289/1 144/296/1
f 156/328/1 151/316/1 159/334/1
f 146/302/11 149/310/11 148/307/11
f 153/322/2 150/314/2 147/304/2
f 155/327/1 152/320/1 146/301/1
f 147/306/8 151/317/8 145/298/8
f 158/333/12 151/318/12 150/313/12
f 155/326/5 148/308/5 154/325/5
f 149/311/13 160/337/13 157/330/13
f 154/324/2 149/312/2 157/331/2
f 159/334/1 155/327/1 156/328/1
f 157/331/2 153/322/2 154/324/2
f 160/337/3 158/333/3 157/330/3
f 154/325/5 156/329/5 155/326/5
f 145/300/5 153/323/5 147/305/5
f 162/341/18 163/345/18 161/338/18
f 165/348/19 167/354/19 166/351/19
f 167/355/20 164/346/20 162/341/20
f 165/349/21 161/340/21 163/343/21
f 164/347/11 165/350/11 163/344/11
f 166/353/8 162/342/8 161/339/8
f 2/5/1 4/8/1 3/6/1
f 6/12/2 5/11/2 7/14/2
f 6/13/3 12/24/3 10/20/3
f 1/3/4 5/10/4 6/13/4
f 3/7/5 7/14/5 5/11/5
f 4/9/6 8/15/6 7/14/6
f 10/20/7 12/24/7 11/22/7
f 8/16/2 11/23/2 12/25/2
f 4/8/1 2/5/1 10/21/1
f 4/9/5 9/19/5 11/23/5
f 92/178/8 91/176/8 19/34/8
f 58/115/5 62/120/5 16/30/5
f 18/32/5 62/120/5 58/115/5
f 31/59/8 34/64/8 99/192/8
f 33/63/8 36/68/8 97/188/8
f 35/67/8 38/72/8 95/184/8
f 37/71/8 40/76/8 93/180/8
f 39/75/8 42/80/8 91/176/8
f 41/79/8 14/27/8 63/122/8
f 44/84/8 32/60/8 101/196/8
f 103/200/8 101/196/8 29/54/8
f 100/194/8 99/192/8 27/50/8
f 98/190/8 97/188/8 25/46/8
f 96/186/8 95/184/8 23/42/8
f 94/182/8 93/180/8 21/38/8
f 100/195/3 101/197/3 32/61/3
f 98/191/3 99/193/3 34/65/3
f 96/187/3 97/189/3 36/69/3
f 94/183/3 95/185/3 38/73/3
f 92/179/3 93/181/3 40/77/3
f 90/174/3 91/177/3 42/81/3
f 30/57/3 29/55/3 101/197/3
f 28/53/3 27/51/3 99/193/3
f 26/49/3 25/47/3 97/189/3
f 24/45/3 23/43/3 95/185/3
f 22/41/3 21/39/3 93/181/3
f 20/37/3 19/35/3 91/177/3
f 90/175/8 63/122/8 17/31/8
f 62/121/3 103/201/3 43/83/3
f 18/33/3 44/85/3 103/201/3
f 46/90/2 45/87/2 47/91/2
f 50/98/1 52/103/1 51/100/1
f 54/107/3 56/112/3 50/99/3
f 50/99/4 49/96/4 45/88/4
f 49/97/5 51/101/5 47/92/5
f 51/101/6 52/102/6 48/94/6
f 55/109/7 56/112/7 54/107/7
f 56/113/1 55/110/1 52/103/1
f 48/93/2 53/105/2 54/108/2
f 55/111/5 53/106/5 48/94/5
f 66/126/8 91/176/8 92/178/8
f 61/119/5 62/120/5 58/115/5
f 58/115/5 62/120/5 65/124/5
f 99/192/8 81/156/8 78/151/8
f 97/188/8 83/160/8 80/155/8
f 95/184/8 85/164/8 82/159/8
f 93/180/8 87/168/8 84/163/8
f 91/176/8 89/172/8 86/167/8
f 63/122/8 59/116/8 88/171/8
f 101/196/8 79/152/8 104/202/8
f 76/146/8 101/196/8 103/200/8
f 74/142/8 99/192/8 100/194/8
f 72/138/8 97/188/8 98/190/8
f 70/134/8 95/184/8 96/186/8
f 68/130/8 93/180/8 94/182/8
f 79/153/3 101/197/3 100/195/3
f 81/157/3 99/193/3 98/191/3
f 83/161/3 97/189/3 96/187/3
f 85/165/3 95/185/3 94/183/3
f 87/169/3 93/181/3 92/179/3
f 89/173/3 91/177/3 90/174/3
f 101/197/3 76/147/3 77/149/3
f 99/193/3 74/143/3 75/145/3
f 97/189/3 72/139/3 73/141/3
f 95/185/3 70/135/3 71/137/3
f 93/181/3 68/131/3 69/133/3
f 91/177/3 66/127/3 67/129/3
f 64/123/8 63/122/8 90/175/8
f 102/199/3 103/201/3 62/121/3
f 103/201/3 104/203/3 65/125/3
f 108/210/9 112/219/9 111/216/9
f 110/214/10 106/206/10 105/204/10
f 111/217/1 109/213/1 105/205/1
f 108/211/2 106/207/2 110/215/2
f 124/250/2 127/256/2 119/238/2
f 117/232/11 120/241/11 114/224/11
f 118/236/1 126/254/1 121/244/1
f 120/242/2 128/258/2 123/249/2
f 119/239/8 118/237/8 115/228/8
f 119/240/12 127/257/12 126/255/12
f 116/231/5 114/225/5 123/248/5
f 128/259/13 120/243/13 117/233/13
f 122/246/1 125/253/1 117/234/1
f 123/249/2 128/258/2 127/256/2
f 121/244/1 126/254/1 125/253/1
f 126/255/3 127/257/3 128/259/3
f 124/251/5 121/245/5 122/247/5
f 121/245/5 124/251/5 113/222/5
f 131/266/14 132/268/14 130/263/14
f 135/276/15 136/280/15 133/271/15
f 132/269/16 136/281/16 135/277/16
f 129/261/17 134/275/17 133/272/17
f 132/270/11 131/267/11 133/273/11
f 130/264/8 135/278/8 134/275/8
f 143/294/9 144/297/9 140/288/9
f 137/282/10 138/284/10 142/292/10
f 137/283/2 141/291/2 143/295/2
f 142/293/1 138/285/1 140/289/1
f 156/328/1 145/299/1 151/316/1
f 146/302/11 152/319/11 149/310/11
f 153/322/2 158/332/2 150/314/2
f 155/327/1 160/336/1 152/320/1
f 147/306/8 150/315/8 151/317/8
f 158/333/12 159/335/12 151/318/12
f 155/326/5 146/303/5 148/308/5
f 149/311/13 152/321/13 160/337/13
f 154/324/2 148/309/2 149/312/2
f 159/334/1 160/336/1 155/327/1
f 157/331/2 158/332/2 153/322/2
f 160/337/3 159/335/3 158/333/3
f 154/325/5 153/323/5 156/329/5
f 145/300/5 156/329/5 153/323/5
f 162/341/18 164/347/18 163/345/18
f 165/348/19 168/357/19 167/354/19
f 167/355/20 168/358/20 164/346/20
f 165/349/21 166/352/21 161/340/21
f 164/347/11 168/359/11 165/350/11
f 166/353/8 167/356/8 162/342/8
